<svg xmlns="http://www.w3.org/2000/svg" width="787.42988" height="787.42988" viewBox="0 0 787.42988 787.42988">
  <defs>
    <style>
      .cls-1 {
        isolation: isolate;
      }

      .cls-2 {
        fill: #fff;
      }

      .cls-3 {
        opacity: 0.5;
      }

      .cls-4, .cls-9 {
        fill: #d6e5eb;
      }

      .cls-5 {
        fill: #413e48;
      }

      .cls-6 {
        fill: red;
      }

      .cls-7 {
        fill: #120e1a;
      }

      .cls-8 {
        opacity: 0.3;
      }

      .cls-9 {
        mix-blend-mode: multiply;
      }
    </style>
  </defs>
  <g class="cls-1">
    <g id="Ñëîé_1" data-name="Ñëîé 1">
      <g>
        <circle class="cls-2" cx="460.72034" cy="450.00072" r="357.92267" transform="translate(-250.26209 401.29557) rotate(-45)"/>
        <g class="cls-3">
          <path class="cls-4" d="M460.71961,77.76259l.00073,744.477A371.07052,371.07052,0,0,0,723.93336,713.213c145.36542-145.36557,145.36828-381.05621.00128-526.42535A371.07755,371.07755,0,0,0,460.71961,77.76259Z" transform="translate(-67.0054 -56.28506)"/>
        </g>
        <rect class="cls-5" x="385.12586" y="87.49809" width="17.17994" height="317.83532"/>
        <rect class="cls-5" x="432.46791" y="379.8653" width="254.84186" height="25.77054" transform="translate(-188.37135 276.29543) rotate(-30.00147)"/>
        <rect class="cls-6" x="192.45402" y="539.9539" width="350.89873" height="5.7261" transform="translate(-343.07854 362.84932) rotate(-45)"/>
        <circle class="cls-7" cx="393.71494" cy="393.71494" r="21.47536"/>
        <g>
          <path class="cls-5" d="M102.79767,450.00143c0-197.67609,160.248-357.9241,357.92267-357.9241A356.80431,356.80431,0,0,1,713.808,196.91161l25.309-25.309A392.48227,392.48227,0,0,0,460.72034,56.28506c-217.44089,0-393.71494,176.27405-393.71494,393.71637a392.47954,392.47954,0,0,0,115.31681,278.3967l25.309-25.309A356.80167,356.80167,0,0,1,102.79767,450.00143Z" transform="translate(-67.0054 -56.28506)"/>
          <path class="cls-7" d="M739.117,171.60261l-25.309,25.309A356.8042,356.8042,0,0,1,818.643,450.00143c0,197.67254-160.25431,357.92124-357.92267,357.92124A356.80252,356.80252,0,0,1,207.6312,703.08914l-25.309,25.309.00143.00144a392.48258,392.48258,0,0,0,278.3967,115.31537c217.438,0,393.71494-176.27132,393.71494-393.71351A392.48348,392.48348,0,0,0,739.117,171.60261Z" transform="translate(-67.0054 -56.28506)"/>
        </g>
        <g>
          <rect class="cls-5" x="163.61764" y="261.4948" width="7.15836" height="38.08007" transform="translate(-226.35727 228.78046) rotate(-60.00025)"/>
          <rect class="cls-5" x="287.67525" y="137.43653" width="7.15836" height="38.08067" transform="translate(-106.22331 110.30057) rotate(-29.99905)"/>
          <rect class="cls-5" x="611.14513" y="152.90009" width="38.08209" height="7.15842" transform="translate(112.57138 567.71061) rotate(-59.99984)"/>
          <rect class="cls-5" x="735.19986" y="276.95673" width="38.08307" height="7.1583" transform="translate(-106.22245 358.43041) rotate(-30.00073)"/>
          <rect class="cls-5" x="35.79227" y="390.13644" width="38.07609" height="7.15772"/>
          <rect class="cls-5" x="713.55934" y="390.13644" width="38.07827" height="7.15772"/>
          <rect class="cls-5" x="390.13571" y="35.79227" width="7.15845" height="38.07612"/>
          <rect class="cls-5" x="148.15659" y="615.88666" width="38.08262" height="7.15842" transform="translate(-354.33929 110.30781) rotate(-30.00015)"/>
          <rect class="cls-5" x="750.66151" y="600.42288" width="7.15836" height="38.08463" transform="translate(-226.36074 906.63093) rotate(-59.99949)"/>
          <rect class="cls-5" x="626.60496" y="724.47803" width="7.15836" height="38.08466" transform="translate(-354.33973 358.4277) rotate(-30.00049)"/>
          <rect class="cls-5" x="272.21452" y="739.94329" width="38.08262" height="7.1583" transform="translate(-565.28529 567.70107) rotate(-59.99927)"/>
          <rect class="cls-5" x="390.13571" y="713.55937" width="7.15845" height="38.07824"/>
        </g>
        <g class="cls-8">
          <rect class="cls-5" x="372.23958" y="634.23897" width="42.95072" height="14.31691"/>
        </g>
      </g>
      <path class="cls-9" d="M475.03725,106.39423a356.673,356.673,0,0,1,245.8174,97.78636A356.90477,356.90477,0,0,0,460.72034,92.07733c-197.67469,0-357.92267,160.248-357.92267,357.9241A356.90305,356.90305,0,0,0,214.9009,710.13706a356.67326,356.67326,0,0,1-97.78633-245.81872C117.11457,266.64225,277.36256,106.39423,475.03725,106.39423Z" transform="translate(-67.0054 -56.28506)"/>
    </g>
  </g>
</svg>
