<svg id="Capa_1" data-name="Capa 1" xmlns="http://www.w3.org/2000/svg" xmlns:xlink="http://www.w3.org/1999/xlink" width="80.4846cm" height="46.81799cm" viewBox="0 0 2281.45334 1327.1242">
  <defs>
    <style>
      .cls-1 {
        fill: #1f91bf;
      }

      .cls-2 {
        fill: #69acd5;
      }

      .cls-3 {
        fill: #c3d4e5;
      }

      .cls-4 {
        fill: #fff;
      }

      .cls-5 {
        fill: #90d1f2;
      }

      .cls-6 {
        fill: #0087ba;
      }

      .cls-7 {
        fill: url(#Degradado_sin_nombre_355);
      }

      .cls-8 {
        fill: #ea8080;
      }

      .cls-9 {
        fill: #e55e73;
      }

      .cls-10 {
        fill: #ef9a8b;
      }

      .cls-11 {
        fill: #e66676;
      }

      .cls-12 {
        fill: #c25563;
      }
    </style>
    <linearGradient id="Degradado_sin_nombre_355" data-name="Degradado sin nombre 355" x1="-795.43584" y1="-690.73478" x2="-788.82153" y2="-690.73478" gradientTransform="matrix(115.4198, 0, 0, -115.4198, 92619.36217, -79559.96063)" gradientUnits="userSpaceOnUse">
      <stop offset="0" stop-color="#3981a3"/>
      <stop offset="0.15671" stop-color="#3981a3"/>
      <stop offset="0.42611" stop-color="#2b81a9"/>
      <stop offset="0.93681" stop-color="#0581b7"/>
      <stop offset="1" stop-color="#0081b9"/>
    </linearGradient>
  </defs>
  <polygon class="cls-1" points="1269.643 1327.124 1114.418 1327.124 1144.169 1048.561 1239.891 1048.561 1269.643 1327.124"/>
  <rect class="cls-2" x="473.53463" y="123.84142" width="1436.99084" height="983.31593"/>
  <rect class="cls-3" x="527.32138" y="170.47151" width="1329.41734" height="837.74818"/>
  <rect class="cls-4" x="543.12106" y="184.05534" width="1297.81797" height="810.5771"/>
  <path class="cls-5" d="M1245.307,1365.62878a35.381,35.381,0,1,0,35.37766,35.381A35.38122,35.38122,0,0,0,1245.307,1365.62878Zm0,60.51429a25.135,25.135,0,1,1,25.13333-25.13333A25.13354,25.13354,0,0,1,1245.307,1426.14307Z" transform="translate(-53.27333 -343.16313)"/>
  <path class="cls-2" d="M1402.35262,1628.50171H1088.25416a41.90816,41.90816,0,0,0-41.78562,41.78562h397.6697A41.90824,41.90824,0,0,0,1402.35262,1628.50171Z" transform="translate(-53.27333 -343.16313)"/>
  <rect class="cls-4" x="1840.93904" y="1068.47919" width="13.23527" height="39.05253"/>
  <rect class="cls-4" x="1799.93522" y="1068.47919" width="13.23527" height="39.05253"/>
  <rect class="cls-4" x="1758.93141" y="1068.47919" width="13.23539" height="39.05253"/>
  <rect class="cls-4" x="1717.9276" y="1068.47919" width="13.23469" height="39.05253"/>
  <rect class="cls-1" x="810.31839" width="763.4232" height="472.25871"/>
  <polygon class="cls-6" points="1192.034 143.239 1573.742 472.259 810.318 472.259 1192.034 143.239"/>
  <polygon class="cls-7" points="1192.034 329.02 810.318 0 1573.742 0 1192.034 329.02"/>
  <path class="cls-2" d="M989.85878,881.207H98.353a45.13323,45.13323,0,0,0-45.07966,45.08284V1104.481A45.1304,45.1304,0,0,0,98.353,1149.5605H989.85878a45.13053,45.13053,0,0,0,45.08016-45.07953V926.28985A45.13336,45.13336,0,0,0,989.85878,881.207Zm28.29229,223.274a28.3252,28.3252,0,0,1-28.29229,28.29164H98.353A28.32467,28.32467,0,0,1,70.06132,1104.481V926.28985A28.32247,28.32247,0,0,1,98.353,897.9983H989.85878a28.323,28.323,0,0,1,28.29229,28.29155Z" transform="translate(-53.27333 -343.16313)"/>
  <polygon class="cls-2" points="220.07 618.121 208.198 606.248 162.491 651.955 162.491 587.316 145.703 587.316 145.703 651.955 99.997 606.248 88.125 618.121 133.831 663.827 69.192 663.827 69.192 680.618 133.831 680.618 88.125 726.321 99.997 738.193 145.703 692.487 145.703 757.126 162.491 757.126 162.491 692.487 208.198 738.193 220.07 726.321 174.363 680.618 239.002 680.618 239.002 663.827 174.363 663.827 220.07 618.121"/>
  <polygon class="cls-2" points="444.558 618.121 432.686 606.248 386.98 651.955 386.98 587.316 370.192 587.316 370.192 651.955 324.485 606.248 312.613 618.121 358.32 663.827 293.681 663.827 293.681 680.618 358.32 680.618 312.613 726.321 324.485 738.193 370.192 692.487 370.192 757.126 386.98 757.126 386.98 692.487 432.686 738.193 444.558 726.321 398.852 680.618 463.49 680.618 463.49 663.827 398.852 663.827 444.558 618.121"/>
  <polygon class="cls-2" points="669.053 618.121 657.181 606.248 611.474 651.955 611.474 587.316 594.686 587.316 594.686 651.955 548.98 606.248 537.107 618.121 582.814 663.827 518.175 663.827 518.175 680.618 582.814 680.618 537.107 726.321 548.98 738.193 594.686 692.487 594.686 757.126 611.474 757.126 611.474 692.487 657.181 738.193 669.053 726.321 623.346 680.618 687.985 680.618 687.985 663.827 623.346 663.827 669.053 618.121"/>
  <polygon class="cls-2" points="893.54 618.121 881.668 606.248 835.962 651.955 835.962 587.316 819.174 587.316 819.174 651.955 773.468 606.248 761.596 618.121 807.302 663.827 742.67 663.827 742.67 680.618 807.302 680.618 761.596 726.321 773.468 738.193 819.174 692.487 819.174 757.126 835.962 757.126 835.962 692.487 881.668 738.193 893.54 726.321 847.84 680.618 912.473 680.618 912.473 663.827 847.835 663.827 893.54 618.121"/>
  <path class="cls-8" d="M1630.78779,1006.76366l55.80871,56.7036,50.56363-32.923,54.42626,35.43585h7.69983l54.42638-35.43585,54.42626,35.43585h12.72475c55.29878,1.65692,100.94055,58.39892,100.94055,58.39892a178.58962,178.58962,0,1,0,0-235.31077s-46.99183,58.47961-103.39517,58.47961H1689.06373Zm518.07114-.03841a58.45711,58.45711,0,1,1,58.45711,58.45711A58.45654,58.45654,0,0,1,2148.85893,1006.72525Z" transform="translate(-53.27333 -343.16313)"/>
  <path class="cls-9" d="M1995.59807,993.88412a12.88035,12.88035,0,0,1-12.84113,12.84113H1630.82619L1656.1017,981.043h326.65524A12.87989,12.87989,0,0,1,1995.59807,993.88412Z" transform="translate(-53.27333 -343.16313)"/>
  <path class="cls-9" d="M1641.25169,1017.39624h341.50525a12.84113,12.84113,0,0,1,0,25.68226H1872.961l-19.24838-12.53428-19.24921,12.53428h-78.05488l-19.24838-12.53428-19.24921,12.53428H1666.5272Z" transform="translate(-53.27333 -343.16313)"/>
  <path class="cls-10" d="M1706.61362,968.82159h280.99425a7.9885,7.9885,0,1,0,0-15.977H1706.61362a7.9885,7.9885,0,1,0,0,15.977Z" transform="translate(-53.27333 -343.16313)"/>
  <path class="cls-11" d="M2043.39079,1006.72525a123.54152,123.54152,0,1,0,123.54187-123.54186A123.54139,123.54139,0,0,0,2043.39079,1006.72525Zm105.46814,0a58.45711,58.45711,0,1,1,58.45711,58.45711A58.45654,58.45654,0,0,1,2148.85893,1006.72525Z" transform="translate(-53.27333 -343.16313)"/>
  <path class="cls-10" d="M2057.369,881.06154c0,15.551,44.31092-8.23556,98.96347-8.23556,54.65915,0,98.97019,23.78655,98.97019,8.23556,0-15.55043-44.311-45.39912-98.97019-45.39912C2101.67992,835.66242,2057.369,865.51111,2057.369,881.06154Z" transform="translate(-53.27333 -343.16313)"/>
  <path class="cls-12" d="M2071.39209,1006.72525a99.70665,99.70665,0,1,0,99.707-99.70958A99.708,99.708,0,0,0,2071.39209,1006.72525Zm77.46684,0a58.45711,58.45711,0,1,1,58.45711,58.45711A58.45654,58.45654,0,0,1,2148.85893,1006.72525Z" transform="translate(-53.27333 -343.16313)"/>
</svg>
