<svg xmlns="http://www.w3.org/2000/svg" width="3600" height="1999.99999" viewBox="0 0 3600 1999.99999">
  <defs>
    <style>
      .cls-1 {
        fill: #b983ff;
      }

      .cls-2 {
        fill: #a16ee7;
      }

      .cls-3 {
        fill: #31dae7;
      }

      .cls-4 {
        fill: #8b5dd0;
      }

      .cls-5 {
        fill: #fff;
      }

      .cls-6 {
        fill: #f36b80;
      }

      .cls-7 {
        fill: #f2f2f2;
      }

      .cls-8 {
        fill: #ffb3c5;
      }

      .cls-9 {
        fill: #e25a74;
      }

      .cls-10 {
        fill: #ea94ad;
      }

      .cls-11 {
        fill: #f7a491;
      }

      .cls-12 {
        fill: #f47458;
      }

      .cls-13 {
        fill: #472a6a;
      }

      .cls-14 {
        fill: #5c407b;
      }

      .cls-15 {
        fill: #34bed1;
      }

      .cls-16 {
        fill: #e1dde7;
      }
    </style>
  </defs>
  <g id="Ñëîé_2" data-name="Ñëîé 2">
    <g>
      <rect class="cls-1" width="3600" height="1999.99999"/>
      <path class="cls-2" d="M0,1673.2695c304.8979,0,630.8755,208.5351,664,326.7305H0Z" transform="translate(-0.00002 -0.00001)"/>
      <path class="cls-2" d="M1754,2000c-30-820,862-750,677.93162-1261.0752C2274.61812,302.1372,1413,506,1277,0H3600V2000Z" transform="translate(-0.00002 -0.00001)"/>
      <path class="cls-3" d="M3600,0h-491.4649A342.86544,342.86544,0,0,0,3055,184.4995C3055,374.7617,3209.23832,529,3399.5,529A342.92,342.92,0,0,0,3600,464.6586Z" transform="translate(-0.00002 -0.00001)"/>
    </g>
  </g>
  <g id="Layer_1" data-name="Layer 1">
    <g>
      <path class="cls-4" d="M2857.76281,1788.57231H817.19845a6.852,6.852,0,0,0-6.91346,6.25349,6.69981,6.69981,0,0,0,6.68456,7.14465H2857.76281a6.69852,6.69852,0,0,0,6.69973-6.69853h0A6.69952,6.69952,0,0,0,2857.76281,1788.57231Z" transform="translate(-0.00002 -0.00001)"/>
      <g>
        <circle class="cls-3" cx="1525.66209" cy="401.67945" r="109.98409" transform="translate(162.8258 1196.45519) rotate(-45)"/>
        <circle class="cls-3" cx="1525.66239" cy="401.67942" r="107.12115" transform="translate(-4.7466 18.48173) rotate(-0.69299)"/>
        <path class="cls-5" d="M1606.53247,368.33312a87.47394,87.47394,0,1,1-114.48672-46.8633A87.47388,87.47388,0,0,1,1606.53247,368.33312Z" transform="translate(-0.00002 -0.00001)"/>
        <path class="cls-5" d="M1557.73207,478.19871A82.91823,82.91823,0,1,1,1602.15485,369.674,83.01164,83.01164,0,0,1,1557.73207,478.19871Z" transform="translate(-0.00002 -0.00001)"/>
        <g>
          <path class="cls-3" d="M1457.79157,425.3826l-13.69249,5.73908a4.42342,4.42342,0,1,0,3.41983,8.15913l13.69141-5.73847a4.42349,4.42349,0,1,0-3.41875-8.15974Z" transform="translate(-0.00002 -0.00001)"/>
          <path class="cls-3" d="M1551.70858,463.82639a4.429,4.429,0,0,0-2.36983,5.78979l5.73847,13.6926a4.42422,4.42422,0,0,0,8.16081-3.42l-5.73847-13.69249A4.43016,4.43016,0,0,0,1551.70858,463.82639Z" transform="translate(-0.00002 -0.00001)"/>
          <path class="cls-3" d="M1603.845,364.16983l-13.69261,5.73835a4.42373,4.42373,0,0,0,3.41995,8.15974l13.69249-5.73907a4.42337,4.42337,0,1,0-3.41983-8.159Z" transform="translate(-0.00002 -0.00001)"/>
          <path class="cls-3" d="M1490.49581,317.77251a4.42842,4.42842,0,0,0-2.36995,5.78918l5.73847,13.69261a4.42355,4.42355,0,0,0,8.15961-3.41936l-5.73835-13.6926A4.42752,4.42752,0,0,0,1490.49581,317.77251Z" transform="translate(-0.00002 -0.00001)"/>
        </g>
        <path class="cls-3" d="M1521.26222,280.53121l1.22056-17.3648a2.58679,2.58679,0,0,1,2.76117-2.399l19.91919,1.39984a2.587,2.587,0,0,1,2.39913,2.76177l-1.22067,17.36469a2.58718,2.58718,0,0,1-2.76345,2.40021l-19.91452-1.39925A2.58918,2.58918,0,0,1,1521.26222,280.53121Z" transform="translate(-0.00002 -0.00001)"/>
        <path class="cls-3" d="M1443.556,313.56819l-13.23584-11.30567a2.5868,2.5868,0,0,0-3.64661.28729l-12.96828,15.18358a2.58547,2.58547,0,0,0,.28609,3.64649l13.237,11.30567a2.588,2.588,0,0,0,3.64887-.28729l12.966-15.1806A2.58824,2.58824,0,0,0,1443.556,313.56819Z" transform="translate(-0.00002 -0.00001)"/>
        <g>
          <path class="cls-3" d="M1464.89891,285.11324a2.52155,2.52155,0,0,1-3.29617-1.35021l-4.84252-11.55684a2.52013,2.52013,0,0,1,1.34794-3.296l23.58432-9.8849a2.51966,2.51966,0,0,1,3.295,1.3508l4.84372,11.55625a2.5201,2.5201,0,0,1-1.34794,3.29616Z" transform="translate(-0.00002 -0.00001)"/>
          <path class="cls-3" d="M1471.09164,289.27844a27.5111,27.5111,0,1,1,16.02273-6.70212l2.62685,6.26581a34.04865,34.04865,0,1,0-16.01806,6.71312Z" transform="translate(-0.00002 -0.00001)"/>
          <path class="cls-3" d="M1482.30342,298.22469q4.12759-1.73,8.31032-3.10683l-6.98822-16.675-13.029,5.4598,6.90281,16.46837Q1479.86458,299.2479,1482.30342,298.22469Z" transform="translate(-0.00002 -0.00001)"/>
        </g>
        <g>
          <path class="cls-3" d="M1533.11162,398.44255a8.06725,8.06725,0,1,1-10.55875-4.32152A8.06712,8.06712,0,0,1,1533.11162,398.44255Z" transform="translate(-0.00002 -0.00001)"/>
          <path class="cls-3" d="M1534.25515,335.61142l-5.75953,66.28792a3.03531,3.03531,0,0,1-6.04788-.52506C1522.47106,401.11151,1521.96191,404.03332,1534.25515,335.61142Z" transform="translate(-0.00002 -0.00001)"/>
          <path class="cls-3" d="M1583.969,434.367l-59.46082-29.86126a3.03513,3.03513,0,1,1,2.72494-5.42427C1527.46787,399.19941,1524.94148,397.64659,1583.969,434.367Z" transform="translate(-0.00002 -0.00001)"/>
          <path class="cls-3" d="M1528.71175,400.28685a3.29659,3.29659,0,1,1-4.31459-1.76536A3.29709,3.29709,0,0,1,1528.71175,400.28685Z" transform="translate(-0.00002 -0.00001)"/>
        </g>
      </g>
      <g>
        <path class="cls-6" d="M2343.76525,877.86252a3.22951,3.22951,0,0,0-3.2634-.98c-5.80963,1.571-16.33453-.77264-21.53682-2.5917l-5.666-28.05679c4.08914-3.69492,12.87955-9.93848,18.84574-10.74557a3.22813,3.22813,0,0,0,2.62686-2.169l7.17037-21.32668a3.22715,3.22715,0,0,0-.78364-3.3147c-4.26555-4.24749-7.49749-14.53414-8.52417-19.949l21.46567-18.9346c5.24427,1.69419,15.04616,6.18519,18.72781,10.9477a3.23111,3.23111,0,0,0,3.1933,1.19018l22.05316-4.453a3.22955,3.22955,0,0,0,2.47962-2.336c1.54529-5.81789,8.83717-13.7603,13.014-17.35667l27.13046,9.12219c1.15513,5.38863,2.16782,16.12379-.11685,21.69338a3.2305,3.2305,0,0,0,.56536,3.3592l14.88387,16.873a3.22983,3.22983,0,0,0,3.26219.97992c5.812-1.57148,16.33573.77264,21.53922,2.59133l5.66492,28.05668c-4.08926,3.69492-12.87966,9.93908-18.84586,10.74616a3.22717,3.22717,0,0,0-2.62567,2.169l-7.17156,21.32549a3.23311,3.23311,0,0,0,.78256,3.31589c4.26675,4.2469,7.49857,14.53355,8.52644,19.949l-21.46554,18.934c-5.24439-1.69359-15.04868-6.1846-18.7302-10.9477a3.22832,3.22832,0,0,0-3.191-1.19018l-22.05424,4.45357a3.23019,3.23019,0,0,0-2.48082,2.33538c-1.5442,5.81849-8.83717,13.7609-13.01278,17.35715l-27.12926-9.12206c-1.15633-5.38923-2.169-16.1238.11554-21.69339a3.22988,3.22988,0,0,0-.56406-3.3592Zm61.71283-6.88308a28.18867,28.18867,0,1,0-33.21112-22.052A28.18911,28.18911,0,0,0,2405.47808,870.97944Zm3.57759,17.721a46.26729,46.26729,0,1,0-54.50969-36.19416A46.26671,46.26671,0,0,0,2409.05567,888.70042Z" transform="translate(-0.00002 -0.00001)"/>
        <path class="cls-3" d="M2525.986,978.30751a2.5582,2.5582,0,0,1,1.9645-1.85015l17.46168-3.52616a2.55752,2.55752,0,0,1,2.52759.9426c2.91534,3.77146,10.67679,7.32693,14.82908,8.66888l16.99679-14.99246c-.813-4.2878-3.37092-12.43342-6.74985-15.79608a2.56219,2.56219,0,0,1-.62026-2.62578l5.67879-16.88579a2.55627,2.55627,0,0,1,2.07907-1.71811c4.7234-.63833,11.68482-5.58251,14.9225-8.50838L2590.59076,899.8c-4.12071-1.44015-12.45447-3.29616-17.05527-2.05168a2.55753,2.55753,0,0,1-2.58356-.77611L2559.16664,883.612a2.55934,2.55934,0,0,1-.44732-2.66011c1.80925-4.41039,1.008-12.91.09234-17.17727l-21.48205-7.223c-3.30776,2.84764-9.08236,9.13618-10.30411,13.74332a2.55954,2.55954,0,0,1-1.96461,1.85015l-17.46288,3.52568a2.55758,2.55758,0,0,1-2.52747-.9426c-2.91427-3.77147-10.6768-7.32753-14.83028-8.66841l-16.99559,14.99259c.81175,4.28767,3.372,12.43282,6.74984,15.79608a2.5558,2.5558,0,0,1,.62027,2.62506L2474.93706,916.36a2.56178,2.56178,0,0,1-2.08015,1.71751c-4.72351.63833-11.68362,5.58251-14.92249,8.50838l4.48634,22.21606c4.11952,1.44015,12.45327,3.29664,17.05407,2.05216a2.55828,2.55828,0,0,1,2.58357.77551L2493.84356,964.99a2.55536,2.55536,0,0,1,.44744,2.66071c-1.80817,4.41039-1.00682,12.90992-.09114,17.17667l21.48085,7.22407C2518.98848,989.2027,2524.76188,982.91417,2525.986,978.30751Zm6.01524-26.78815a27.76732,27.76732,0,1,1,21.72137-32.71357A27.76735,27.76735,0,0,1,2532.00126,951.51936Z" transform="translate(-0.00002 -0.00001)"/>
      </g>
      <path class="cls-7" d="M1297.93121,625.19579l-19.40644-7.31521-17.02836,11.83959a2.85045,2.85045,0,0,1-4.47462-2.4715l.96006-20.71754-16.52136-12.53628a2.85017,2.85017,0,0,1,.96819-5.01893l19.9998-5.48838L1269.24614,563.9a2.85019,2.85019,0,0,1,5.07264-.63007l11.3998,17.32557,20.7356.43046a2.85,2.85,0,0,1,2.16662,4.62939l-12.95429,16.19615,5.99766,19.85376A2.84929,2.84929,0,0,1,1297.93121,625.19579Z" transform="translate(-0.00002 -0.00001)"/>
      <polygon class="cls-3" points="1327.618 501.23 1317.069 472.908 1290.083 480.978 1278.461 453.536 1251.721 458.068 1239.665 438.954 1229.989 445.057 1246.113 470.621 1271.454 466.327 1283.545 494.874 1310.087 486.937 1319.646 512.602 1327.618 501.23"/>
      <polygon class="cls-3" points="2461.664 631.626 2435.157 617.107 2420.027 640.865 2393.284 627.714 2376.026 648.635 2354.401 642.067 2351.077 653.012 2379.997 661.799 2396.351 641.972 2424.173 655.653 2439.054 632.286 2463.075 645.443 2461.664 631.626"/>
      <polygon class="cls-7" points="1762.982 274.705 1751.641 302.719 1776.997 314.986 1767.042 343.076 1789.829 357.787 1785.817 380.027 1797.074 382.057 1802.441 352.312 1780.848 338.372 1791.202 309.149 1766.264 297.085 1776.542 271.698 1762.982 274.705"/>
      <polygon class="cls-7" points="2431.312 996.907 2425.738 985.924 2413.187 986.352 2407.809 973.598 2394.579 978.176 2387.862 964.022 2375.16 966.734 2366.471 954.173 2371.225 950.884 2377.723 960.276 2391.126 957.414 2397.582 971.019 2411.034 966.366 2416.968 980.438 2429.226 980.022 2434.393 990.201 2442.385 988.244 2443.761 993.86 2431.312 996.907"/>
      <polygon class="cls-6" points="2199.297 488.283 2193.431 470.833 2220.466 458.292 2215.035 431.72 2233.732 419.027 2227.308 409.562 2202.3 426.537 2207.447 451.719 2179.322 464.766 2188.149 491.025 2199.297 488.283"/>
      <g>
        <path class="cls-7" d="M2415.88733,448.03964c29.81221,45.55807-10.734,108.78581-63.81871,99.3798a40.2083,40.2083,0,0,0-28.0099,5.76526l-29.35557,18.096a16.94,16.94,0,0,1-23.35313-4.96691l-11.29336-17.25848c-5.09955-7.79231-3.42234-18.59995,3.85436-24.83,26.54763-22.73418,37.8411-29.185,41.40589-48.24987C2315.74721,420.20842,2386.07044,402.47225,2415.88733,448.03964Z" transform="translate(-0.00002 -0.00001)"/>
        <path class="cls-3" d="M2345.87817,473.101a56.21224,56.21224,0,0,1-1.38872-8.02589c-1.35607-15.92693,10.95236-21.43349,17.43836-17.3263,4.15575,2.62926,5.83535,8.72738,3.44913,14.50783-2.14449,5.19177-6.79314,8.9441-11.50959,13.06242a76.8956,76.8956,0,0,0,11.81088,24.252c14.51488-8.74723,24.88681-3.96427,25.56185,3.95135a12.90838,12.90838,0,0,1-7.74626,12.45914c-2.93628,1.27772-10.5377,3.03614-19.5349-6.91873-24.5036,17.27893-56.48124,42.81734-56.58171,42.89449l-4.06-5.64327c.09807-.07655,31.89476-25.4468,56.30961-42.70288a83.48659,83.48659,0,0,1-11.68709-23.092c-27.926,24.37682-52.54042,43.65015-53.40133,44.34744l-4.04356-5.65667C2292.27961,517.76031,2316.1279,499.19361,2345.87817,473.101Zm11.776-19.40225c-2.16315-.82228-7.91335,1.56035-5.59829,13.981C2358.52185,462.00662,2360.49113,459.52173,2357.65412,453.6987Zm12.49526,51.33852c3.56826,3.71071,8.96682,7.064,12.59464,3.05312C2387.39733,502.94642,2380.74317,499.09326,2370.14938,505.03722Z" transform="translate(-0.00002 -0.00001)"/>
        <path class="cls-3" d="M2324.80744,552.76489c-.2477.14592-.50581.26863-.74872.41981l-29.35557,18.096a16.94,16.94,0,0,1-23.35313-4.96691l-11.29336-17.25848c-5.09955-7.79231-3.42234-18.59995,3.85436-24.83,11.8086-10.11382,20.59434-17.00276,27.03-23.21475Z" transform="translate(-0.00002 -0.00001)"/>
      </g>
      <g>
        <path class="cls-8" d="M1007.04971,1407.99141s-.95313-4.665-1.14928-6.23949c-.23131-1.84776-.49408-7.43326-.49408-7.43326s-.00706-19.50332,1.43551-19.38767c1.44242.11566,3.31013,3.46194,3.73293,4.66611.42161,1.2019,1.03254,2.56969,1.45534,3.77266a2.48534,2.48534,0,0,0,3.20024,1.46479c1.53368-.42053.89129-5.5843.3142-7.32346-1.801-5.42535-9.53326-18.95207-10.29012-20.41913-.89463-1.7345,5.32384-35.56457,6.53265-47.32294h.00586c2.5521-19.19032,6.139-38.78944,6.41818-40.82056l34.176-75.53736-22.8136-23.297s-39.10483,83.2987-40.58469,87.68685c-.70423,2.0896-3.17465,47.02512-3.15706,47.02751.17751,22.20267.39122,41.76794.32352,45.52649,0,0-3.22021,11.19074-5.69051,18.19522-2.47149,7.00567-1.93074,14.4436-2.32318,16.51908a47.8991,47.8991,0,0,0-.60266,16.2318c1.02785,7.63527,3.57756-.11673,3.57756-.11673s.65641-14.516,1.79873-14.2813c.88064.18108.05142,8.09311,1.09906,16.55186.2698,2.17607.54429,4.32164.81185,6.29092.702,5.16725,4.10085,6.17634,4.234.6412a51.67044,51.67044,0,0,0-.28382-7.51376c-.35737-2.4972.12846-4.915.1507-7.063.04665-4.26555.0256-7.376.202-7.28017.22893.125.83986-.72181,1.19724,1.57686.43093,2.76345.03624,8.85463.98817,12.86674.53845,2.27523,1.37355,7.10148,1.37355,7.10148s2.21564,7.66673,2.68293,7.64687c2.53572-.1074,2.52986-6.06308,1.38992-9.05317.2616-2.28695-.76164-7.33746-.76164-7.33746s.243-10.70478,1.76727-10.71064c1.2532-.00694,5.6496,25.68217,8.18425,25.39488C1008.02149,1415.77966,1007.04971,1407.99141,1007.04971,1407.99141Z" transform="translate(-0.00002 -0.00001)"/>
        <path class="cls-9" d="M1038.49476,1237.16577s-14.18072-2.45164-21.70858-5.25252c-10.02962-3.73176-16.63008-7.00221-16.63008-7.00221s11.01312-47.136,24.756-75.758c5.67879-11.83073,11.42193-17.53882,19.432-18.90649.04916-.00933,16.88711,11.08668,16.21783,37.813C1060.40546,1174.334,1038.49476,1237.16577,1038.49476,1237.16577Z" transform="translate(-0.00002 -0.00001)"/>
        <g>
          <path class="cls-8" d="M1082.10459,1395.56732l18.38216,169.11913s-8.98429,35.76323-7.90044,45.9237c1.08278,10.16046,19.98,143.4452,19.98,143.4452l-.79776,7.47752-.021,22.07767h70.14231s-14.88733-6.8655-35.7118-20.43312c-1.54065-1.00324-5.08905-4.2036-5.95212-10.58207-5.561-41.08117,5.44174-178.11167,5.44174-178.11167l8.66542-178.36977Z" transform="translate(-0.00002 -0.00001)"/>
          <path class="cls-8" d="M1025.73554,1431.14134c-3.9608,1.03242-10.05893,146.44463-13.3387,152.8896-20.79863,40.85919-25.74172,165.08143-25.74172,165.08143l-6.04325,17.68821-6.47308,21.69219s20.77065,5.686,31.66118-.50449l-1.209-21.38385-1.1049-19.556,52.47272-154.76439,28.71079-157.85843Z" transform="translate(-0.00002 -0.00001)"/>
          <path class="cls-6" d="M1130.09336,1149.46015c-8.4646-11.91135-43.388-46.41072-47.26684-46.33944-11.30986.20321-48.43382.2184-55.69054,4.01331l.04318,8.12457a437.32821,437.32821,0,0,0,13.96937,107.66105c6.36914,24.50587,12.40423,50.67388,11.66018,60.07175l.17751.1763c21.47966,21.3524,55.35419,19.67387,74.99889-3.71418h0s-.08528-26.04781,2.93986-49.80974C1135.66358,1192.42066,1151.11984,1179.04464,1130.09336,1149.46015Z" transform="translate(-0.00002 -0.00001)"/>
          <path class="cls-8" d="M1071.44657,1066.14865s.97767,24.2303-1.13647,33.4166c-2.11412,9.18761-4.93366,9.88143,13.21718,12.67645,7.12947,1.099,14.00441,2.73666,14.00441,2.73666s-1.86294-13.49048-2.1433-19.18458c-.4649-9.3791,2.09774-38.34213,2.09774-38.34213Z" transform="translate(-0.00002 -0.00001)"/>
          <path class="cls-10" d="M1085.26764,1078.20591a31.87762,31.87762,0,0,0,10.43962,3.81357c.61668-11.44059,1.77767-24.56783,1.77767-24.56783l-24.84112,8.29633A33.05082,33.05082,0,0,0,1085.26764,1078.20591Z" transform="translate(-0.00002 -0.00001)"/>
          <path class="cls-8" d="M1077.2084,998.284a31.74563,31.74563,0,0,0-16.09629,15.0824c-5.72558,11.42085-7.863,43.52576,14.70275,56.083,11.16969,6.215,24.05521,7.39474,30.11948,1.92729,6.18807-5.57844,5.43468-17.971,4.81457-28.27746C1109.52126,1022.69059,1105.03145,991.79332,1077.2084,998.284Z" transform="translate(-0.00002 -0.00001)"/>
          <path class="cls-11" d="M1060.58056,1038.58606c1.28132,5.35993-.42866,10.533-3.81811,11.555-3.38957,1.022-7.17623-2.49482-8.45647-7.85487-1.2812-5.36112.42866-10.533,3.81823-11.555S1059.30044,1033.22721,1060.58056,1038.58606Z" transform="translate(-0.00002 -0.00001)"/>
          <path class="cls-6" d="M1004.58635,1766.518c-9.57884,4.39173-19.82925,1.67959-23.97675.278l-6.65189,21.774s20.91549,6.19512,31.806.00466Z" transform="translate(-0.00002 -0.00001)"/>
          <path class="cls-12" d="M1013.68748,1517.50369c.00813.02332.01639.02213.02332-.00239Z" transform="translate(-0.00002 -0.00001)"/>
          <path class="cls-6" d="M1111.02325,1789.09318h72.91987c2.69694-.25,3.35333-2.51933,2.41779-3.9175-1.92491-2.8803-10.43149-4.992-19.99274-9.58-16.77268,1.81977-51.96587-10.09851-54.61247-14.106C1110.22788,1769.51152,1109.52473,1788.751,1111.02325,1789.09318Z" transform="translate(-0.00002 -0.00001)"/>
          <path class="cls-8" d="M1257.48669,1204.5492c1.41443-1.96341,6.14249-11.568,6.14249-11.568s4.901-16.45486,3.88486-16.23874c-.60388.12726-2.61993,2.4575-5.01428,7.43781-1.46239,3.04272-3.06257,8.37119-4.57747,11.0026-2.65605,4.61718-5.62509,6.54675-4.88929,4.76322.53618-1.2989,2.356-2.36875,3.95614-5.13579,3.89765-6.73585,7.342-17.749,5.84229-17.52591-1.31864.19507-5.08664,7.78824-9.26,13.689-1.82085,2.57662-6.9881,5.8015-10.23164,7.84434a13.9793,13.9793,0,0,1,.65866-3.61144c.41347-1.28718,6.20338-8.97029,3.93856-9.93741-2.2659-.96711-16.05072,15.6699-16.05072,15.6699l-5.66252,9.64665-.501.3691-.01985-.0012s-68.77117,26.96338-71.07677,26.23343c-5.41016-1.71464-23.89159-55.28413-23.89159-55.28413l-38.47761,6.938c-.55594-.3002,40.44928,79.73511,48.09735,83.65967,6.7148,3.44555,78.20157-33.79634,91.6301-41.76555,18.49422-7.11786,25.71482-15.58354,28.713-19.91691,1.6131-2.33132,7.81049-12.45327,7.81049-12.45327s1.33036-14.02894.32246-14.15273c-3.392-.41586-4.331,12.806-4.331,12.806s-4.588,6.24069-5.38576,7.0595C1257.13625,1206.10848,1257.48669,1204.5492,1257.48669,1204.5492Z" transform="translate(-0.00002 -0.00001)"/>
          <path class="cls-9" d="M1067.42166,1135.2292c-5.25252,22.25756,22.75739,71.88024,22.75739,71.88024s39.90262-19.37953,46.91652-27.73075c0,0-27.52288-45.42028-29.23058-48.38932-3.68392-6.40766-16.61142-19.65056-25.32241-17.21877C1076.99464,1115.31815,1067.42166,1135.2292,1067.42166,1135.2292Z" transform="translate(-0.00002 -0.00001)"/>
          <path class="cls-13" d="M1073.7639,1080.34455c2.982-20.4214,36.84827-62.02692,23.77007-79.41277-10.58447-14.06972-29.03778-9.86026-40.79377-5.8155-53.31951,18.34245-50.25586,85.36844-67.08675,95.85017-30.51417,19.0035-49.28516,30.8377-51.48453,73.65217-2.6105,50.77674,40.5158,76.71116,92.37756,64.28588,27.885-6.67988,35.2762-15.80434,46.45868-42.137,5.04107-11.87044,15.20859-48.89621,12.42517-66.98749C1086.9379,1103.58442,1071.36249,1096.79247,1073.7639,1080.34455Z" transform="translate(-0.00002 -0.00001)"/>
          <path class="cls-8" d="M1094.02993,1042.91584c0,6.04561-2.19461,10.9465-4.90088,10.9465-2.70748,0-4.90221-4.90089-4.90221-10.9465,0-6.04442,2.19473-10.94543,4.90221-10.94543C1091.83532,1031.97041,1094.02993,1036.87142,1094.02993,1042.91584Z" transform="translate(-0.00002 -0.00001)"/>
          <path class="cls-14" d="M1160.8831,1505.576l2.49494-100.33053a198.55979,198.55979,0,0,0-16.43154-82.28028l-18.96139-43.51164c-7.67029,2.5112-14.899,4.64984-22.96071,5.58179-17.534,2.02537-34.77973.01411-52.21569-2.04391a13.91336,13.91336,0,0,1-.23945,1.773c-3.16412,14.77646-20.78823,47.71775-28.21323,92.74083-8.42717,51.10852-11.57837,127.54746-10.5249,133.544C1094.40956,1514.71094,1113.61626,1517.617,1160.8831,1505.576Z" transform="translate(-0.00002 -0.00001)"/>
        </g>
      </g>
      <g>
        <g>
          <path class="cls-15" d="M2164.63862,1003.304l60.69082,60.692s115.57428,45.196,128.48767,72.95954c12.91351,27.76233-11.62274,26.47169-38.7404,22.59736-27.11755-3.87313-103.95022-51.65272-103.95022-51.65272l-70.37706-81.35287Z" transform="translate(-0.00002 -0.00001)"/>
          <path class="cls-7" d="M2342.27965,1124.78133l-15.01124-5.32728-29.05537,13.55949s-15.01124,10.1698-22.275,35.34964c-7.2639,25.18,0,175.78035,12.10642,199.99307C2300.15074,1392.5679,2342.27965,1124.78133,2342.27965,1124.78133Z" transform="translate(-0.00002 -0.00001)"/>
          <path class="cls-8" d="M2437.589,1728.72589s10.67321,6.87256,11.54918,10.03668c.87718,3.16424,8.70286,37.38326,5.77352,41.3498-2.92826,3.96654-13.65409,2.0475-9.48781,4.93486,3.14665,2.18181,23.43494,3.85088,36.40215.35151,3.78546-1.022,2.05563-33.01018,2.61167-37.88308.80828-7.077,5.71036-23.14168,2.73546-27.32781-1.44948-2.03937-9.77738-5.62868-17.26554-8.54869-7.87579-3.07071-16.62422-11.76064-16.62422-11.76064Z" transform="translate(-0.00002 -0.00001)"/>
          <path class="cls-13" d="M2469.24189,1711.36934s-6.30145,60.706-13.6773,65.19115c-1.95768,1.19018-12.33307,2.07908-13.28847,7.03486-.02452.12379-.24172,5.08436,2.906,5.20588l39.34428-.12152s.41228-29.84726.16123-41.54129c0,0,5.43468-29.84726,3.66047-32.0805C2486.57273,1712.82468,2469.24189,1711.36934,2469.24189,1711.36934Z" transform="translate(-0.00002 -0.00001)"/>
          <path class="cls-8" d="M2591.57773,1728.72589s10.67441,6.87256,11.55039,10.03668c.876,3.16424,8.70165,37.38326,5.77351,41.3498-2.93053,3.96654-13.65517,2.0475-9.48781,4.93486,3.14666,2.18181,23.43494,3.85088,36.40215.35151,3.78426-1.022,2.05563-33.01018,2.61167-37.88308.80828-7.077,5.71036-23.14168,2.73546-27.32781-1.44948-2.03937-9.77738-5.62868-17.26554-8.54869-7.87579-3.07071-16.62529-11.76064-16.62529-11.76064Z" transform="translate(-0.00002 -0.00001)"/>
          <path class="cls-9" d="M2398.31357,1334.1816s35.97577,71.44106,43.35174,90.62205l54.82616,139.1049,120.91436,142.23864s-8.85117,22.85439-22.23651,28.97942c0,0-145.78586-117.71746-157.77662-136.25726-18.2793-28.26107-101.5115-201.41336-101.5115-201.41336l-15.47375-33.30453Z" transform="translate(-0.00002 -0.00001)"/>
          <path class="cls-6" d="M2311.35774,1333.42355l.5759,60.91975s-26.02676,198.98505-20.9833,210.80753c12.30149,28.84044,147.53326,126.54889,147.53326,126.54889l18.40082-31.63665-97.1712-108.47041,36.80163-105.56559c10.29945-24.52119,32.2019-71.90835,31.64586-98.49916-.4765-22.789-45.64908-75.63078-45.64908-75.63078Z" transform="translate(-0.00002 -0.00001)"/>
          <path class="cls-15" d="M2366.57418,1423.45344c35.82853-8.13868,64.8266-20.79863,67.798-30.79333,1.34554-4.52126-18.63667-49.97073-33.33718-110.66155-4.80054-19.81286-3.93736-38.42621-11.62167-107.82455-1.633-14.72036-7.73107-45.57445-30.52242-53.53325-8.0125-2.788-12.4754-2.43645-12.4754-2.43645-.18922.03385-29.00394.22785-42.18608,7.54306-3.25179,4.41733-15.37914,28.57288-18.60641,94.42975-1.40977,28.75277-7.15171,121.072-5.97194,136.07271q.26283,3.33767.66811,6.46267C2285.47714,1402.56606,2327.38753,1432.35364,2366.57418,1423.45344Z" transform="translate(-0.00002 -0.00001)"/>
          <path class="cls-8" d="M2303.2425,1170.77164c.02572.00933.06076-.00466.10274-.00347,14.60363-1.6119,51.34331-49.74539,51.34331-49.74539l-.07942-.13324-22.66876-35.901s-33.38981,6.07838-26.856,16.24818c6.528,10.15233,10.19324,34.552,10.19324,34.552-.1098.278-.257.61428-.45784,1.01735C2312.52819,1141.78983,2305.0435,1156.54536,2303.2425,1170.77164Z" transform="translate(-0.00002 -0.00001)"/>
          <path class="cls-10" d="M2305.088,1101.23205c-6.53157-10.1582,26.86291-16.24113,26.86291-16.24113l1.88639,2.9889a19.44687,19.44687,0,0,1-.93674,6.813c-3.60916,10.18272-12.2863,19.139-21.28458,23.45587C2309.9585,1111.95788,2307.765,1105.39833,2305.088,1101.23205Z" transform="translate(-0.00002 -0.00001)"/>
          <g>
            <path class="cls-8" d="M2313.09224,1028.22107c.72073-.68318,26.04314,40.96432,19.96248,58.11659-6.07839,17.15334-26.54069,30.82717-38.6891,24.70908-13.439-6.76743-33.7577-54.53768-21.50883-74.79906C2285.10566,1015.98859,2313.09224,1028.22107,2313.09224,1028.22107Z" transform="translate(-0.00002 -0.00001)"/>
            <path class="cls-6" d="M2276.42277,1009.5307c14.90372-3.20156,41.5261,1.19831,56.5151,11.74318,18.43119,12.966,19.03854,35.97576,10.73516,51.01966-8.30457,15.04389-3.30429,26.119-3.30429,26.119s-25.90285-1.6271-31.15071-19.25694c-2.20059-7.39822.53726-12.4101-4.43957-16.58224-3.83343-3.21435-7.05364-12.56068-10.85669-20.07455,0,0-16.70949-8.88382-23.07277-1.57088C2268.67412,1043.42858,2257.30135,1013.63861,2276.42277,1009.5307Z" transform="translate(-0.00002 -0.00001)"/>
            <path class="cls-8" d="M2302.17025,1065.80754c2.2671,5.44066,6.667,8.78466,9.83,7.46711,3.16292-1.31636,3.88939-6.79434,1.6235-12.23488-2.26709-5.44054-6.667-8.78347-9.83-7.46591C2300.63083,1054.89022,2299.90436,1060.367,2302.17025,1065.80754Z" transform="translate(-0.00002 -0.00001)"/>
          </g>
          <path class="cls-13" d="M2623.4,1711.43943s-6.47069,60.63592-13.84546,65.12106c-1.95875,1.19018-12.33415,2.07908-13.28847,7.03486-.02452.12379-.32352,5.24559,2.90482,5.165l39.30458-.08062s.452-29.84726.20213-41.54129c0,0,5.43468-29.84726,3.65928-32.0805C2640.56269,1712.82468,2623.4,1711.43943,2623.4,1711.43943Z" transform="translate(-0.00002 -0.00001)"/>
        </g>
        <path class="cls-6" d="M1754.27947,1431.223c-31.23837-65.3476-39.81851-162.86792-5.77339-240.2192,57.39346-130.56088,215.32078-183.84536,203.69325-331.81135-2.92814-37.27048-19.50918-67.24858-43.93456-86.5347-64.28-50.75569-167.7-23.89327-241.5169,11.5505q-70.72336,33.982-131.34345,96.35992l-20.53586-261.33968c88.60851-62.87611,195.82332-95.75138,302.8348-104.15989,219.28625-17.231,388.62031,65.01474,405.85535,284.35876,15.71905,200.048-119.46834,288.67036-210.157,388.67509-50.33755,55.50958-61.71044,98.27143-57.81866,147.8019,2.01246,25.60622,11.617,57.2241,27.05332,77.37579Zm157.4519,357.37487c-213.15057,16.74921-237.83286-269.605-22.51447-286.52478C2101.30934,1485.4068,2124.06325,1771.91293,1911.73137,1788.5979Z" transform="translate(-0.00002 -0.00001)"/>
        <path class="cls-8" d="M2132.14477,1016.51424c-.396-1.8035,1.06985-.37842-1.64575-14.502a26.61454,26.61454,0,0,0-5.21629-10.65922,24.35141,24.35141,0,0,0-4.83558-4.22823c-2.44112-1.45415-4.34736.91915-3.85914,2.26.48942,1.34208,3.00529,5.97912,3.49351,7.32.48942,1.34195.709,4.63692-.40641,5.73141-1.11423,1.09665-18.76633-19.15073-19.86309-20.92254-.93566-1.51024-3.02514-8.09192-3.02514-8.09192s-1.53943-4.79121-3.41876-3.57065c-1.22881.79895-2.58129,4.74325.95779,12.52109,3.09283,6.79194,7.37238,12.21729,6.88655,12.61677-1.26852,1.04534-8.93525-8.13522-8.93525-8.13522s-2.67482-5.11581-4.48753-6.93211c-1.14234-3.39771-3.22129-7.62583-5.39856-5.97314-.40175.30607,1.04306,7.55119,1.04306,7.55119s2.6747,4.79,3.81477,7.14812c2.01006,4.15935,6.58634,9.20627,8.15614,11.91721,1.307,2.25429.03744,1.731-.06542,1.99727-.08061.20559-2.058-2.3196-5.07144-6.01285-1.51849-1.86068-3.6057-3.63835-5.05171-6.06427a60.0806,60.0806,0,0,0-5.006-6.7581c-3.9724-4.74217-6.08413-1.51849-3.06138,3.47832,1.15166,1.90385,2.42126,3.96654,3.71549,6.05136,5.03293,8.11069,11.23738,14.44826,10.6347,15.21337-.78257.99163-11.45111-11.23164-11.45111-11.23164s-7.52081-5.01308-3.04739,2.36289a75.68177,75.68177,0,0,0,11.06683,14.26025c1.77193,1.54062,6.49413,8.8032,13.42744,13.216,6.93332,4.41505,18.18122,11.07615,18.18122,11.07615,1.29065,1.55928,4.58322,6.62964,9.13845,13.79308l16.81344-20.23111C2139.71,1025.55689,2132.42153,1017.77331,2132.14477,1016.51424Z" transform="translate(-0.00002 -0.00001)"/>
        <path class="cls-3" d="M2118.882,1045.04275l23.24334-20.33851,79.81918,78.76918s123.56813,10.83324,123.89046,10.92438l4.94885,1.54755c44.82453,15.48081,26.37014,52.05926,17.73617,57.71939-20.11772,13.18453-131.84459,5.28063-167.63927-16.92323C2171.41191,1138.461,2118.882,1045.04275,2118.882,1045.04275Z" transform="translate(-0.00002 -0.00001)"/>
      </g>
      <g>
        <path class="cls-8" d="M1287.0664,1157.98659a26.72036,26.72036,0,0,0,2.53572,6.55955c7.30121,14.1843,24.24322,34.42354,24.24322,34.42354l13.105-31.51047s-2.13624-9.89542-5.84241-24.03882C1308.45144,1146.94667,1296.39645,1148.98831,1287.0664,1157.98659Z" transform="translate(-0.00002 -0.00001)"/>
        <path class="cls-16" d="M1362.20309,1130.65531s-73.09386,33.59182-75.45675,32.95062c-1.52184-.41347-29.98266-51.25336-30.28633-99.06332-.14018-22.08115,21.34642-48.644,45.31981-43.39025,12.07018,2.64432,11.88324,6.22778,29.73974,33.92C1349.37725,1082.76473,1362.20309,1130.65531,1362.20309,1130.65531Z" transform="translate(-0.00002 -0.00001)"/>
        <path class="cls-8" d="M1424.59923,1732.9424s-1.7345,30.63689-1.745,30.69992c-.63666,3.88952-3.14786,13.49981-3.14786,17.03649,0,13.28381,59.10583-11.27708,45.85947-17.16375-1.19951-.53379-7.47991-4.56348-7.87472-9.08475-.60735-6.96608-2.149-21.05925-2.149-21.05925Z" transform="translate(-0.00002 -0.00001)"/>
        <path class="cls-3" d="M1465.4187,1763.38888s-13.876,4.06354-20.9833,5.0797c-7.10733,1.01495-16.477-7.5384-21.50417-5.228-5.53287,2.54266-5.31675,25.43448-5.31675,25.43448s74.41608,6.51745,95.3409-.22426C1521.24464,1785.78076,1493.78838,1772.85325,1465.4187,1763.38888Z" transform="translate(-0.00002 -0.00001)"/>
        <path class="cls-8" d="M1303.68954,1732.9424s-1.7345,30.63689-1.745,30.69992c-.63665,3.88952-3.14666,13.49981-3.14666,17.03649,0,13.28381,59.10464-11.27708,45.85827-17.16375-1.19951-.53379-9.34286-7.57224-9.73647-12.09362-.60735-6.966-.28729-18.05038-.28729-18.05038Z" transform="translate(-0.00002 -0.00001)"/>
        <path class="cls-3" d="M1344.509,1763.38888s-13.876,4.06354-20.9833,5.0797c-7.10734,1.01495-16.477-7.5384-21.50418-5.228-5.53275,2.54266-5.75354,25.43448-5.75354,25.43448s74.75241,7.59676,95.77769-.22426C1400.20889,1785.41393,1372.87869,1772.85325,1344.509,1763.38888Z" transform="translate(-0.00002 -0.00001)"/>
        <g>
          <path class="cls-8" d="M1321.7539,1174.96244l52.05567-77.82659c.2184-.6821.69143-2.0756,1.41443-4.206,2.6222-7.72174,8.07793-23.79231,12.82943-39.7788l.05143-.17056c1.49266-5.58777,4.658-15.33477,7.71935-24.76637,3.40465-10.48519,7.62582-23.48744,7.77306-25.7055-.13085-.37962-.37616-1.05933-.702-1.96341-1.90852-5.29-4.48873-17.881-5.402-23.3566-.58055-3.48657-1.161-11.96158,2.72255-11.96158,6.10637,0,3.19569,8.46448,6.01057,13.751a140.5679,140.5679,0,0,0,4.2317-17.6369l1.02082-16.5466c.19627-1.24806-1.04653-10.376,3.23541-10.376l.20559.00813c3.84623.29961,3.75975,10.004,5.35993,26.418.50581-1.88866,1.01149-4.16676,1.39351-6.26042a63.82437,63.82437,0,0,1,1.30224-8.66136c-.77312-4.57341-.32353-11.787,4.24-11.10725,2.288.34231,2.09881,10.40877,2.09881,10.40877-.02332,1.38178-.15884,12.02581-.08875,14.1288.47076-3.57185,2.29867-18.80436,5.87973-18.80436,2.96916,0,3.20741,4.10026,3.14546,7.3438-.03624,1.92024-1.90266,18.42306-2.0054,20.342,1.39685-2.50414,3.0554-17.047,4.44077-17.047,5.78979,0,3.69672,20.67843,1.5698,26.06646a25.54435,25.54435,0,0,0-.65877,2.885c-.723,3.68391-1.93424,9.84973-4.96524,15.385-3.63488,6.63777-8.649,17.19066-9.41414,18.8083-.56058,3.29616-2.30213,15.15022-4.49328,30.06219-.93793,6.38087-1.9658,13.37841-3.03686,20.62461l-.05609-.00813c-.19615,1.5686-1.28239,6.55489-5.39964,25.26511-5.63441,25.60276-6.21964,26.70886-6.46961,27.18189-2.447,4.62293-58.57312,85.96874-60.96172,89.4296l-1.4087,2.04164Z" transform="translate(-0.00002 -0.00001)"/>
          <path class="cls-10" d="M1418.57693,993.44613s-4.22465-11.53184-11.74665-11.55278a8.18629,8.18629,0,0,1,7.80582,1.42724C1418.24061,986.36558,1418.57693,993.44613,1418.57693,993.44613Z" transform="translate(-0.00002 -0.00001)"/>
        </g>
        <g>
          <path class="cls-8" d="M1309.17565,971.16513l-6.70093,45.23107s25.53387,21.8814,40.41893,17.26553c12.48831-3.87313,3.92444-21.29858,3.92444-21.29858s-6.653-24.14622-4.6124-36.80162C1344.24732,962.90505,1309.17565,971.16513,1309.17565,971.16513Z" transform="translate(-0.00002 -0.00001)"/>
          <path class="cls-10" d="M1313.98659,984.83908c6.40072,3.226,19.05373,7.627,28.9,8.69221-.9426-6.32824-1.47866-13.02319-.6809-17.96976.94259-5.84122-6.0223-7.22288-13.793-7.02207-10.171.931-19.23708,2.62567-19.23708,2.62567l-1.28718,8.69233A21.21013,21.21013,0,0,0,1313.98659,984.83908Z" transform="translate(-0.00002 -0.00001)"/>
          <path class="cls-8" d="M1276.9515,918.99381c-1.0524.00586,10.09384,50.53035,27.34539,59.22268,17.25022,8.69221,42.978,4.1615,47.8053-9.44691,5.339-15.05262-14.13754-66.60092-38.40049-73.14936C1289.43862,889.07179,1276.9515,918.99381,1276.9515,918.99381Z" transform="translate(-0.00002 -0.00001)"/>
          <path class="cls-13" d="M1296.91505,872.56909a57.052,57.052,0,0,0-22.23184,26.21358c-6.46842,3.27571-14.2929,10.3608-18.04918,29.449-4.61946,23.47106,11.80155,41.56342,29.21181,47.00635,17.41037,5.44293,20.35023,17.73737,20.35023,17.73737l1.72278-13.23237s-3.87194-11.52-9.69676-17.28527c-5.82375-5.76646,2.75878-14.16971,3.51444-21.023.58055-5.27764-3.06007-15.52506-2.27176-24.18474,0,0,9.67344-15.64717,19.2091-19.51325C1334.93138,891.14561,1314.59394,861.68562,1296.91505,872.56909Z" transform="translate(-0.00002 -0.00001)"/>
          <path class="cls-8" d="M1304.24785,950.23158c2.25417,5.836,1.33262,11.62921-2.05922,12.9409-3.39077,1.3117-7.96813-2.357-10.22362-8.19238-2.25417-5.83536-1.33263-11.62921,2.05922-12.9403C1297.41608,940.7281,1301.99236,944.39563,1304.24785,950.23158Z" transform="translate(-0.00002 -0.00001)"/>
        </g>
        <path class="cls-8" d="M1368.50681,1176.21457l100.41234-17.471s-11.4254-30.69645-15.5076-30.69645c-4.081,0-75.92512,33.47269-75.92512,33.47269l-5.715,12.24541Z" transform="translate(-0.00002 -0.00001)"/>
        <path class="cls-13" d="M1317.07369,1249.69033s-10.01683,51.6819-5.93463,90.86975c4.0822,39.18652,4.40214,178.3907,4.40214,178.3907l-15.57649,222.72952,36.96035.86079s43.82715-222.6232,43.01074-216.908c-.81642,5.715,14.69584-156.74886,14.69584-156.74886L1342.382,1244.79291Z" transform="translate(-0.00002 -0.00001)"/>
        <path class="cls-14" d="M1326.86972,1247.241s-6.53145,46.53571,1.633,66.94551c8.16428,20.40968,70.02423,220.66791,70.83957,236.99671.81761,16.32748,21.38852,196.80084,21.38852,196.80084l42.97677-1.28945,9.29729-200.65065-19.46828-252.18664-18.90183-63.76021Z" transform="translate(-0.00002 -0.00001)"/>
        <path class="cls-8" d="M1302.47472,1016.3962s10.59858,7.42034,20.48216,6.56194c9.8861-.86091,23.86121-10.595,23.86121-10.595l-1.94237-7.02672s-25.57118-3.9748-26.21585-3.54494C1318.01509,1002.22015,1302.47472,1016.3962,1302.47472,1016.3962Z" transform="translate(-0.00002 -0.00001)"/>
        <path class="cls-8" d="M1415.43027,1126.5334s37.98128,38.25219,55.1253,31.72074c17.14509-6.53157,24.23964-28.85682-17.59133-61.519C1415.52608,1067.50352,1415.43027,1126.5334,1415.43027,1126.5334Z" transform="translate(-0.00002 -0.00001)"/>
        <path class="cls-7" d="M1441.16615,1173.76521c-5.64267-32.759-46.53451-134.705-49.80029-153.48189-1.58846-9.13259-23.64508-9.33472-44.65518-8.14215-22.19094,1.25907-44.236,4.255-44.236,4.255s-19.64577,3.44327-28.28906,12.08656-10.93957,32.54888,1.48572,77.92706c9.809,35.82039,21.96788,55.4908,27.98539,81.58286,1.21828,8.75189,2.26242,17.38586,3.6454,27.47384,2.21219,39.015-.02571,90.55555-.02571,90.55555s106.94845,23.67546,146.95151-12.2454C1454.228,1293.77667,1446.94661,1207.329,1441.16615,1173.76521Z" transform="translate(-0.00002 -0.00001)"/>
        <path class="cls-16" d="M1468.43559,1103.32392s-41.96528,36.96979-44.41453,36.96979c-1.57686,0-59.88493-45.77658-73.34383-83.384-7.4402-20.7917,8.16667-44.05261,25.99278-43.97427,12.3564.0537,17.84944,3.45141,42.34144,25.494C1443.50333,1060.47213,1468.43559,1103.32392,1468.43559,1103.32392Z" transform="translate(-0.00002 -0.00001)"/>
      </g>
      <g>
        <path class="cls-6" d="M2109.48426,370.37835l-90.99007,61.55687a20.19389,20.19389,0,0,1-28.04028-5.41028l-61.55747-90.98947a20.19457,20.19457,0,0,1,5.41016-28.04088l90.99006-61.55628a20.1928,20.1928,0,0,1,28.04041,5.41028l61.55735,90.98887A20.19459,20.19459,0,0,1,2109.48426,370.37835Z" transform="translate(-0.00002 -0.00001)"/>
        <path class="cls-7" d="M2063.73806,305.8559a51.48322,51.48322,0,1,1-71.49009-13.793A51.48308,51.48308,0,0,1,2063.73806,305.8559Z" transform="translate(-0.00002 -0.00001)"/>
        <path class="cls-6" d="M2004.14173,313.55252l21.11989,23.02949a4.14369,4.14369,0,0,1-6.10745,5.60176,4.30634,4.30634,0,0,1-.62493-.89284Z" transform="translate(-0.00002 -0.00001)"/>
        <path class="cls-6" d="M2020.22056,336.76022l31.85971-17.83665-27.79271,23.68013a3.57678,3.57678,0,1,1-4.63931-5.4452A3.748,3.748,0,0,1,2020.22056,336.76022Z" transform="translate(-0.00002 -0.00001)"/>
      </g>
      <path class="cls-7" d="M1018.43964,710.32945h204.01012a50.27348,50.27348,0,0,1,50.27348,50.27348v57.87849a50.2735,50.2735,0,0,1-50.2735,50.2735h-204.0096a50.2734,50.2734,0,0,1-50.2734-50.2734V760.60235A50.2729,50.2729,0,0,1,1018.43964,710.32945Z"/>
      <polygon class="cls-7" points="1236.581 808.943 1311.59 842.562 1261.37 772.269 1236.581 808.943"/>
      <g>
        <path class="cls-3" d="M1069.57776,784.41842c0,6.44916-5.88211,11.67717-13.13657,11.67717-7.25564,0-13.13776-5.228-13.13776-11.67717,0-6.44964,5.88212-11.67764,13.13776-11.67764C1063.69565,772.74078,1069.57776,777.96878,1069.57776,784.41842Z" transform="translate(-0.00002 -0.00001)"/>
        <path class="cls-3" d="M1130.703,784.41842c0,6.44916-5.882,11.67717-13.13765,11.67717s-13.13777-5.228-13.13777-11.67717c0-6.44964,5.88212-11.67764,13.13777-11.67764S1130.703,777.96878,1130.703,784.41842Z" transform="translate(-0.00002 -0.00001)"/>
        <path class="cls-3" d="M1191.82716,784.41842c0,6.44916-5.88212,11.67717-13.13776,11.67717-7.25446,0-13.13657-5.228-13.13657-11.67717,0-6.44964,5.88211-11.67764,13.13657-11.67764C1185.945,772.74078,1191.82716,777.96878,1191.82716,784.41842Z" transform="translate(-0.00002 -0.00001)"/>
      </g>
      <polygon class="cls-4" points="1899.729 248.42 1887.366 222.065 1897.636 217.247 1904.644 232.187 1921.765 221.832 1927.637 231.539 1899.729 248.42"/>
      <polygon class="cls-6" points="1200.02 627.519 1172.602 637.298 1168.789 626.613 1184.333 621.069 1175.668 603.035 1185.894 598.121 1200.02 627.519"/>
      <path class="cls-7" d="M2336.22937,362.047q3.05546,9.73851,6.10864,19.47761c1.59432,5.08089,2.77756,13.327,7.73574,16.20907a2.87017,2.87017,0,0,0,3.89753-1.022c2.45643-5.41136-1.07679-12.33594-2.7705-17.63105q-3.108-9.72289-6.21725-19.44734c-1.77181-5.54041-10.51091-3.18745-8.75416,2.41372Z" transform="translate(-0.00002 -0.00001)"/>
      <path class="cls-7" d="M2404.94776,355.01786c-10.51665,35.89635-10.62058,34.81417-9.8416,38.47764.60974,2.85638,4.50619,3.69971,6.44509,1.70124,2.4575-2.534,1.84549-1.79058,12.00476-37.80606,1.56274-5.541-6.99288-7.88225-8.60825-2.37282Z" transform="translate(-0.00002 -0.00001)"/>
      <path class="cls-7" d="M2445.05835,434.90427q9.29429-4.45806,18.58644-8.91539c5.51062-2.64325,12.61916-4.74445,16.39063-9.75406,1.65747-2.20166-.62254-5.103-2.96785-5.1731-6.12037-.18049-12.64488,4.50966-17.9944,7.10554q-9.26971,4.49842-18.53968,8.9966c-5.19535,2.52113-.65172,10.22362,4.52486,7.74041Z" transform="translate(-0.00002 -0.00001)"/>
      <path class="cls-7" d="M2424.763,542.72989c6.35515,8.20064,12.72776,16.595,19.92277,24.08547,3.873,4.03077,9.50755-1.88628,6.04323-6.04382-6.67629-8.01023-13.53258-15.82-19.97648-24.03117-3.3708-4.29533-9.2821,1.74095-5.98952,5.98952Z" transform="translate(-0.00002 -0.00001)"/>
      <path class="cls-7" d="M2448.14425,500.86268c5.73608,2.516,11.54452,4.85078,17.37868,7.13306,5.32619,2.08373,11.64977,5.812,17.415,4.99154,3.06019-.43511,3.4129-4.52018,1.69359-6.41184-2.15609-2.37222-3.31242-2.19054-15.98063-7.0711-5.71622-2.20286-11.38808-4.51672-17.12655-6.6611-4.60774-1.72169-7.93894,6.01991-3.38012,8.01944Z" transform="translate(-0.00002 -0.00001)"/>
    </g>
  </g>
</svg>
