<svg xmlns="http://www.w3.org/2000/svg" xmlns:xlink="http://www.w3.org/1999/xlink" width="4.75422in" height="4in" viewBox="0 0 342.30349 288">
  <defs>
    <style>
      .cls-1 {
        fill: none;
      }

      .cls-2 {
        isolation: isolate;
      }

      .cls-3 {
        mix-blend-mode: overlay;
      }

      .cls-4 {
        fill: #bcbcbc;
      }

      .cls-5 {
        clip-path: url(#clip-path);
      }

      .cls-6 {
        mix-blend-mode: color-burn;
      }

      .cls-7 {
        fill: #fff;
      }
    </style>
    <clipPath id="clip-path">
      <rect class="cls-1" x="-161.69651" width="504" height="288"/>
    </clipPath>
  </defs>
  <g class="cls-2">
    <g id="Layer_1" data-name="Layer 1">
      <g>
        <g class="cls-3">
          <path class="cls-4" d="M156.33429,172.6536l30.9631,17.8763v35.753l-30.9631,17.8762-30.9631-17.8762v-35.753Zm29.9059,18.4864-29.9059-17.266-29.9059,17.266v34.5327l29.9059,17.2661,29.9059-17.2661Z"/>
          <path class="cls-4" d="M95.46529,172.6536l30.9631,17.8763v35.753l-30.9631,17.8762-30.9631-17.8762v-35.753Zm29.9059,18.4864-29.9059-17.266L65.55939,191.14v34.5327l29.9059,17.2661,29.9059-17.2661Z"/>
          <path class="cls-4" d="M34.59629,172.6536l30.9631,17.8763v35.753l-30.9631,17.8762L3.63319,226.2829v-35.753ZM64.50219,191.14l-29.9059-17.266L4.69039,191.14v34.5327l29.9059,17.2661,29.9059-17.2661Z"/>
          <path class="cls-4" d="M308.50579,119.9397l30.9631,17.8762v35.753l-30.9631,17.8762-30.9631-17.8762v-35.753Zm29.9059,18.4864L308.50579,121.16l-29.9059,17.2661v34.5326l29.9059,17.2661,29.9059-17.2661Z"/>
          <path class="cls-4" d="M247.63779,119.9397l30.9621,17.8762v35.753l-30.9621,17.8762-30.9631-17.8762v-35.753Zm29.9049,18.4864L247.63779,121.16l-29.9059,17.2661v34.5326l29.9059,17.2661,29.9049-17.2661Z"/>
          <path class="cls-4" d="M186.76879,119.9397l30.9631,17.8762v35.753l-30.9631,17.8762-30.9631-17.8762v-35.753Zm29.9059,18.4864L186.76879,121.16l-29.9059,17.2661v34.5326l29.9059,17.2661,29.9059-17.2661Z"/>
          <path class="cls-4" d="M125.89979,119.9397l30.9631,17.8762v35.753l-30.9631,17.8762-30.9631-17.8762v-35.753Zm29.9059,18.4864L125.89979,121.16l-29.9059,17.2661v34.5326l29.9059,17.2661,29.9059-17.2661Z"/>
          <path class="cls-4" d="M65.03079,119.9397l30.9631,17.8762v35.753l-30.9631,17.8762-30.9631-17.8762v-35.753Zm29.9059,18.4864L65.03079,121.16l-29.9059,17.2661v34.5326l29.9059,17.2661,29.9059-17.2661Z"/>
          <path class="cls-4" d="M278.07129,67.2257l30.9631,17.8762v35.753l-30.9631,17.8762-30.9621-17.8762V85.1019Zm29.9059,18.4864L278.07129,68.446l-29.9049,17.2661v34.5327l29.9049,17.266,29.9059-17.266Z"/>
          <path class="cls-4" d="M217.20329,67.2257l30.9631,17.8762v35.753l-30.9631,17.8762-30.9631-17.8762V85.1019Zm29.9059,18.4864L217.20329,68.446l-29.9059,17.2661v34.5327l29.9059,17.266,29.9059-17.266Z"/>
          <path class="cls-4" d="M95.46529,67.2257l30.9631,17.8762v35.753l-30.9631,17.8762-30.9631-17.8762V85.1019Zm29.9059,18.4864L95.46529,68.446,65.55939,85.7121v34.5327l29.9059,17.266,29.9059-17.266Z"/>
          <path class="cls-4" d="M247.63779,14.5117l30.9621,17.8763V68.1409l-30.9621,17.8763-30.9631-17.8763V32.388Zm29.9049,18.4864-29.9049-17.266-29.9059,17.266V67.5308l29.9059,17.2661,29.9049-17.2661Z"/>
        </g>
        <g class="cls-5">
          <path class="cls-7" d="M323.93429,238.61805V191.65029a.71185.71185,0,0,0-.35593-.61648L282.026,167.044a.71185.71185,0,0,1-.35593-.61648V118.44669a.71185.71185,0,0,0-.35593-.61648L239.76182,93.84029a.71185.71185,0,0,1-.35593-.61648V45.243a.71185.71185,0,0,0-.35593-.61648L196.76341,20.21289a.71183.71183,0,0,0-.71184,0L153.76512,44.62651a.71185.71185,0,0,0-.35593.61648V93.22381a.71185.71185,0,0,1-.35593.61648l-41.55234,23.98992a.71185.71185,0,0,0-.35593.61648v47.98082a.71185.71185,0,0,1-.35593.61648L69.23662,191.03381a.71185.71185,0,0,0-.35593.61648v47.17606a.71185.71185,0,0,1-.71185.71185h-285.1914a.71185.71185,0,0,0-.71185.71185v.0001a.71185.71185,0,0,0,.71185.71185H68.81586a.71184.71184,0,0,1,.35592.09537l42.35139,24.45114a.71183.71183,0,0,0,.71184,0l41.55236-23.98982a.71183.71183,0,0,1,.71184,0l41.55236,23.98982a.71183.71183,0,0,0,.71184,0l41.55246-23.98982a.71183.71183,0,0,1,.71184,0l41.55236,23.98982a.71183.71183,0,0,0,.71184,0l42.64238-24.61911v-.1358h62.16135a.71185.71185,0,0,0,.71185-.71185h0a.71185.71185,0,0,0-.71185-.71185h-61.4495A.71185.71185,0,0,1,323.93429,238.61805ZM154.87739,45.6794l41.5301-23.9773,41.5302,23.9773V93.6347l-12.7405,7.3557-28.7896,16.6215-31.1137-17.9632-10.4165-6.014Zm-1.4682,194.3626-41.5301,23.9774L70.34879,240.042V192.0866l41.5301-23.9772,23.5382,13.5896,17.9921,10.3876Zm-20.031-61.215-20.7651-11.9887V118.883l41.53-23.9773,23.6436,13.6504,17.8867,10.3269v47.9553l-17.8867,10.3269-23.6434,13.6503Zm104.5595,61.215-41.5302,23.9774-41.5301-23.9774V192.0866l10.4165-6.0139,31.1137-17.9632,28.7896,16.6214,12.7405,7.3557Zm-20.031-61.215-20.7651-11.9887V118.883l20.7651-11.9886,20.7652-11.9887L280.202,118.883v47.9553l-20.7651,11.9887-20.7651,11.9885Zm104.5595,61.215L280.936,264.0194l-41.5301-23.9774V192.0866L257.398,181.699l23.5382-13.5896,41.53,23.9772Z"/>
        </g>
        <g>
          <path class="cls-7" d="M179.87449,79.6997q-.3873,1.4349-.7213,2.9182c.9594-.266,1.9352-.4992,2.9219-.7101q.386-1.4307.8364-2.7981C181.89359,79.2941,180.87839,79.4849,179.87449,79.6997Zm24.7992-11.8928-2.4871-2.487c-.879.1635-1.7492.3321-2.6007.5191l3.9648,3.9648a16.91589,16.91589,0,0,1-2.1093,2.6627l-5.622-5.6221q-1.1661.37605-2.2719.848l6.2377,6.2377a12.99182,12.99182,0,0,1-1.4395.9467c-.5177.2878-1.0503.5488-1.5922.7932l-6.2967-6.2966a12.63817,12.63817,0,0,0-1.5246,1.2947c-.0498.0498-.095.1058-.1442.1566l5.7211,5.721a38.33751,38.33751,0,0,1-3.714,1.0577l-4.0901-4.0901a21.80768,21.80768,0,0,0-1.1075,2.0124l2.6244,2.6243c-1.3215.2563-2.6587.4871-3.995.7224q-.4674,1.3404-.8666,2.7708c5.9568-1.1686,12.176-1.7773,17.1877-4.5641,4.4812-2.4994,6.9582-7.3741,8.6297-13.0453-1.046.2145-2.0947.4105-3.1406.5965A30.75939,30.75939,0,0,1,204.67369,67.8069Zm-32.593,14.3904,2.2023,2.2023c.3233-.1563.6569-.2932.9878-.4349l1.9875,1.9874c.1719-.8703.3481-1.7343.5331-2.5867l-.2609-.2609c.1128-.0372.2286-.0684.3419-.1043q.3372-1.5279.7173-3.0026A31.73714,31.73714,0,0,0,172.08069,82.1973Zm34.3984-18.834c1.025-.1853,2.0458-.3805,3.0566-.5965.2571-.9534.4947-1.9253.7182-2.9087-.9604.2661-1.9387.4967-2.9265.7077C207.06829,61.5216,206.78309,62.4518,206.47909,63.3633Zm1.174-4.0676c.9773-.219,1.9422-.4623,2.8868-.7411.0176-.0817.0362-.1625.0534-.2442l.174.1739c.7908-.2391,1.5688-.4991,2.322-.7978l-1.9705-1.9706q.1344-.6927.266-1.3854l-2.2023-2.2023C208.72589,54.5444,208.23659,56.9623,207.65309,59.2957Z"/>
          <path class="cls-7" d="M185.904,67.6399c-4.6342,4.6347-6.3901,12.6172-7.8797,20.501l2.2023,2.2023c1.4898-7.8844,3.2446-15.8663,7.8798-20.501a13.40524,13.40524,0,0,1,2.9571-2.2476c7.6823-4.2718,18.203-3.422,26.265-7.3205q-1.1013-1.10115-2.2024-2.2023c-8.0619,3.8984-18.5826,3.0487-26.2649,7.3205A13.39431,13.39431,0,0,0,185.904,67.6399Z"/>
        </g>
        <g>
          <path class="cls-7" d="M248.52469,134.1186a11.42846,11.42846,0,0,0-11.4026,10.7473h22.8053A11.42841,11.42841,0,0,0,248.52469,134.1186Z"/>
          <path class="cls-7" d="M237.11709,146.1477a11.4222,11.4222,0,0,0,22.8153,0Z"/>
          <path class="cls-7" d="M227.46489,125.8065a7.36119,7.36119,0,0,0-7.3432,7.3343l.0089,22.1849a7.33435,7.33435,0,0,0,14.6687,0V133.1408A7.3594,7.3594,0,0,0,227.46489,125.8065Zm5.7602,18.8272h-11.5292V133.3865a5.7646,5.7646,0,0,1,11.5292,0Z"/>
        </g>
        <g>
          <path class="cls-7" d="M111.68729,195.0737S99.135,216.0911,99.135,223.0263a12.55235,12.55235,0,0,0,25.1047,0C124.23969,216.0911,111.68729,195.0737,111.68729,195.0737Zm0,37.8691a9.92777,9.92777,0,0,1-9.9165-9.9165c0-3.8439,5.4037-14.6866,9.9165-22.6944,4.5128,8.0078,9.9166,18.8505,9.9166,22.6944A9.92785,9.92785,0,0,1,111.68729,232.9428Z"/>
          <path class="cls-7" d="M110.37929,229.0071a7.67106,7.67106,0,0,1-4.0127-6.7412.9585.9585,0,0,0-1.917,0,9.59223,9.59223,0,0,0,5.0159,8.428.98155.98155,0,0,0,.46.115.97072.97072,0,0,0,.8435-.5047A.9594.9594,0,0,0,110.37929,229.0071Z"/>
        </g>
        <g>
          <path class="cls-7" d="M173.12839,128.6187s-1.4126,1.3602-5.7558,1.3602a26.16943,26.16943,0,0,1-3.3438-.2312c-7.3015-.9415-10.4162-4.1745-10.4162-4.1745s-3.1154,3.233-10.4181,4.1745a26.15234,26.15234,0,0,1-3.3438.2312c-4.3423,0-5.7556-1.3602-5.7556-1.3602s-4.2198,25.0481,19.5175,38.8129C177.34809,153.6668,173.12839,128.6187,173.12839,128.6187Zm-19.5165,36.158a35.4022,35.4022,0,0,1-16.4033-22.2694,39.76186,39.76186,0,0,1-1.1024-10.6157,17.61354,17.61354,0,0,0,3.7445.364,28.60967,28.60967,0,0,0,3.6349-.2498,23.37439,23.37439,0,0,0,10.1268-3.5471,23.3659,23.3659,0,0,0,10.1249,3.5471,28.62306,28.62306,0,0,0,3.6353.2498,17.61878,17.61878,0,0,0,3.7423-.3635C171.32029,138.4371,170.00539,154.5883,153.61189,164.7767Z"/>
          <polygon class="cls-7" points="156.36 137.283 150.946 137.283 150.946 142.726 145.503 142.726 145.503 148.14 150.946 148.14 150.946 153.583 156.36 153.583 156.36 148.14 161.802 148.14 161.802 142.726 156.36 142.726 156.36 137.283"/>
        </g>
        <path class="cls-7" d="M218.35319,213.7972v.0005a12.09982,12.09982,0,0,0-12.4352-11.3658c-.1996,0-.4019.0044-.6055.0128-4.2097.1719-7.3847,2.9128-8.9733,4.6319-1.5635-1.742-4.698-4.5292-8.905-4.7623q-.41385-.02325-.8184-.0229a12.11249,12.11249,0,0,0-12.3867,11.1846c-.4076,6.0072,3.6862,11.2331,6.8008,14.6416a71.04254,71.04254,0,0,0,14.3936,11.5724l.6746.3966.6804-.3864a71.094,71.094,0,0,0,14.561-11.3614C214.504,224.9757,218.67359,219.8088,218.35319,213.7972Zm-8.9852,12.6864a68.61526,68.61526,0,0,1-13.2469,10.465,68.544,68.544,0,0,1-13.0923-10.6571c-.7769-.8502-1.6208-1.8272-2.4284-2.897h8.5259a.43975.43975,0,0,0,.353-.1665l.4693-.6196.5857,2.674a.43922.43922,0,0,0,.8368.0004l.5552-2.4708.6853,3.6496a.43743.43743,0,0,0,.8394.0062l2.1104-10.2231,1.7459,15.1308a.435.435,0,0,0,.8457.0181l1.5053-9.013.613,3.8514a.40658.40658,0,0,0,.4001.3257.42411.42411,0,0,0,.4323-.275l1.0523-3.32.412,1.8772a.41284.41284,0,0,0,.3931.3063.43976.43976,0,0,0,.427-.2512l.5487-1.3828.4847.6782a.4598.4598,0,0,0,.694.03l.7302-.8259h6.169A39.47761,39.47761,0,0,1,209.368,226.4836Zm3.208-3.8514h-6.9378a.4443.4443,0,0,0-.3349.1441l-.4861.5495-.6315-.8835a.43991.43991,0,0,0-.397-.1723.42072.42072,0,0,0-.364.2503l-.3195.8055-.4552-2.0751a.41444.41444,0,0,0-.405-.3054h-.0136a.42164.42164,0,0,0-.4099.2754l-.9893,3.1208-.7416-4.6574a.43634.43634,0,0,0-.8439-.0026l-1.4379,8.6102-1.7041-14.7673a.40656.40656,0,0,0-.4137-.3406.41773.41773,0,0,0-.4293.3107l-2.2099,10.7056-.6676-3.5549a.43816.43816,0,0,0-.8386-.0123l-.5879,2.6149-.3697-1.6873a.40765.40765,0,0,0-.3503-.3019.45765.45765,0,0,0-.4213.1613l-.9175,1.2123h-8.8541c-1.8389-2.6108-3.3357-5.7143-3.1144-8.9729a9.31891,9.31891,0,0,1,9.6854-8.6605c.2195,0,.4411.0058.6672.0185,4.6698.2591,7.8875,4.9113,7.9179,4.9558l1.1048,1.6388,1.129-1.6221c.0322-.0467,3.2865-4.6477,7.9884-4.8403a9.48383,9.48383,0,0,1,10.2262,8.7918v.0005C215.81789,217.1034,214.37439,220.0977,212.576,222.6322Z"/>
        <path class="cls-7" d="M302.82609,220.7107a4.8461,4.8461,0,1,0-5.9147,4.7239v8.1483a10.69325,10.69325,0,1,1-21.3865,0v-3.323h4.7143a5.1906,5.1906,0,0,0,5.1438-4.5453l2.6991-21.7555a5.18367,5.18367,0,0,0-5.1438-5.8214h-1.953a1.0685,1.0685,0,0,0,0,2.137h1.953a3.046,3.046,0,0,1,3.0228,3.4215l-2.699,21.7555a3.05036,3.05036,0,0,1-3.0229,2.6712h-11.5656a3.05026,3.05026,0,0,1-3.0228-2.6712l-2.6991-21.7555a3.04617,3.04617,0,0,1,3.0229-3.4215h2.7589a1.0685,1.0685,0,0,0,0-2.137h-2.7589a5.18352,5.18352,0,0,0-5.1438,5.8214l2.699,21.7555a5.19068,5.19068,0,0,0,5.1438,4.5453h4.7143v3.323a12.83025,12.83025,0,1,0,25.6605,0v-8.1482A4.84517,4.84517,0,0,0,302.82609,220.7107Z"/>
      </g>
    </g>
  </g>
</svg>
