<svg id="Object" xmlns="http://www.w3.org/2000/svg" xmlns:xlink="http://www.w3.org/1999/xlink" width="1069.79541" height="939.18438" viewBox="0 0 1069.79541 939.18438">
  <defs>
    <style>
      .cls-1 {
        fill: url(#New_Gradient_Swatch);
      }

      .cls-2 {
        fill: url(#New_Gradient_Swatch-2);
      }

      .cls-3 {
        fill: #fff;
        opacity: 0.3;
      }
    </style>
    <linearGradient id="New_Gradient_Swatch" data-name="New Gradient Swatch" x1="561" y1="-435.94581" x2="561" y2="405.01399" gradientUnits="userSpaceOnUse">
      <stop offset="0" stop-color="#14b0b6"/>
      <stop offset="0.81665" stop-color="#86cdd3"/>
    </linearGradient>
    <linearGradient id="New_Gradient_Swatch-2" x1="565.00248" y1="450.2521" x2="565.00248" y2="1063.96047" xlink:href="#New_Gradient_Swatch"/>
  </defs>
  <g>
    <path class="cls-1" d="M234.67523,425.86389a18.29916,18.29916,0,0,1,16.531-9.82649,18.09388,18.09388,0,0,1,16.04145,10.60917l61.09451,134.58536h161.542a18.09435,18.09435,0,0,1,15.05715,8.0626l15.6377,23.47025,14.7997-23.17765a18.08875,18.08875,0,0,1,15.249-8.3552H581.7744L652.774,361.06686a18.09381,18.09381,0,0,1,34.79646,2.50108L745.694,654.24805l64.01227-240.28834a18.09289,18.09289,0,0,1,34.72356-.83283L904.48933,601.683l36.61411-58.27964a18.09349,18.09349,0,0,1,15.32239-8.46893h134.407c15.83312-97.30953-7.31972-190.58465-43.56472-258.14486-54.43289-101.46232-145.48764-165.07807-237.63268-166.022-.72685-.00517-1.4537-.01034-2.18573-.01034-65.89037,0-159.82776,30.48806-246.44229,169.006C473.42611,139.7,378.32764,110.19675,312.38141,110.76748c-92.145.944-183.19979,64.55973-237.63268,166.01946-39.50188,73.62836-63.47616,177.79492-38.35162,284.445H165.18778Z" transform="translate(-26.10229 -110.75714)"/>
    <path class="cls-2" d="M914.39957,653.93477a18.09419,18.09419,0,0,1-32.56317-4.13469L828.73677,483.09615,760.66528,738.62361a18.095,18.095,0,0,1-17.4781,13.43646c-.19179,0-.381-.00258-.57538-.01034a18.095,18.095,0,0,1-17.17257-14.53708L664.948,434.994l-53.3395,150.3797a18.0945,18.0945,0,0,1-17.05419,12.04582H560.54261l-24.3889,38.19965a18.0934,18.0934,0,0,1-30.30867.2926l-25.64668-38.49225H316.68515a18.09173,18.09173,0,0,1-16.4757-10.61434L249.7727,475.69526l-57.437,111.89211a18.09272,18.09272,0,0,1-16.09676,9.83217H46.86462a390.32126,390.32126,0,0,0,42.02778,86.097c86.66985,133.52506,238.49808,252.10929,464.16093,362.53476l7.954,3.89016,7.954-3.89016c225.66234-110.42547,377.49109-229.0097,464.16094-362.53476a387.22988,387.22988,0,0,0,50.018-112.39459H966.4265Z" transform="translate(-26.10229 -110.75714)"/>
    <path class="cls-3" d="M553.05333,1046.05135l7.954,3.89016,3.14108-1.5359c-6.97955-3.838-13.8562-7.86-20.5587-12.112C477.55253,994.40025,423.74258,936.0348,373.2955,876.27612,317.96929,810.73777,265.322,742.11365,226.81786,665.47345q-8.85639-17.62828-16.7714-36.04338c-6.126-14.30445-11.71548-28.93407-16.71454-43.78236l-.9962,1.93966a18.09272,18.09272,0,0,1-16.09676,9.83217H46.86462a390.32126,390.32126,0,0,0,42.02778,86.097C175.56225,817.04165,327.39048,935.62588,553.05333,1046.05135Z" transform="translate(-26.10229 -110.75714)"/>
    <path class="cls-3" d="M36.39711,561.23193H165.18778l13.7363-26.75971c-9.25832-41.36916-12.8678-83.77536-8.28025-125.63461,12.65223-115.43745,86.247-224.511,178.73631-292.38144,1.04944-.77028,2.12214-1.50644,3.185-2.25707a215.43392,215.43392,0,0,0-37.6-3.41611c-93.26375,1.14611-185.201,65.26022-240.01277,167.43026C49.25972,326.105,30.103,386.87018,26.66,452.849q-.01627.34275-.03153.68653-.30011,5.93373-.42133,11.92382A390.11959,390.11959,0,0,0,36.39711,561.23193Z" transform="translate(-26.10229 -110.75714)"/>
  </g>
</svg>
