<svg id="Illustration" xmlns="http://www.w3.org/2000/svg" width="3046.41176" height="3652.71767" viewBox="0 0 3046.41176 3652.71767">
  <defs>
    <style>
      .cls-1 {
        fill: #818cf8;
      }

      .cls-2 {
        fill: #e0e7ff;
        opacity: 0.61;
      }
    </style>
  </defs>
  <g>
    <g>
      <path class="cls-1" d="M386.07547,594.31288a105.05262,105.05262,0,0,1,81.21923-27.95546C786.30709,595.04608,1381.4966,441.38282,1770.491,43.36975c27.01165-27.63743,76.24455-12.01653,107.20809,11.1201C2310.31293,377.8227,3027.42447,444.78053,3276.36485,458.47038a105.03017,105.03017,0,0,1,98.59349,94.07978c226.38952,2186.53939-1197.25053,2978.86532-1492.51656,3118.7229a105.29294,105.29294,0,0,1-100.59405-5.81134C310.2611,2748.83435,373.20913,1556.78386,352.85575,673.53234A105.19322,105.19322,0,0,1,386.07547,594.31288Z" transform="translate(-352.82775 -28.64117)"/>
      <path class="cls-2" d="M1842.62091,3512.45294a35.09516,35.09516,0,0,1-18.87066-5.49753c-564.16937-360.64848-931.87523-791.80677-1124.12832-1318.109C527.91808,1718.79266,519.518,1240.14982,512.09709,817.85333l-1.00725-56.30423a34.45486,34.45486,0,0,1,9.932-24.9558,34.83351,34.83351,0,0,1,25.03978-10.47036h.014c349.38752,0,873.80131-154.274,1258.43334-498.92646a34.85208,34.85208,0,0,1,42.53225-3.07047C2269.65961,504.5425,2872.49358,586.19428,3194.22551,609.90509a34.72439,34.72439,0,0,1,32.13191,31.74017c74.78342,853.15413-102.66963,1574.59088-527.42819,2144.27883-317.24165,425.45806-693.41758,647.14327-840.43126,722.7099h0A34.76036,34.76036,0,0,1,1842.62091,3512.45294Zm9.33042-16.56261,3.27319,6.37183-3.27319-6.37183c146.12542-75.10513,520.0491-295.46849,835.49344-718.52739,422.59-566.78518,599.10585-1284.92057,524.64441-2134.46558a20.463,20.463,0,0,0-18.91279-18.70981c-323.13092-23.81586-928.72076-105.90123-1354.05271-388.12926a20.522,20.522,0,0,0-25.06058,1.81153C1426.61938,585.04722,898.19078,740.44725,546.36936,740.44725h-.00711a20.77731,20.77731,0,0,0-15.12175,6.18992,20.17778,20.17778,0,0,0-5.82635,14.646l1.00726,56.3045c7.39305,421.18418,15.77913,898.547,186.65764,1366.34856,191.13395,523.23883,556.95824,952.05406,1118.3928,1310.94681A20.6635,20.6635,0,0,0,1851.95133,3495.89033Z" transform="translate(-352.82775 -28.64117)"/>
    </g>
    <g>
      <path class="cls-2" d="M2357.02031,1419.70084h-66.5466a59.83031,59.83031,0,0,1-59.83148-59.83147v-227.4568a147.42214,147.42214,0,0,0-147.42279-147.421H1670.87678a147.42079,147.42079,0,0,0-147.42121,147.421v227.4568a59.83031,59.83031,0,0,1-59.83148,59.83147h-66.54687a59.83148,59.83148,0,0,1-59.83147-59.83147v-227.4568c0-184.259,149.37175-333.62919,333.631-333.62919h412.34266c184.26059,0,333.63235,149.37017,333.63235,333.62919v227.4568A59.83115,59.83115,0,0,1,2357.02031,1419.70084Z" transform="translate(-352.82775 -28.64117)"/>
      <path class="cls-2" d="M2439.503,1473.38426H1314.59326a124.81343,124.81343,0,0,0-124.814,124.8127v863.32332a124.81753,124.81753,0,0,0,124.814,124.81849H2439.503a124.81787,124.81787,0,0,0,124.81559-124.81849V1598.197A124.81377,124.81377,0,0,0,2439.503,1473.38426ZM2037.9974,2307.79383a46.2431,46.2431,0,0,1-44.9643,57.044H1761.06418a46.24509,46.24509,0,0,1-44.9643-57.0498l54.12912-225.31381a208.38382,208.38382,0,0,1-101.39516-190.38391c5.5249-104.63676,90.31665-190.29518,194.89892-196.79128,121.19279-7.52889,221.83027,88.5304,221.83027,208.09883a208.38181,208.38181,0,0,1-101.6945,179.07636Z" transform="translate(-352.82775 -28.64117)"/>
    </g>
  </g>
</svg>
