<svg xmlns="http://www.w3.org/2000/svg" xmlns:xlink="http://www.w3.org/1999/xlink" width="657.45954" height="322.43468" viewBox="0 0 657.45954 322.43468">
  <defs>
    <style>
      .cls-1 {
        fill: none;
      }

      .cls-2 {
        isolation: isolate;
      }

      .cls-12, .cls-3 {
        fill: #8686f2;
      }

      .cls-10, .cls-11, .cls-4, .cls-5, .cls-6, .cls-7, .cls-8, .cls-9 {
        opacity: 0.6;
      }

      .cls-10, .cls-11, .cls-12, .cls-4, .cls-5, .cls-6, .cls-62, .cls-64, .cls-66, .cls-68, .cls-7, .cls-70, .cls-72, .cls-74, .cls-76, .cls-78, .cls-8, .cls-80, .cls-82, .cls-84, .cls-9 {
        mix-blend-mode: lighten;
      }

      .cls-4 {
        fill: url(#Áåçûìÿííûé_ãðàäèåíò_13);
      }

      .cls-5 {
        fill: url(#Áåçûìÿííûé_ãðàäèåíò_13-2);
      }

      .cls-6 {
        fill: url(#Áåçûìÿííûé_ãðàäèåíò_13-3);
      }

      .cls-7 {
        fill: url(#Áåçûìÿííûé_ãðàäèåíò_13-4);
      }

      .cls-8 {
        fill: url(#Áåçûìÿííûé_ãðàäèåíò_13-5);
      }

      .cls-9 {
        fill: url(#Áåçûìÿííûé_ãðàäèåíò_13-6);
      }

      .cls-10 {
        fill: url(#Áåçûìÿííûé_ãðàäèåíò_13-7);
      }

      .cls-11 {
        fill: url(#Áåçûìÿííûé_ãðàäèåíò_13-8);
      }

      .cls-13 {
        fill: url(#Áåçûìÿííûé_ãðàäèåíò_18);
      }

      .cls-14 {
        fill: #bcbeff;
      }

      .cls-15 {
        fill: #fff;
      }

      .cls-16 {
        fill: #0f054c;
      }

      .cls-17, .cls-18, .cls-19, .cls-20, .cls-21, .cls-22, .cls-23, .cls-26, .cls-27, .cls-28, .cls-29, .cls-30, .cls-31 {
        opacity: 0.5;
      }

      .cls-17 {
        fill: url(#Áåçûìÿííûé_ãðàäèåíò_254);
      }

      .cls-18 {
        fill: url(#Áåçûìÿííûé_ãðàäèåíò_254-2);
      }

      .cls-19 {
        fill: url(#Áåçûìÿííûé_ãðàäèåíò_254-3);
      }

      .cls-20 {
        fill: url(#Áåçûìÿííûé_ãðàäèåíò_254-4);
      }

      .cls-21, .cls-24, .cls-37, .cls-40, .cls-41 {
        fill: #42e8e0;
      }

      .cls-22 {
        fill: url(#Áåçûìÿííûé_ãðàäèåíò_254-5);
      }

      .cls-23 {
        fill: url(#Áåçûìÿííûé_ãðàäèåíò_254-6);
      }

      .cls-24 {
        opacity: 0.8;
      }

      .cls-25 {
        fill: url(#Áåçûìÿííûé_ãðàäèåíò_18-2);
      }

      .cls-26 {
        fill: url(#Áåçûìÿííûé_ãðàäèåíò_254-7);
      }

      .cls-27 {
        fill: url(#Áåçûìÿííûé_ãðàäèåíò_254-8);
      }

      .cls-28 {
        fill: url(#Áåçûìÿííûé_ãðàäèåíò_254-9);
      }

      .cls-29 {
        fill: url(#Áåçûìÿííûé_ãðàäèåíò_254-10);
      }

      .cls-30 {
        fill: url(#Áåçûìÿííûé_ãðàäèåíò_254-11);
      }

      .cls-31 {
        fill: url(#Áåçûìÿííûé_ãðàäèåíò_254-12);
      }

      .cls-32, .cls-36, .cls-39 {
        fill: #453c9e;
      }

      .cls-32 {
        opacity: 0.7;
      }

      .cls-33 {
        fill: url(#Áåçûìÿííûé_ãðàäèåíò_3);
      }

      .cls-34 {
        fill: #24126a;
      }

      .cls-35, .cls-39 {
        opacity: 0.51;
      }

      .cls-38 {
        fill: url(#Áåçûìÿííûé_ãðàäèåíò_3-2);
      }

      .cls-40 {
        opacity: 0.1;
      }

      .cls-41 {
        opacity: 0.4;
      }

      .cls-42 {
        fill: url(#Áåçûìÿííûé_ãðàäèåíò_3-3);
      }

      .cls-43 {
        fill: url(#Áåçûìÿííûé_ãðàäèåíò_24);
      }

      .cls-44 {
        fill: url(#Áåçûìÿííûé_ãðàäèåíò_24-2);
      }

      .cls-45 {
        fill: url(#Áåçûìÿííûé_ãðàäèåíò_3-4);
      }

      .cls-46 {
        fill: #2842a2;
      }

      .cls-47 {
        fill: #adb1f2;
      }

      .cls-48 {
        fill: #9198db;
      }

      .cls-49 {
        fill: url(#Áåçûìÿííûé_ãðàäèåíò_3-5);
      }

      .cls-50 {
        opacity: 0.11;
      }

      .cls-51 {
        clip-path: url(#clip-path);
      }

      .cls-52 {
        fill: url(#Áåçûìÿííûé_ãðàäèåíò_3-6);
      }

      .cls-53 {
        fill: url(#Áåçûìÿííûé_ãðàäèåíò_3-7);
      }

      .cls-54 {
        fill: url(#Áåçûìÿííûé_ãðàäèåíò_3-8);
      }

      .cls-55 {
        fill: url(#Áåçûìÿííûé_ãðàäèåíò_24-3);
      }

      .cls-56 {
        fill: url(#Áåçûìÿííûé_ãðàäèåíò_24-4);
      }

      .cls-57 {
        fill: url(#Áåçûìÿííûé_ãðàäèåíò_3-9);
      }

      .cls-58 {
        fill: url(#Áåçûìÿííûé_ãðàäèåíò_3-10);
      }

      .cls-59 {
        clip-path: url(#clip-path-2);
      }

      .cls-60 {
        fill: url(#Áåçûìÿííûé_ãðàäèåíò_3-11);
      }

      .cls-61 {
        fill: url(#Áåçûìÿííûé_ãðàäèåíò_3-12);
      }

      .cls-62 {
        fill: url(#Áåçûìÿííûé_ãðàäèåíò_68);
      }

      .cls-63 {
        fill: url(#Áåçûìÿííûé_ãðàäèåíò_43);
      }

      .cls-64 {
        fill: url(#Áåçûìÿííûé_ãðàäèåíò_68-2);
      }

      .cls-65 {
        fill: url(#Áåçûìÿííûé_ãðàäèåíò_43-2);
      }

      .cls-66 {
        fill: url(#Áåçûìÿííûé_ãðàäèåíò_68-3);
      }

      .cls-67 {
        fill: url(#Áåçûìÿííûé_ãðàäèåíò_43-3);
      }

      .cls-68 {
        fill: url(#Áåçûìÿííûé_ãðàäèåíò_68-4);
      }

      .cls-69 {
        fill: url(#Áåçûìÿííûé_ãðàäèåíò_43-4);
      }

      .cls-70 {
        fill: url(#Áåçûìÿííûé_ãðàäèåíò_68-5);
      }

      .cls-71 {
        fill: url(#Áåçûìÿííûé_ãðàäèåíò_43-5);
      }

      .cls-72 {
        fill: url(#Áåçûìÿííûé_ãðàäèåíò_68-6);
      }

      .cls-73 {
        fill: url(#Áåçûìÿííûé_ãðàäèåíò_43-6);
      }

      .cls-74 {
        fill: url(#Áåçûìÿííûé_ãðàäèåíò_68-7);
      }

      .cls-75 {
        fill: url(#Áåçûìÿííûé_ãðàäèåíò_43-7);
      }

      .cls-76 {
        fill: url(#Áåçûìÿííûé_ãðàäèåíò_68-8);
      }

      .cls-77 {
        fill: url(#Áåçûìÿííûé_ãðàäèåíò_43-8);
      }

      .cls-78 {
        fill: url(#Áåçûìÿííûé_ãðàäèåíò_68-9);
      }

      .cls-79 {
        fill: url(#Áåçûìÿííûé_ãðàäèåíò_43-9);
      }

      .cls-80 {
        fill: url(#Áåçûìÿííûé_ãðàäèåíò_68-10);
      }

      .cls-81 {
        fill: url(#Áåçûìÿííûé_ãðàäèåíò_43-10);
      }

      .cls-82 {
        fill: url(#Áåçûìÿííûé_ãðàäèåíò_68-11);
      }

      .cls-83 {
        fill: url(#Áåçûìÿííûé_ãðàäèåíò_43-11);
      }

      .cls-84 {
        fill: url(#Áåçûìÿííûé_ãðàäèåíò_68-12);
      }

      .cls-85 {
        fill: url(#Áåçûìÿííûé_ãðàäèåíò_43-12);
      }
    </style>
    <linearGradient id="Áåçûìÿííûé_ãðàäèåíò_13" data-name="Áåçûìÿííûé ãðàäèåíò 13" x1="-1784.52424" y1="-672.21698" x2="-1784.52424" y2="-719.90831" gradientTransform="matrix(0.866, 0.5, -1, 0.5774, 1313.19619, 1464.74687)" gradientUnits="userSpaceOnUse">
      <stop offset="0" stop-color="#42e8e0"/>
      <stop offset="0.01851" stop-color="#40deda"/>
      <stop offset="0.1149" stop-color="#37adbc"/>
      <stop offset="0.21661" stop-color="#2e82a2"/>
      <stop offset="0.32193" stop-color="#285e8c"/>
      <stop offset="0.43186" stop-color="#22417a"/>
      <stop offset="0.54792" stop-color="#1e2a6c"/>
      <stop offset="0.67287" stop-color="#1a1a63"/>
      <stop offset="0.81304" stop-color="#19105d"/>
      <stop offset="1" stop-color="#180d5b"/>
    </linearGradient>
    <linearGradient id="Áåçûìÿííûé_ãðàäèåíò_13-2" x1="1047.06395" y1="26.74297" x2="1047.06395" y2="-28.33221" gradientTransform="matrix(1, -0.5774, 0.866, 0.5, -665.83151, 775.54949)" xlink:href="#Áåçûìÿííûé_ãðàäèåíò_13"/>
    <linearGradient id="Áåçûìÿííûé_ãðàäèåíò_13-3" x1="616.5089" y1="2812.29773" x2="616.5089" y2="2764.6064" gradientTransform="matrix(-0.866, -0.5, 1, -0.5774, -1874.00981, 2136.98699)" xlink:href="#Áåçûìÿííûé_ãðàäèåíò_13"/>
    <linearGradient id="Áåçûìÿííûé_ãðàäèåíò_13-4" x1="-2437.45087" y1="2427.77624" x2="-2437.45087" y2="2372.70106" gradientTransform="matrix(-1, 0.5774, -0.866, -0.5, 105.01789, 2826.18449)" xlink:href="#Áåçûìÿííûé_ãðàäèåíò_13"/>
    <linearGradient id="Áåçûìÿííûé_ãðàäèåíò_13-5" x1="-1890.51912" y1="-580.43063" x2="-1890.51912" y2="-628.12196" xlink:href="#Áåçûìÿííûé_ãðàäèåíò_13"/>
    <linearGradient id="Áåçûìÿííûé_ãðàäèåíò_13-6" x1="955.2776" y1="-79.2519" x2="955.2776" y2="-134.32709" gradientTransform="matrix(1, -0.5774, 0.866, 0.5, -665.83151, 775.54949)" xlink:href="#Áåçûìÿííûé_ãðàäèåíò_13"/>
    <linearGradient id="Áåçûìÿííûé_ãðàäèåíò_13-7" x1="722.50381" y1="2720.51138" x2="722.50381" y2="2672.81999" gradientTransform="matrix(-0.866, -0.5, 1, -0.5774, -1874.00981, 2136.98699)" xlink:href="#Áåçûìÿííûé_ãðàäèåíò_13"/>
    <linearGradient id="Áåçûìÿííûé_ãðàäèåíò_13-8" x1="-2345.66452" y1="2533.77112" x2="-2345.66452" y2="2478.69594" gradientTransform="matrix(-1, 0.5774, -0.866, -0.5, 105.01789, 2826.18449)" xlink:href="#Áåçûìÿííûé_ãðàäèåíò_13"/>
    <linearGradient id="Áåçûìÿííûé_ãðàäèåíò_18" data-name="Áåçûìÿííûé ãðàäèåíò 18" x1="170.52552" y1="204.70348" x2="287.74195" y2="204.70348" gradientUnits="userSpaceOnUse">
      <stop offset="0" stop-color="#5761d7"/>
      <stop offset="0.16446" stop-color="#5e67da"/>
      <stop offset="0.40507" stop-color="#727ae2"/>
      <stop offset="0.69235" stop-color="#9297ee"/>
      <stop offset="1" stop-color="#bcbeff"/>
    </linearGradient>
    <linearGradient id="Áåçûìÿííûé_ãðàäèåíò_254" data-name="Áåçûìÿííûé ãðàäèåíò 254" x1="203.69807" y1="188.86417" x2="274.05439" y2="188.86417" gradientUnits="userSpaceOnUse">
      <stop offset="0" stop-color="#42e8e0"/>
      <stop offset="0.15073" stop-color="#43e3e0"/>
      <stop offset="0.32849" stop-color="#45d5df"/>
      <stop offset="0.5199" stop-color="#49bddd"/>
      <stop offset="0.72093" stop-color="#4e9cdb"/>
      <stop offset="0.92742" stop-color="#5472d8"/>
      <stop offset="1" stop-color="#5761d7"/>
    </linearGradient>
    <linearGradient id="Áåçûìÿííûé_ãðàäèåíò_254-2" x1="238.87564" y1="176.14835" x2="274.05439" y2="176.14835" xlink:href="#Áåçûìÿííûé_ãðàäèåíò_254"/>
    <linearGradient id="Áåçûìÿííûé_ãðàäèåíò_254-3" x1="203.69807" y1="176.14805" x2="238.87671" y2="176.14805" xlink:href="#Áåçûìÿííûé_ãðàäèåíò_254"/>
    <linearGradient id="Áåçûìÿííûé_ãðàäèåíò_254-4" x1="203.69807" y1="183.74264" x2="274.05439" y2="183.74264" xlink:href="#Áåçûìÿííûé_ãðàäèåíò_254"/>
    <linearGradient id="Áåçûìÿííûé_ãðàäèåíò_254-5" x1="238.87671" y1="196.45846" x2="274.05439" y2="196.45846" xlink:href="#Áåçûìÿííûé_ãðàäèåíò_254"/>
    <linearGradient id="Áåçûìÿííûé_ãðàäèåíò_254-6" x1="203.69807" y1="196.45816" x2="238.87671" y2="196.45816" xlink:href="#Áåçûìÿííûé_ãðàäèåíò_254"/>
    <linearGradient id="Áåçûìÿííûé_ãðàäèåíò_18-2" x1="353.85302" y1="204.70348" x2="471.06944" y2="204.70348" xlink:href="#Áåçûìÿííûé_ãðàäèåíò_18"/>
    <linearGradient id="Áåçûìÿííûé_ãðàäèåíò_254-7" x1="387.02557" y1="188.86417" x2="457.38189" y2="188.86417" xlink:href="#Áåçûìÿííûé_ãðàäèåíò_254"/>
    <linearGradient id="Áåçûìÿííûé_ãðàäèåíò_254-8" x1="422.20325" y1="176.14835" x2="457.38189" y2="176.14835" xlink:href="#Áåçûìÿííûé_ãðàäèåíò_254"/>
    <linearGradient id="Áåçûìÿííûé_ãðàäèåíò_254-9" x1="387.02557" y1="176.14805" x2="422.20421" y2="176.14805" xlink:href="#Áåçûìÿííûé_ãðàäèåíò_254"/>
    <linearGradient id="Áåçûìÿííûé_ãðàäèåíò_254-10" x1="387.02557" y1="183.74264" x2="457.38189" y2="183.74264" xlink:href="#Áåçûìÿííûé_ãðàäèåíò_254"/>
    <linearGradient id="Áåçûìÿííûé_ãðàäèåíò_254-11" x1="422.20421" y1="196.45846" x2="457.38189" y2="196.45846" xlink:href="#Áåçûìÿííûé_ãðàäèåíò_254"/>
    <linearGradient id="Áåçûìÿííûé_ãðàäèåíò_254-12" x1="387.02557" y1="196.45816" x2="422.20421" y2="196.45816" xlink:href="#Áåçûìÿííûé_ãðàäèåíò_254"/>
    <linearGradient id="Áåçûìÿííûé_ãðàäèåíò_3" data-name="Áåçûìÿííûé ãðàäèåíò 3" x1="371.29409" y1="258.34462" x2="371.29409" y2="86.80859" gradientUnits="userSpaceOnUse">
      <stop offset="0" stop-color="#c0bff6"/>
      <stop offset="0.29376" stop-color="#c5c4f7"/>
      <stop offset="0.63992" stop-color="#d3d2f9"/>
      <stop offset="1" stop-color="#e9e9fd"/>
    </linearGradient>
    <linearGradient id="Áåçûìÿííûé_ãðàäèåíò_3-2" x1="371.29409" y1="104.03702" x2="371.29409" y2="48.4901" xlink:href="#Áåçûìÿííûé_ãðàäèåíò_3"/>
    <linearGradient id="Áåçûìÿííûé_ãðàäèåíò_3-3" x1="2289.32749" y1="233.87261" x2="2380.14291" y2="233.87261" gradientTransform="translate(-2278.6905)" xlink:href="#Áåçûìÿííûé_ãðàäèåíò_3"/>
    <linearGradient id="Áåçûìÿííûé_ãðàäèåíò_24" data-name="Áåçûìÿííûé ãðàäèåíò 24" x1="2289.32806" y1="257.16267" x2="2304.92191" y2="257.16267" gradientTransform="translate(-2278.6905)" gradientUnits="userSpaceOnUse">
      <stop offset="0" stop-color="#5761d7"/>
      <stop offset="0.17789" stop-color="#5c66d9"/>
      <stop offset="0.3876" stop-color="#6a73df"/>
      <stop offset="0.6134" stop-color="#8289e8"/>
      <stop offset="0.84896" stop-color="#a3a7f5"/>
      <stop offset="1" stop-color="#bcbeff"/>
    </linearGradient>
    <linearGradient id="Áåçûìÿííûé_ãðàäèåíò_24-2" x1="2301.49462" y1="283.34335" x2="2429.75566" y2="283.34335" xlink:href="#Áåçûìÿííûé_ãðàäèåíò_24"/>
    <linearGradient id="Áåçûìÿííûé_ãðàäèåíò_3-4" x1="2344.59077" y1="279.06663" x2="2472.92018" y2="279.06663" gradientTransform="translate(-2278.6905)" xlink:href="#Áåçûìÿííûé_ãðàäèåíò_3"/>
    <linearGradient id="Áåçûìÿííûé_ãðàäèåíò_3-5" x1="2366.32324" y1="286.3517" x2="2399.17196" y2="286.3517" gradientTransform="translate(-2278.6905)" xlink:href="#Áåçûìÿííûé_ãðàäèåíò_3"/>
    <clipPath id="clip-path" transform="translate(26.25209 -58.55811)">
      <polygon id="SVGID" class="cls-1" points="90.494 184.68 14.716 228.43 24.113 283.829 99.84 240.108 90.494 184.68"/>
    </clipPath>
    <linearGradient id="Áåçûìÿííûé_ãðàäèåíò_3-6" x1="2295.56158" y1="250.62284" x2="2423.89099" y2="250.62284" gradientTransform="translate(-2278.6905)" xlink:href="#Áåçûìÿííûé_ãðàäèåíò_3"/>
    <linearGradient id="Áåçûìÿííûé_ãðàäèåíò_3-7" x1="2287.11537" y1="241.20255" x2="2319.96405" y2="241.20255" gradientTransform="translate(-2278.6905)" xlink:href="#Áåçûìÿííûé_ãðàäèåíò_3"/>
    <linearGradient id="Áåçûìÿííûé_ãðàäèåíò_3-8" x1="40.22167" y1="233.87261" x2="131.03707" y2="233.87261" gradientTransform="matrix(-1, 0, 0, 1, 634.5401, 0)" xlink:href="#Áåçûìÿííûé_ãðàäèåíò_3"/>
    <linearGradient id="Áåçûìÿííûé_ãðàäèåíò_24-3" x1="40.22233" y1="257.16267" x2="55.81619" y2="257.16267" gradientTransform="matrix(-1, 0, 0, 1, 634.5401, 0)" xlink:href="#Áåçûìÿííûé_ãðàäèåíò_24"/>
    <linearGradient id="Áåçûìÿííûé_ãðàäèåíò_24-4" x1="52.3889" y1="283.34335" x2="180.64994" y2="283.34335" gradientTransform="matrix(-1, 0, 0, 1, 634.5401, 0)" xlink:href="#Áåçûìÿííûé_ãðàäèåíò_24"/>
    <linearGradient id="Áåçûìÿííûé_ãðàäèåíò_3-9" x1="95.48501" y1="279.06663" x2="223.81442" y2="279.06663" gradientTransform="matrix(-1, 0, 0, 1, 634.5401, 0)" xlink:href="#Áåçûìÿííûé_ãðàäèåíò_3"/>
    <linearGradient id="Áåçûìÿííûé_ãðàäèåíò_3-10" x1="117.21745" y1="286.3517" x2="150.06613" y2="286.3517" gradientTransform="matrix(-1, 0, 0, 1, 634.5401, 0)" xlink:href="#Áåçûìÿííûé_ãðàäèåíò_3"/>
    <clipPath id="clip-path-2" transform="translate(26.25209 -58.55811)">
      <polygon id="SVGID-2" data-name="SVGID" class="cls-1" points="514.462 184.68 590.239 228.43 580.842 283.829 505.116 240.108 514.462 184.68"/>
    </clipPath>
    <linearGradient id="Áåçûìÿííûé_ãðàäèåíò_3-11" x1="46.45582" y1="250.62284" x2="174.78523" y2="250.62284" gradientTransform="matrix(-1, 0, 0, 1, 634.5401, 0)" xlink:href="#Áåçûìÿííûé_ãðàäèåíò_3"/>
    <linearGradient id="Áåçûìÿííûé_ãðàäèåíò_3-12" x1="38.0096" y1="241.20255" x2="70.85831" y2="241.20255" gradientTransform="matrix(-1, 0, 0, 1, 634.5401, 0)" xlink:href="#Áåçûìÿííûé_ãðàäèåíò_3"/>
    <radialGradient id="Áåçûìÿííûé_ãðàäèåíò_68" data-name="Áåçûìÿííûé ãðàäèåíò 68" cx="453.07167" cy="443.17605" r="11.15836" gradientTransform="matrix(0.99215, -0.12507, -0.12507, -0.99215, -237.78393, 848.37912)" gradientUnits="userSpaceOnUse">
      <stop offset="0" stop-color="#42e8e0"/>
      <stop offset="0.00423" stop-color="#41e5de"/>
      <stop offset="0.06397" stop-color="#39b8c3"/>
      <stop offset="0.12803" stop-color="#3190aa"/>
      <stop offset="0.19799" stop-color="#2a6c95"/>
      <stop offset="0.27359" stop-color="#254e83"/>
      <stop offset="0.35671" stop-color="#203674"/>
      <stop offset="0.45051" stop-color="#1c2469"/>
      <stop offset="0.56102" stop-color="#1a1761"/>
      <stop offset="0.70431" stop-color="#180f5c"/>
      <stop offset="1" stop-color="#180d5b"/>
    </radialGradient>
    <radialGradient id="Áåçûìÿííûé_ãðàäèåíò_43" data-name="Áåçûìÿííûé ãðàäèåíò 43" cx="453.07172" cy="443.17602" r="3.03389" gradientTransform="matrix(0.8633, -0.5047, -0.5047, -0.8633, -11.1601, 963.2756)" gradientUnits="userSpaceOnUse">
      <stop offset="0" stop-color="#42e8e0"/>
      <stop offset="1" stop-color="#42e8e0"/>
    </radialGradient>
    <radialGradient id="Áåçûìÿííûé_ãðàäèåíò_68-2" cx="517.56087" cy="396.51327" r="11.15836" gradientTransform="matrix(0.99215, -0.12507, -0.12507, -0.99215, -228.37882, 817.88426)" xlink:href="#Áåçûìÿííûé_ãðàäèåíò_68"/>
    <radialGradient id="Áåçûìÿííûé_ãðàäèåíò_43-2" cx="517.56092" cy="396.51327" r="3.03388" xlink:href="#Áåçûìÿííûé_ãðàäèåíò_43"/>
    <radialGradient id="Áåçûìÿííûé_ãðàäèåíò_68-3" cx="635.33667" cy="328.69352" r="11.15836" gradientTransform="matrix(0.99215, -0.12507, -0.12507, -0.99215, -217.80794, 764.43391)" xlink:href="#Áåçûìÿííûé_ãðàäèåíò_68"/>
    <radialGradient id="Áåçûìÿííûé_ãðàäèåíò_43-3" cx="635.33672" cy="328.69352" r="3.03388" xlink:href="#Áåçûìÿííûé_ãðàäèåíò_43"/>
    <radialGradient id="Áåçûìÿííûé_ãðàäèåíò_68-4" cx="643.62738" cy="313.93754" r="11.15833" gradientTransform="matrix(0.8633, -0.5047, -0.5047, -0.8633, -11.1601, 963.2756)" xlink:href="#Áåçûìÿííûé_ãðàäèåíò_68"/>
    <radialGradient id="Áåçûìÿííûé_ãðàäèåíò_43-4" cx="643.62738" cy="313.93751" r="3.03389" gradientTransform="matrix(0.70713, 0.70709, 0.70709, -0.70713, -291.07144, 134.30774)" xlink:href="#Áåçûìÿííûé_ãðàäèåíò_43"/>
    <radialGradient id="Áåçûìÿííûé_ãðàäèåíò_68-5" cx="724.02135" cy="293.65409" r="11.15836" gradientTransform="matrix(0.99724, -0.07426, -0.07426, -0.99724, -234.53884, 690.96012)" xlink:href="#Áåçûìÿííûé_ãðàäèåíò_68"/>
    <radialGradient id="Áåçûìÿííûé_ãðàäèåíò_43-5" cx="724.02135" cy="293.65404" r="3.03388" xlink:href="#Áåçûìÿííûé_ãðàäèåíò_43"/>
    <radialGradient id="Áåçûìÿííûé_ãðàäèåíò_68-6" cx="754.16166" cy="307.97248" r="11.15834" gradientTransform="matrix(0.8633, -0.5047, -0.5047, -0.8633, -11.1601, 963.2756)" xlink:href="#Áåçûìÿííûé_ãðàäèåíò_68"/>
    <radialGradient id="Áåçûìÿííûé_ãðàäèåíò_43-6" cx="754.16168" cy="307.97245" r="3.03389" xlink:href="#Áåçûìÿííûé_ãðàäèåíò_43"/>
    <radialGradient id="Áåçûìÿííûé_ãðàäèåíò_68-7" cx="744.44306" cy="325.39559" r="11.15834" gradientTransform="matrix(0.8633, -0.5047, -0.5047, -0.8633, -11.1601, 963.2756)" xlink:href="#Áåçûìÿííûé_ãðàäèåíò_68"/>
    <radialGradient id="Áåçûìÿííûé_ãðàäèåíò_43-7" cx="744.44314" cy="325.39556" r="3.03389" xlink:href="#Áåçûìÿííûé_ãðàäèåíò_43"/>
    <radialGradient id="Áåçûìÿííûé_ãðàäèåíò_68-8" cx="734.3679" cy="342.20858" r="11.15834" gradientTransform="matrix(0.8633, -0.5047, -0.5047, -0.8633, -11.1601, 963.2756)" xlink:href="#Áåçûìÿííûé_ãðàäèåíò_68"/>
    <radialGradient id="Áåçûìÿííûé_ãðàäèåíò_43-8" cx="734.36792" cy="342.20855" r="3.03389" xlink:href="#Áåçûìÿííûé_ãðàäèåíò_43"/>
    <radialGradient id="Áåçûìÿííûé_ãðàäèåíò_68-9" cx="445.16431" cy="457.15917" r="11.15836" gradientTransform="matrix(0.8633, -0.5047, -0.5047, -0.8633, -11.1601, 963.2756)" xlink:href="#Áåçûìÿííûé_ãðàäèåíò_68"/>
    <radialGradient id="Áåçûìÿííûé_ãðàäèåíò_43-9" cx="445.16428" cy="457.15912" r="3.03389" gradientTransform="matrix(0.70713, 0.70709, 0.70709, -0.70713, -495.61959, 352.4363)" xlink:href="#Áåçûìÿííûé_ãðàäèåíò_43"/>
    <radialGradient id="Áåçûìÿííûé_ãðàäèåíò_68-10" cx="437.25692" cy="471.14223" r="11.15837" gradientTransform="matrix(0.70713, 0.70709, 0.70709, -0.70713, -513.79894, 359.83774)" xlink:href="#Áåçûìÿííûé_ãðàäèåíò_68"/>
    <radialGradient id="Áåçûìÿííûé_ãðàäèåíò_43-10" cx="437.25687" cy="471.14228" r="3.03386" xlink:href="#Áåçûìÿííûé_ãðàäèåíò_43"/>
    <radialGradient id="Áåçûìÿííûé_ãðàäèåíò_68-11" cx="487.39907" cy="490.08286" r="11.15837" gradientTransform="matrix(0.8633, -0.5047, -0.5047, -0.8633, -11.1601, 963.2756)" xlink:href="#Áåçûìÿííûé_ãðàäèåíò_68"/>
    <radialGradient id="Áåçûìÿííûé_ãðàäèåíò_43-11" cx="487.39912" cy="490.08283" r="3.0339" xlink:href="#Áåçûìÿííûé_ãðàäèåíò_43"/>
    <radialGradient id="Áåçûìÿííûé_ãðàäèåíò_68-12" cx="504.13992" cy="489.32905" r="11.15836" gradientTransform="matrix(0.8633, -0.5047, -0.5047, -0.8633, -11.1601, 963.2756)" xlink:href="#Áåçûìÿííûé_ãðàäèåíò_68"/>
    <radialGradient id="Áåçûìÿííûé_ãðàäèåíò_43-12" cx="504.13987" cy="489.32908" r="3.03389" xlink:href="#Áåçûìÿííûé_ãðàäèåíò_43"/>
  </defs>
  <g class="cls-2">
    <g id="Ñëîé_1" data-name="Ñëîé 1">
      <path class="cls-3" d="M405.98666,378.58442a5.93718,5.93718,0,0,1-2.96561-.79267l-45.69461-26.38189.3905-.67651,45.69473,26.38189a5.15994,5.15994,0,0,0,5.16462-.00809l13.33972-7.76294,74.7197-43.14a1.10272,1.10272,0,0,0,0-1.91086l-77.494-44.74044.3905-.67651,77.49416,44.74044a1.88445,1.88445,0,0,1,0,3.26375l-74.71862,43.13879-13.33853,7.76187A5.94334,5.94334,0,0,1,405.98666,378.58442Z" transform="translate(26.25209 -58.55811)"/>
      <path class="cls-3" d="M113.897,267.56731l-.39063-.67651,54.12609-31.24968a6.19141,6.19141,0,0,1,6.16831,0l25.30393,14.60907-.39062.67639-25.30381-14.60895a5.39869,5.39869,0,0,0-5.38731,0Z" transform="translate(26.25209 -58.55811)"/>
      <path class="cls-3" d="M496.25747,267.56731l-54.12609-31.24968a5.39867,5.39867,0,0,0-5.3873,0l-25.30382,14.60895-.3905-.67639,25.30381-14.60907a6.19141,6.19141,0,0,1,6.16831,0L496.648,266.8908Z" transform="translate(26.25209 -58.55811)"/>
      <g>
        <polygon class="cls-4" points="505.519 167.094 469.896 146.527 422.203 174.062 457.826 194.63 505.519 167.094"/>
        <polygon class="cls-5" points="374.508 146.526 338.886 167.093 386.58 194.629 422.203 174.062 374.508 146.526"/>
        <polygon class="cls-6" points="338.887 222.164 374.511 242.732 422.204 215.196 386.58 194.629 338.887 222.164"/>
        <polygon class="cls-7" points="469.898 242.733 505.52 222.166 457.826 194.63 422.204 215.196 469.898 242.733"/>
      </g>
      <g>
        <polygon class="cls-8" points="321.941 167.094 286.318 146.527 238.625 174.062 274.248 194.63 321.941 167.094"/>
        <polygon class="cls-9" points="190.93 146.526 155.308 167.093 203.002 194.629 238.625 174.062 190.93 146.526"/>
        <polygon class="cls-10" points="155.309 222.164 190.933 242.732 238.626 215.196 203.002 194.629 155.309 222.164"/>
        <polygon class="cls-11" points="286.32 242.733 321.943 222.166 274.248 194.63 238.626 215.196 286.32 242.733"/>
      </g>
      <g>
        <g>
          <g>
            <path class="cls-12" d="M212.62117,292.29007a3.88448,3.88448,0,0,1-1.91538-.44859l-43.06774-24.86463a1.51472,1.51472,0,0,1-.86134-1.29684,1.97142,1.97142,0,0,1,1.14937-1.59891L210.416,239.54877a4.76154,4.76154,0,0,1,4.34886-.16567l43.06761,24.86463a1.51528,1.51528,0,0,1,.86147,1.297,1.97144,1.97144,0,0,1-1.14949,1.59879l-42.4899,24.53233A4.979,4.979,0,0,1,212.62117,292.29007Zm-1.58237-1.02631a4.16489,4.16489,0,0,0,3.68259-.16568l42.48989-24.53232c.511-.29505.81552-.67675.81552-1.022a.90055.90055,0,0,0-.52749-.71828l-43.06762-24.86463a4.17675,4.17675,0,0,0-3.68258.16568l-42.48989,24.53244c-.511.29493-.81541.67663-.81541,1.02191a.9.9,0,0,0,.52738.71828Z" transform="translate(26.25209 -58.55811)"/>
            <g>
              <g>
                <polygon class="cls-13" points="284.613 188.858 284.613 194.144 238.877 220.549 193.14 194.143 193.14 188.858 284.613 188.858"/>
                <polygon class="cls-14" points="238.877 215.264 193.14 188.858 238.876 162.452 284.613 188.858 238.877 215.264"/>
                <polygon class="cls-15" points="238.877 214.647 193.674 188.549 193.14 188.858 238.877 215.264 284.613 188.858 284.078 188.55 238.877 214.647"/>
              </g>
              <g>
                <polygon class="cls-16" points="238.877 209.174 203.699 188.863 238.876 168.554 274.054 188.864 238.877 209.174"/>
                <g>
                  <polygon class="cls-17" points="238.877 209.174 203.698 188.864 238.876 168.554 274.054 188.865 238.877 209.174"/>
                  <g>
                    <polygon class="cls-18" points="238.876 163.433 274.054 183.743 274.054 188.864 238.876 168.554 238.876 163.433"/>
                    <polygon class="cls-19" points="238.877 168.554 203.698 188.864 203.698 183.742 238.876 163.433 238.877 168.554"/>
                    <polygon class="cls-20" points="238.877 204.053 203.698 183.742 238.876 163.433 274.054 183.743 238.877 204.053"/>
                    <polygon class="cls-21" points="238.876 191.858 224.82 183.743 238.876 175.627 252.933 183.743 238.876 191.858"/>
                    <polygon class="cls-21" points="238.876 176.374 252.286 184.116 252.933 183.743 238.876 175.627 224.82 183.743 225.466 184.116 238.876 176.374"/>
                    <polygon class="cls-22" points="238.877 204.053 238.877 209.174 274.054 188.864 274.054 183.743 238.877 204.053"/>
                  </g>
                  <polygon class="cls-23" points="203.698 183.742 203.698 188.864 238.877 209.174 238.877 204.053 203.698 183.742"/>
                </g>
                <polygon class="cls-24" points="238.877 203.494 204.182 183.463 203.698 183.742 238.877 204.053 274.054 183.743 273.57 183.463 238.877 203.494"/>
              </g>
            </g>
          </g>
          <g>
            <path class="cls-12" d="M395.94879,292.29007a3.8847,3.8847,0,0,1-1.91551-.44859l-43.06761-24.86463a1.51508,1.51508,0,0,1-.86146-1.29684,1.97132,1.97132,0,0,1,1.14949-1.59891l42.48977-24.53233a4.76154,4.76154,0,0,1,4.34886-.16567l43.06761,24.86463a1.515,1.515,0,0,1,.86147,1.297,1.97119,1.97119,0,0,1-1.14949,1.59879l-42.48978,24.53233A4.97939,4.97939,0,0,1,395.94879,292.29007Zm-1.58237-1.02631a4.1649,4.1649,0,0,0,3.68259-.16568l42.48989-24.53232c.51095-.29505.8154-.67675.8154-1.022a.90057.90057,0,0,0-.52749-.71828l-43.06762-24.86463a4.17674,4.17674,0,0,0-3.68258.16568l-42.48978,24.53244c-.51107.29493-.81552.67663-.81552,1.02191a.90038.90038,0,0,0,.5275.71828Z" transform="translate(26.25209 -58.55811)"/>
            <g>
              <g>
                <polygon class="cls-25" points="467.94 188.858 467.94 194.144 422.204 220.549 376.467 194.143 376.467 188.858 467.94 188.858"/>
                <polygon class="cls-14" points="422.204 215.264 376.467 188.858 422.203 162.452 467.94 188.858 422.204 215.264"/>
                <polygon class="cls-15" points="422.204 214.647 377.002 188.549 376.467 188.858 422.204 215.264 467.94 188.858 467.406 188.55 422.204 214.647"/>
              </g>
              <g>
                <polygon class="cls-16" points="422.204 209.174 387.026 188.863 422.203 168.554 457.381 188.864 422.204 209.174"/>
                <g>
                  <polygon class="cls-26" points="422.204 209.174 387.026 188.864 422.203 168.554 457.382 188.865 422.204 209.174"/>
                  <g>
                    <polygon class="cls-27" points="422.203 163.433 457.382 183.743 457.382 188.864 422.203 168.554 422.203 163.433"/>
                    <polygon class="cls-28" points="422.204 168.554 387.026 188.864 387.026 183.742 422.203 163.433 422.204 168.554"/>
                    <polygon class="cls-29" points="422.204 204.053 387.026 183.742 422.203 163.433 457.382 183.743 422.204 204.053"/>
                    <polygon class="cls-21" points="422.204 191.858 408.147 183.743 422.203 175.627 436.26 183.743 422.204 191.858"/>
                    <polygon class="cls-21" points="422.203 176.374 435.613 184.116 436.26 183.743 422.203 175.627 408.147 183.743 408.794 184.116 422.203 176.374"/>
                    <polygon class="cls-30" points="422.204 204.053 422.204 209.174 457.382 188.864 457.382 183.743 422.204 204.053"/>
                  </g>
                  <polygon class="cls-31" points="387.026 183.742 387.026 188.864 422.204 209.174 422.204 204.053 387.026 183.742"/>
                </g>
                <polygon class="cls-24" points="422.204 203.494 387.51 183.463 387.026 183.742 422.204 204.053 457.382 183.743 456.898 183.463 422.204 203.494"/>
              </g>
            </g>
          </g>
        </g>
        <g>
          <polygon class="cls-14" points="330.652 128.921 249.366 81.991 330.65 35.062 411.936 81.992 330.652 128.921"/>
          <polygon class="cls-32" points="330.652 124.695 256.687 81.991 330.65 39.289 404.615 81.992 330.652 124.695"/>
          <path class="cls-3" d="M304.40043,380.99278a7.25332,7.25332,0,0,1-3.62463-.96822l-99.56219-57.4828a2.13587,2.13587,0,0,1,0-3.6996l103.184-59.57374,106.39177,61.42533L308.02565,380.02456A7.25356,7.25356,0,0,1,304.40043,380.99278Zm-3.23412-1.64473a6.49544,6.49544,0,0,0,6.46883,0l101.59207-58.6543-104.82964-60.5234L201.60423,319.51867a1.35452,1.35452,0,0,0,0,2.34659Z" transform="translate(26.25209 -58.55811)"/>
          <polygon class="cls-15" points="330.652 309.065 249.366 262.134 330.65 215.205 411.936 262.136 330.652 309.065"/>
          <polygon class="cls-33" points="411.936 81.992 411.936 262.136 330.652 309.065 330.652 128.921 411.936 81.992"/>
          <polygon class="cls-34" points="249.366 81.991 249.366 262.134 330.652 309.065 330.652 128.921 249.366 81.991"/>
          <g class="cls-35">
            <polygon class="cls-36" points="254.873 93.943 254.873 255.862 325.146 296.434 325.146 134.515 254.873 93.943"/>
          </g>
          <polygon class="cls-36" points="399.743 125.516 399.743 130.278 342.845 163.128 342.845 158.367 399.743 125.516"/>
          <polygon class="cls-36" points="399.743 145.649 399.743 150.41 342.845 183.261 342.845 178.499 399.743 145.649"/>
          <polygon class="cls-36" points="399.743 165.782 399.743 170.543 342.845 203.393 342.845 198.632 399.743 165.782"/>
          <polygon class="cls-36" points="399.743 185.914 399.743 190.676 342.845 223.526 342.845 218.764 399.743 185.914"/>
          <polygon class="cls-36" points="399.743 206.046 399.743 210.808 342.845 243.658 342.845 238.897 399.743 206.046"/>
          <polygon class="cls-36" points="399.743 226.179 399.743 230.94 342.845 263.791 342.845 259.029 399.743 226.179"/>
          <polygon class="cls-15" points="330.652 127.396 250.687 81.229 249.366 81.991 330.652 128.922 411.936 81.992 410.615 81.23 330.652 127.396"/>
          <g class="cls-35">
            <polygon class="cls-36" points="249.366 233.666 330.651 184.587 330.652 128.921 249.366 81.991 249.366 233.666"/>
          </g>
          <g>
            <polygon class="cls-37" points="263.288 151.287 273.403 157.128 273.405 155.372 263.289 149.531 263.288 151.287"/>
            <polygon class="cls-37" points="275.029 158.06 280.541 161.243 280.543 159.488 275.031 156.305 275.029 158.06"/>
            <polygon class="cls-37" points="289.116 166.188 293.104 168.491 293.106 166.735 289.118 164.433 289.116 166.188"/>
            <polygon class="cls-37" points="286.208 164.509 287.571 165.296 287.572 163.54 286.21 162.754 286.208 164.509"/>
            <polygon class="cls-37" points="282.187 162.187 284.662 163.616 284.664 161.861 282.189 160.432 282.187 162.187"/>
            <polygon class="cls-37" points="272.639 164.711 276.627 167.014 276.629 165.259 272.641 162.956 272.639 164.711"/>
            <polygon class="cls-37" points="263.28 159.307 271.094 163.819 271.095 162.063 263.282 157.552 263.28 159.307"/>
            <g>
              <polygon class="cls-37" points="277.847 187.754 285.661 192.266 285.663 190.51 277.849 185.999 277.847 187.754"/>
              <polygon class="cls-37" points="273.827 185.433 276.302 186.861 276.304 185.106 273.829 183.677 273.827 185.433"/>
            </g>
            <polygon class="cls-37" points="277.807 179.723 285.62 184.235 285.622 182.48 277.808 177.968 277.807 179.723"/>
            <polygon class="cls-37" points="273.786 177.402 276.261 178.831 276.263 177.076 273.788 175.647 273.786 177.402"/>
            <polygon class="cls-37" points="277.895 222.41 263.175 213.911 263.174 215.666 277.893 224.166 277.895 222.41"/>
            <polygon class="cls-37" points="283.083 225.406 279.441 223.303 279.439 225.058 283.081 227.161 283.083 225.406"/>
            <polygon class="cls-37" points="306.923 227.107 292.204 218.608 292.202 220.363 306.922 228.863 306.923 227.107"/>
            <polygon class="cls-37" points="312.111 230.103 308.469 228 308.467 229.755 312.109 231.858 312.111 230.103"/>
            <polygon class="cls-37" points="267.167 212.204 263.179 209.901 263.178 211.657 267.166 213.959 267.167 212.204"/>
            <polygon class="cls-37" points="290.082 217.401 286.093 215.098 286.092 216.854 290.08 219.156 290.082 217.401"/>
            <polygon class="cls-37" points="276.527 217.608 268.713 213.096 268.711 214.852 276.525 219.364 276.527 217.608"/>
            <polygon class="cls-37" points="280.547 219.929 278.072 218.501 278.07 220.256 280.545 221.685 280.547 219.929"/>
            <polygon class="cls-37" points="289.976 225.366 282.163 220.854 282.161 222.609 289.975 227.121 289.976 225.366"/>
            <polygon class="cls-37" points="293.997 227.687 291.522 226.258 291.52 228.013 293.995 229.442 293.997 227.687"/>
            <polygon class="cls-37" points="290.078 221.413 286.09 219.11 286.088 220.865 290.076 223.168 290.078 221.413"/>
            <polygon class="cls-37" points="299.437 226.817 291.623 222.305 291.621 224.061 299.435 228.572 299.437 226.817"/>
            <polygon class="cls-37" points="303.457 229.138 300.982 227.709 300.981 229.465 303.456 230.894 303.457 229.138"/>
            <polygon class="cls-37" points="271.343 210.603 263.183 205.892 263.181 207.647 271.341 212.358 271.343 210.603"/>
            <polygon class="cls-37" points="278.789 214.903 272.888 211.496 272.887 213.251 278.788 216.658 278.789 214.903"/>
            <polygon class="cls-37" points="284.323 218.098 280.335 215.795 280.333 217.55 284.321 219.853 284.323 218.098"/>
            <polygon class="cls-37" points="311.302 182.999 319.462 187.71 319.463 185.955 311.304 181.243 311.302 182.999"/>
            <polygon class="cls-37" points="303.856 178.699 309.756 182.106 309.758 180.351 303.857 176.944 303.856 178.699"/>
            <polygon class="cls-37" points="298.322 175.504 302.31 177.807 302.312 176.051 298.324 173.748 298.322 175.504"/>
            <polygon class="cls-37" points="307.917 177.017 316.077 181.729 316.078 179.974 307.919 175.262 307.917 177.017"/>
            <polygon class="cls-37" points="300.471 172.718 306.372 176.125 306.373 174.369 300.472 170.962 300.471 172.718"/>
            <polygon class="cls-37" points="294.937 169.523 298.925 171.825 298.927 170.07 294.939 167.767 294.937 169.523"/>
            <polygon class="cls-37" points="279.019 184.438 281.775 186.029 281.776 184.274 279.02 182.683 279.019 184.438"/>
            <polygon class="cls-37" points="273.831 181.443 277.473 183.545 277.475 181.79 273.833 179.687 273.831 181.443"/>
            <polygon class="cls-37" points="271.398 206.617 263.239 201.905 263.237 203.661 271.397 208.372 271.398 206.617"/>
            <polygon class="cls-37" points="278.845 210.916 272.944 207.509 272.942 209.265 278.843 212.672 278.845 210.916"/>
            <polygon class="cls-37" points="284.378 214.112 280.39 211.809 280.388 213.564 284.377 215.867 284.378 214.112"/>
            <polygon class="cls-37" points="265.998 199.487 263.243 197.896 263.241 199.651 265.997 201.242 265.998 199.487"/>
            <polygon class="cls-37" points="271.186 202.483 267.544 200.38 267.543 202.135 271.185 204.238 271.186 202.483"/>
            <polygon class="cls-37" points="278.6 206.763 272.732 203.375 272.73 205.13 278.598 208.518 278.6 206.763"/>
            <polygon class="cls-37" points="280.744 173.381 283.5 174.973 283.501 173.217 280.746 171.626 280.744 173.381"/>
            <polygon class="cls-37" points="275.556 170.386 279.198 172.489 279.2 170.733 275.558 168.63 275.556 170.386"/>
            <polygon class="cls-37" points="268.142 166.105 274.011 169.493 274.012 167.738 268.144 164.35 268.142 166.105"/>
            <polygon class="cls-37" points="285.567 179.89 291.435 183.279 291.437 181.523 285.569 178.135 285.567 179.89"/>
            <polygon class="cls-37" points="276.017 174.663 283.927 179.23 283.929 177.475 276.019 172.908 276.017 174.663"/>
            <polygon class="cls-37" points="271.997 172.342 274.472 173.771 274.473 172.016 271.999 170.587 271.997 172.342"/>
            <polygon class="cls-37" points="268.138 170.114 270.614 171.543 270.615 169.788 268.14 168.359 268.138 170.114"/>
            <g>
              <polygon class="cls-37" points="272.09 192.771 279.904 197.283 279.906 195.528 272.092 191.016 272.09 192.771"/>
              <polygon class="cls-37" points="268.07 190.45 270.545 191.879 270.547 190.124 268.072 188.695 268.07 190.45"/>
              <polygon class="cls-37" points="273.303 197.486 276.058 199.078 276.06 197.322 273.304 195.731 273.303 197.486"/>
              <polygon class="cls-37" points="281.68 194.272 284.436 195.863 284.438 194.108 281.682 192.517 281.68 194.272"/>
              <polygon class="cls-37" points="285.609 196.538 292.221 200.354 292.223 198.599 285.61 194.783 285.609 196.538"/>
              <polygon class="cls-37" points="293.394 201.028 297.327 203.299 297.329 201.544 293.396 199.273 293.394 201.028"/>
              <polygon class="cls-37" points="268.115 194.491 271.757 196.594 271.759 194.838 268.116 192.736 268.115 194.491"/>
              <g>
                <polygon class="cls-37" points="268.433 198.611 271.189 200.202 271.19 198.447 268.434 196.856 268.433 198.611"/>
                <polygon class="cls-37" points="263.245 195.615 266.887 197.718 266.889 195.963 263.247 193.86 263.245 195.615"/>
              </g>
              <polygon class="cls-37" points="277.682 191.966 280.156 193.395 280.158 191.64 277.683 190.211 277.682 191.966"/>
              <polygon class="cls-37" points="273.823 189.738 276.298 191.167 276.3 189.412 273.825 187.983 273.823 189.738"/>
            </g>
            <polygon class="cls-37" points="288.067 169.583 296.509 174.458 296.511 172.702 288.069 167.828 288.067 169.583"/>
            <polygon class="cls-37" points="278.612 164.124 286.522 168.691 286.523 166.936 278.613 162.368 278.612 164.124"/>
            <polygon class="cls-37" points="274.591 161.802 277.066 163.231 277.068 161.476 274.593 160.047 274.591 161.802"/>
            <polygon class="cls-37" points="270.733 159.574 273.208 161.003 273.21 159.248 270.735 157.819 270.733 159.574"/>
            <polygon class="cls-37" points="268.624 158.356 263.284 155.273 263.285 153.518 268.626 156.601 268.624 158.356"/>
          </g>
          <g>
            <polygon class="cls-14" points="330.652 93.86 249.366 46.929 330.65 0 411.936 46.931 330.652 93.86"/>
            <polygon class="cls-36" points="330.652 81.045 271.561 46.929 330.65 12.814 389.741 46.93 330.652 81.045"/>
            <polygon class="cls-15" points="330.65 15.125 387.74 48.086 389.741 46.93 330.65 12.814 271.562 46.929 273.562 48.085 330.65 15.125"/>
            <polygon class="cls-38" points="411.936 46.931 411.936 73.532 330.652 120.461 330.652 93.86 411.936 46.931"/>
            <polygon class="cls-34" points="249.366 46.929 249.366 73.531 330.652 120.461 330.652 93.86 249.366 46.929"/>
            <g class="cls-35">
              <polygon class="cls-36" points="254.873 58.881 254.873 67.258 325.146 107.83 325.146 99.453 254.873 58.881"/>
            </g>
            <polygon class="cls-15" points="330.652 92.335 250.687 46.167 249.366 46.929 330.652 93.86 411.936 46.931 410.615 46.168 330.652 92.335"/>
            <polygon class="cls-36" points="399.743 65.571 399.743 70.333 342.845 103.183 342.845 98.422 399.743 65.571"/>
            <polygon class="cls-39" points="249.366 46.929 249.366 73.531 330.652 120.461 330.652 93.86 249.366 46.929"/>
            <polygon class="cls-37" points="306.923 92.446 292.204 83.947 292.202 85.702 306.922 94.202 306.923 92.446"/>
            <polygon class="cls-37" points="290.082 82.74 286.093 80.437 286.092 82.193 290.08 84.495 290.082 82.74"/>
            <polygon class="cls-37" points="271.398 71.956 263.239 67.245 263.237 69 271.397 73.711 271.398 71.956"/>
            <polygon class="cls-37" points="278.845 76.256 272.944 72.848 272.942 74.604 278.843 78.011 278.845 76.256"/>
            <polygon class="cls-37" points="284.378 79.451 280.39 77.148 280.388 78.903 284.377 81.206 284.378 79.451"/>
            <g>
              <g>
                <polygon class="cls-37" points="330.735 24.528 328.154 23.038 330.735 21.548 333.316 23.038 330.735 24.528"/>
                <polygon class="cls-40" points="335.897 27.509 333.316 26.018 335.897 24.528 338.478 26.018 335.897 27.509"/>
                <polygon class="cls-41" points="341.059 30.489 338.478 28.999 341.059 27.509 343.64 28.999 341.059 30.489"/>
                <polygon class="cls-37" points="346.222 33.47 343.641 31.979 346.222 30.489 348.803 31.979 346.222 33.47"/>
                <polygon class="cls-41" points="351.384 36.45 348.803 34.96 351.384 33.47 353.965 34.96 351.384 36.45"/>
                <polygon class="cls-37" points="356.546 39.43 353.965 37.94 356.546 36.45 359.127 37.94 356.546 39.43"/>
                <polygon class="cls-37" points="361.709 42.411 359.127 40.921 361.708 39.43 364.29 40.921 361.709 42.411"/>
                <polygon class="cls-37" points="366.871 45.391 364.29 43.901 366.871 42.411 369.452 43.901 366.871 45.391"/>
                <polygon class="cls-40" points="372.033 48.372 369.452 46.882 372.033 45.391 374.614 46.882 372.033 48.372"/>
              </g>
              <g>
                <polygon class="cls-37" points="325.552 27.521 322.97 26.03 325.551 24.54 328.133 26.031 325.552 27.521"/>
                <polygon class="cls-37" points="330.714 30.501 328.133 29.011 330.714 27.521 333.295 29.011 330.714 30.501"/>
                <polygon class="cls-37" points="335.876 33.482 333.295 31.991 335.876 30.501 338.457 31.991 335.876 33.482"/>
                <polygon class="cls-37" points="341.038 36.462 338.457 34.972 341.038 33.482 343.619 34.972 341.038 36.462"/>
                <polygon class="cls-37" points="346.201 39.443 343.62 37.952 346.201 36.462 348.782 37.952 346.201 39.443"/>
                <polygon class="cls-37" points="351.363 42.423 348.782 40.933 351.363 39.443 353.944 40.933 351.363 42.423"/>
                <polygon class="cls-37" points="356.525 45.403 353.944 43.913 356.525 42.423 359.106 43.913 356.525 45.403"/>
                <polygon class="cls-37" points="361.688 48.384 359.106 46.894 361.687 45.403 364.269 46.894 361.688 48.384"/>
                <polygon class="cls-37" points="366.85 51.364 364.269 49.874 366.85 48.384 369.431 49.874 366.85 51.364"/>
              </g>
              <g>
                <polygon class="cls-37" points="320.368 30.513 317.787 29.023 320.368 27.533 322.949 29.023 320.368 30.513"/>
                <polygon class="cls-37" points="325.531 33.494 322.95 32.003 325.531 30.513 328.112 32.003 325.531 33.494"/>
                <polygon class="cls-37" points="330.693 36.474 328.112 34.984 330.693 33.494 333.274 34.984 330.693 36.474"/>
                <polygon class="cls-40" points="335.855 39.455 333.274 37.964 335.855 36.474 338.436 37.964 335.855 39.455"/>
                <polygon class="cls-41" points="341.018 42.435 338.436 40.945 341.017 39.455 343.599 40.945 341.018 42.435"/>
                <polygon class="cls-41" points="346.18 45.416 343.599 43.925 346.18 42.435 348.761 43.925 346.18 45.416"/>
                <polygon class="cls-37" points="351.342 48.396 348.761 46.906 351.342 45.416 353.923 46.906 351.342 48.396"/>
                <polygon class="cls-37" points="356.504 51.376 353.923 49.886 356.504 48.396 359.085 49.886 356.504 51.376"/>
                <polygon class="cls-37" points="361.667 54.357 359.086 52.867 361.667 51.376 364.248 52.867 361.667 54.357"/>
              </g>
              <g>
                <polygon class="cls-41" points="315.185 33.506 312.604 32.015 315.185 30.525 317.766 32.016 315.185 33.506"/>
                <polygon class="cls-41" points="320.348 36.486 317.766 34.996 320.347 33.506 322.929 34.996 320.348 36.486"/>
                <polygon class="cls-40" points="325.51 39.467 322.929 37.976 325.51 36.486 328.091 37.976 325.51 39.467"/>
                <polygon class="cls-37" points="330.672 42.447 328.091 40.957 330.672 39.467 333.253 40.957 330.672 42.447"/>
                <polygon class="cls-37" points="335.834 45.428 333.253 43.937 335.834 42.447 338.415 43.937 335.834 45.428"/>
                <polygon class="cls-37" points="340.997 48.408 338.416 46.918 340.997 45.428 343.578 46.918 340.997 48.408"/>
                <polygon class="cls-41" points="346.159 51.388 343.578 49.898 346.159 48.408 348.74 49.898 346.159 51.388"/>
                <polygon class="cls-37" points="351.321 54.369 348.74 52.879 351.321 51.389 353.902 52.879 351.321 54.369"/>
                <polygon class="cls-37" points="356.484 57.349 353.902 55.859 356.483 54.369 359.065 55.859 356.484 57.349"/>
              </g>
              <g>
                <polygon class="cls-37" points="310.002 36.498 307.421 35.008 310.002 33.518 312.583 35.008 310.002 36.498"/>
                <polygon class="cls-37" points="315.164 39.479 312.583 37.988 315.164 36.498 317.745 37.989 315.164 39.479"/>
                <polygon class="cls-37" points="320.327 42.459 317.745 40.969 320.326 39.479 322.908 40.969 320.327 42.459"/>
                <polygon class="cls-37" points="325.489 45.44 322.908 43.949 325.489 42.459 328.07 43.949 325.489 45.44"/>
                <polygon class="cls-37" points="330.651 48.42 328.07 46.93 330.651 45.44 333.232 46.93 330.651 48.42"/>
                <polygon class="cls-37" points="335.813 51.401 333.232 49.91 335.813 48.42 338.395 49.91 335.813 51.401"/>
                <polygon class="cls-37" points="340.976 54.381 338.395 52.891 340.976 51.401 343.557 52.891 340.976 54.381"/>
                <polygon class="cls-37" points="346.138 57.361 343.557 55.871 346.138 54.381 348.719 55.871 346.138 57.361"/>
                <polygon class="cls-37" points="351.3 60.342 348.719 58.852 351.3 57.361 353.881 58.852 351.3 60.342"/>
              </g>
              <g>
                <polygon class="cls-37" points="304.819 39.491 302.238 38.001 304.819 36.51 307.4 38.001 304.819 39.491"/>
                <polygon class="cls-37" points="309.981 42.471 307.4 40.981 309.981 39.491 312.562 40.981 309.981 42.471"/>
                <polygon class="cls-41" points="315.143 45.452 312.562 43.961 315.143 42.471 317.724 43.961 315.143 45.452"/>
                <polygon class="cls-37" points="320.306 48.432 317.725 46.942 320.306 45.452 322.887 46.942 320.306 48.432"/>
                <polygon class="cls-40" points="325.468 51.413 322.887 49.922 325.468 48.432 328.049 49.922 325.468 51.413"/>
                <polygon class="cls-37" points="330.63 54.393 328.049 52.903 330.63 51.413 333.211 52.903 330.63 54.393"/>
                <polygon class="cls-37" points="335.793 57.373 333.211 55.883 335.792 54.393 338.374 55.883 335.793 57.373"/>
                <polygon class="cls-37" points="340.955 60.354 338.374 58.864 340.955 57.374 343.536 58.864 340.955 60.354"/>
                <polygon class="cls-37" points="346.117 63.334 343.536 61.844 346.117 60.354 348.698 61.844 346.117 63.334"/>
              </g>
              <g>
                <polygon class="cls-37" points="299.636 42.483 297.054 40.993 299.636 39.503 302.217 40.993 299.636 42.483"/>
                <polygon class="cls-37" points="304.798 45.464 302.217 43.973 304.798 42.483 307.379 43.974 304.798 45.464"/>
                <polygon class="cls-41" points="309.96 48.444 307.379 46.954 309.96 45.464 312.541 46.954 309.96 48.444"/>
                <polygon class="cls-37" points="315.122 51.425 312.541 49.934 315.122 48.444 317.704 49.934 315.122 51.425"/>
                <polygon class="cls-37" points="320.285 54.405 317.704 52.915 320.285 51.425 322.866 52.915 320.285 54.405"/>
                <polygon class="cls-40" points="325.447 57.386 322.866 55.895 325.447 54.405 328.028 55.895 325.447 57.386"/>
                <polygon class="cls-41" points="330.609 60.366 328.028 58.876 330.609 57.386 333.19 58.876 330.609 60.366"/>
                <polygon class="cls-37" points="335.772 63.346 333.19 61.856 335.772 60.366 338.353 61.856 335.772 63.346"/>
                <polygon class="cls-40" points="340.934 66.327 338.353 64.837 340.934 63.346 343.515 64.837 340.934 66.327"/>
              </g>
              <g>
                <polygon class="cls-37" points="294.452 45.476 291.871 43.986 294.452 42.495 297.034 43.986 294.452 45.476"/>
                <polygon class="cls-41" points="299.615 48.456 297.034 46.966 299.615 45.476 302.196 46.966 299.615 48.456"/>
                <polygon class="cls-37" points="304.777 51.437 302.196 49.946 304.777 48.456 307.358 49.946 304.777 51.437"/>
                <polygon class="cls-37" points="309.939 54.417 307.358 52.927 309.939 51.437 312.52 52.927 309.939 54.417"/>
                <polygon class="cls-37" points="315.102 57.398 312.52 55.907 315.102 54.417 317.683 55.907 315.102 57.398"/>
                <polygon class="cls-37" points="320.264 60.378 317.683 58.888 320.264 57.398 322.845 58.888 320.264 60.378"/>
                <polygon class="cls-37" points="325.426 63.358 322.845 61.868 325.426 60.378 328.007 61.868 325.426 63.358"/>
                <polygon class="cls-41" points="330.588 66.339 328.007 64.849 330.588 63.359 333.17 64.849 330.588 66.339"/>
                <polygon class="cls-37" points="335.751 69.319 333.17 67.829 335.751 66.339 338.332 67.829 335.751 69.319"/>
              </g>
              <g>
                <polygon class="cls-37" points="289.269 48.468 286.688 46.978 289.269 45.488 291.85 46.978 289.269 48.468"/>
                <polygon class="cls-40" points="294.432 51.449 291.85 49.958 294.432 48.468 297.013 49.959 294.432 51.449"/>
                <polygon class="cls-37" points="299.594 54.429 297.013 52.939 299.594 51.449 302.175 52.939 299.594 54.429"/>
                <polygon class="cls-37" points="304.756 57.41 302.175 55.919 304.756 54.429 307.337 55.919 304.756 57.41"/>
                <polygon class="cls-37" points="309.918 60.39 307.337 58.9 309.918 57.41 312.5 58.9 309.918 60.39"/>
                <polygon class="cls-37" points="315.081 63.371 312.5 61.88 315.081 60.39 317.662 61.88 315.081 63.371"/>
                <polygon class="cls-41" points="320.243 66.351 317.662 64.861 320.243 63.371 322.824 64.861 320.243 66.351"/>
                <polygon class="cls-37" points="325.405 69.331 322.824 67.841 325.405 66.351 327.986 67.841 325.405 69.331"/>
                <polygon class="cls-37" points="330.568 72.312 327.986 70.822 330.568 69.331 333.149 70.822 330.568 72.312"/>
              </g>
            </g>
          </g>
        </g>
      </g>
      <g>
        <g>
          <path class="cls-3" d="M71.60956,326.78648a7.08508,7.08508,0,0,1-3.5387-.9449L27.20035,302.24451a2.034,2.034,0,0,1,0-3.523l74.145-42.80756.5375.31041,43.87278,25.33a2.035,2.035,0,0,1,0,3.523L75.14991,325.84158A7.09609,7.09609,0,0,1,71.60956,326.78648ZM101.3453,256.816,27.59086,299.398a1.25272,1.25272,0,0,0,0,2.17l40.87063,23.59708a6.42471,6.42471,0,0,0,6.29792,0l70.60566-40.76423a1.25392,1.25392,0,0,0,0-2.17Z" transform="translate(26.25209 -58.55811)"/>
          <g>
            <g>
              <path class="cls-42" d="M101.436,239.52057,91.59938,181.1619l.791-.333-1.18853-.68139.002.0069a.85549.85549,0,0,0-.916.0632L11.67412,225.60539a2.21937,2.21937,0,0,0-1.02071,1.99691l9.91469,58.8226a.73737.73737,0,0,0,.41419.59867l-.00119.00035,1.16294.672.19984-1.0857-.06642.02012,78.13782-45.11285A2.21965,2.21965,0,0,0,101.436,239.52057Z" transform="translate(26.25209 -58.55811)"/>
              <path class="cls-43" d="M12.11211,227.2012l-1.29243-.57177a1.77778,1.77778,0,0,0-.16627.97287l9.91469,58.8226a.73737.73737,0,0,0,.41419.59867l-.00119.00047,1.16294.67187.19984-1.0857-.06642.02012,3.95395-2.2828Z" transform="translate(26.25209 -58.55811)"/>
              <path class="cls-34" d="M101.64857,242.22505,23.03478,287.61271c-.607.35052-1.12664.14806-1.23328-.48036l-9.91481-58.8226a2.21986,2.21986,0,0,1,1.02083-1.99691L91.5213,180.92517c.607-.35039,1.12664-.14806,1.23328.48037l9.9147,58.8226A2.21953,2.21953,0,0,1,101.64857,242.22505Z" transform="translate(26.25209 -58.55811)"/>
              <g class="cls-35">
                <polygon class="cls-36" points="116.746 126.122 40.968 169.872 50.365 225.27 126.092 181.55 116.746 126.122"/>
              </g>
            </g>
            <g>
              <path class="cls-44" d="M151.06516,270.074l-4.29018,2.24054-43.01929-24.83725a3.12034,3.12034,0,0,0-2.80791.1164L26.75141,290.43086c-.71007-.397-3.94729-1.954-3.94729-1.954l1.57047,4.09178.00631-.00488a.93575.93575,0,0,0,.43906.48715l45.30792,26.15837a3.12019,3.12019,0,0,0,2.808-.11628l75.9262-43.836a1.35779,1.35779,0,0,0,.637-.67723l.00583.00381Z" transform="translate(26.25209 -58.55811)"/>
              <path class="cls-45" d="M150.40187,270.77929l-77.81421,44.9261a3.19909,3.19909,0,0,1-2.8779.11926L23.27508,289.01548c-.73768-.42585-.64508-1.16973.20662-1.6614L101.296,242.428a3.19849,3.19849,0,0,1,2.87778-.11938l46.43467,26.80918C151.34617,269.54363,151.25369,270.2875,150.40187,270.77929Z" transform="translate(26.25209 -58.55811)"/>
              <path class="cls-15" d="M150.40187,270.3307,72.58766,315.25681a3.19909,3.19909,0,0,1-2.8779.11926L23.27508,288.567a.95676.95676,0,0,1-.45108-.5019.78364.78364,0,0,0,.45108.95037l46.43468,26.80917a3.19909,3.19909,0,0,0,2.8779-.11926l77.81421-44.9261c.573-.33088.7935-.77422.6577-1.15961A1.37243,1.37243,0,0,1,150.40187,270.3307Z" transform="translate(26.25209 -58.55811)"/>
              <path class="cls-46" d="M49.11663,305.9872v-.85349c0-.08093.04927-.11806.10985-.08307l3.00989,1.73768a.26353.26353,0,0,1,.10986.21v.85348c0,.08082-.04928.11807-.10986.083L49.22648,306.197A.26326.26326,0,0,1,49.11663,305.9872Z" transform="translate(26.25209 -58.55811)"/>
              <path class="cls-46" d="M53.61748,308.58576v-.85349c0-.08093.04927-.11807.10985-.08308l3.00989,1.73769a.26351.26351,0,0,1,.10985.20995v.85349c0,.08081-.04927.11807-.10985.083l-3.00989-1.73769A.26327.26327,0,0,1,53.61748,308.58576Z" transform="translate(26.25209 -58.55811)"/>
              <path class="cls-47" d="M35.38105,286.50464l64.66384-37.33372a1.39191,1.39191,0,0,1,1.39313.00071l23.02661,13.32246a.49643.49643,0,0,1-.00048.85968L59.83066,300.67a1.39209,1.39209,0,0,1-1.39182.00012L35.38117,287.36456A.49642.49642,0,0,1,35.38105,286.50464Z" transform="translate(26.25209 -58.55811)"/>
              <path class="cls-48" d="M35.38117,287.36456l.23149.13366,64.43223-37.19995a1.39191,1.39191,0,0,1,1.39313.00072l22.79488,13.18832.23137-.13354a.49648.49648,0,0,0,.00036-.85968L101.438,249.17163a1.39191,1.39191,0,0,0-1.39313-.00071L35.38105,286.50464A.49642.49642,0,0,0,35.38117,287.36456Z" transform="translate(26.25209 -58.55811)"/>
              <g>
                <polygon class="cls-34" points="129.428 193.988 73.258 226.417 70.761 224.975 126.93 192.546 129.428 193.988"/>
                <polygon class="cls-34" points="135.551 197.523 82.866 227.94 80.368 226.498 133.053 196.081 135.551 197.523"/>
                <polygon class="cls-34" points="139.539 199.825 77.508 235.639 75.01 234.197 137.041 198.383 139.539 199.825"/>
                <polygon class="cls-34" points="143.527 202.128 81.496 237.941 78.998 236.499 141.029 200.686 143.527 202.128"/>
                <polygon class="cls-34" points="147.515 204.43 85.484 240.244 82.986 238.802 145.017 202.988 147.515 204.43"/>
                <polygon class="cls-34" points="69.864 228.377 67.367 229.818 64.869 228.377 67.367 226.935 69.864 228.377"/>
                <polygon class="cls-34" points="78.674 230.361 73.49 233.354 70.992 231.912 76.176 228.919 78.674 230.361"/>
              </g>
              <path class="cls-49" d="M102.53467,295.53918l17.43566-10.06644a.752.752,0,0,0,0-1.42478l-11.923-6.88374a2.727,2.727,0,0,0-2.46775,0L88.14388,287.23066a.752.752,0,0,0-.00012,1.42478l11.923,6.88374A2.72728,2.72728,0,0,0,102.53467,295.53918Z" transform="translate(26.25209 -58.55811)"/>
              <path class="cls-48" d="M88.14388,287.81362l17.43567-10.06644a2.727,2.727,0,0,1,2.46775,0l11.923,6.88373a1.06936,1.06936,0,0,1,.42835.42086c.1802-.34409.04273-.73185-.42835-1.00381l-11.923-6.88374a2.727,2.727,0,0,0-2.46775,0L88.14388,287.23066c-.4712.27208-.60866.65985-.42835,1.00393A1.06819,1.06819,0,0,1,88.14388,287.81362Z" transform="translate(26.25209 -58.55811)"/>
            </g>
          </g>
          <g class="cls-50">
            <g class="cls-51">
              <g>
                <path class="cls-52" d="M101.37268,242.3355,23.55835,287.26161a3.19878,3.19878,0,0,1-2.87777.11925l-46.43468-26.809c-.73769-.426-.64509-1.16985.20661-1.66152l77.81433-44.9261a3.19848,3.19848,0,0,1,2.87778-.11938L101.5793,240.674C102.317,241.09984,102.2245,241.84371,101.37268,242.3355Z" transform="translate(26.25209 -58.55811)"/>
                <path class="cls-53" d="M23.32674,250.39,40.7624,240.32359a.752.752,0,0,0,.00012-1.42478l-11.923-6.88374a2.727,2.727,0,0,0-2.46775,0L8.936,242.08151a.752.752,0,0,0,0,1.42479L20.859,250.39A2.72707,2.72707,0,0,0,23.32674,250.39Z" transform="translate(26.25209 -58.55811)"/>
                <path class="cls-48" d="M8.936,242.66447,26.37174,232.598a2.727,2.727,0,0,1,2.46775,0l11.923,6.88374a1.06818,1.06818,0,0,1,.42823.42085c.18032-.34409.04285-.73185-.42823-1.00381l-11.923-6.88374a2.727,2.727,0,0,0-2.46775,0L8.936,242.08151c-.47108.27208-.60855.65973-.42824,1.00393A1.06855,1.06855,0,0,1,8.936,242.66447Z" transform="translate(26.25209 -58.55811)"/>
                <g>
                  <path class="cls-47" d="M1.27133,266.12169l64.66373-37.3336a1.39185,1.39185,0,0,1,1.39324.00059l23.02661,13.32247a.49643.49643,0,0,1-.00048.85968L25.72082,280.28705a1.39181,1.39181,0,0,1-1.3917.00012L1.27145,266.98161A.49643.49643,0,0,1,1.27133,266.12169Z" transform="translate(26.25209 -58.55811)"/>
                  <path class="cls-48" d="M1.27145,266.98161l.23149.13366,64.43212-37.19995a1.39212,1.39212,0,0,1,1.39324.00072l22.79488,13.18833.23125-.13354a.49648.49648,0,0,0,.00048-.85968L67.3283,228.78868a1.39214,1.39214,0,0,0-1.39324-.00071L1.27133,266.12169A.49643.49643,0,0,0,1.27145,266.98161Z" transform="translate(26.25209 -58.55811)"/>
                  <g>
                    <polygon class="cls-34" points="110.581 182.644 54.247 215.169 56.479 216.457 112.812 183.933 110.581 182.644"/>
                    <polygon class="cls-34" points="104.645 179.218 51.101 210.131 53.333 211.419 106.877 180.506 104.645 179.218"/>
                    <polygon class="cls-34" points="47.103 212.439 42.102 215.327 44.334 216.615 49.335 213.728 47.103 212.439"/>
                    <polygon class="cls-34" points="51.52 216.743 48.038 218.754 50.269 220.042 53.752 218.032 51.52 216.743"/>
                    <polygon class="cls-34" points="100.926 177.07 38.383 213.18 40.615 214.468 103.158 178.359 100.926 177.07"/>
                    <polygon class="cls-34" points="97.207 174.923 34.664 211.032 36.896 212.321 99.438 176.211 97.207 174.923"/>
                    <polygon class="cls-34" points="93.488 172.776 30.945 208.885 33.176 210.173 95.719 174.064 93.488 172.776"/>
                  </g>
                </g>
              </g>
            </g>
          </g>
        </g>
        <g>
          <polygon class="cls-37" points="69.502 204.149 75.633 200.605 75.813 201.67 69.682 205.213 69.502 204.149"/>
          <polygon class="cls-37" points="76.619 200.04 79.959 198.109 80.139 199.173 76.799 201.104 76.619 200.04"/>
          <polygon class="cls-37" points="85.157 195.109 87.574 193.712 87.754 194.777 85.337 196.174 85.157 195.109"/>
          <polygon class="cls-37" points="83.394 196.128 84.22 195.65 84.4 196.715 83.574 197.192 83.394 196.128"/>
          <polygon class="cls-37" points="80.957 197.536 82.457 196.669 82.637 197.734 81.137 198.601 80.957 197.536"/>
          <polygon class="cls-37" points="74.353 196.007 76.77 194.609 76.95 195.674 74.532 197.071 74.353 196.007"/>
          <polygon class="cls-37" points="68.681 199.285 73.416 196.548 73.596 197.612 68.86 200.349 68.681 199.285"/>
          <g>
            <polygon class="cls-37" points="75.47 182.031 80.206 179.294 80.385 180.359 75.65 183.096 75.47 182.031"/>
            <polygon class="cls-37" points="73.033 183.439 74.533 182.573 74.713 183.637 73.213 184.504 73.033 183.439"/>
          </g>
          <polygon class="cls-37" points="76.26 186.902 80.996 184.165 81.176 185.229 76.44 187.966 76.26 186.902"/>
          <polygon class="cls-37" points="73.824 188.31 75.324 187.443 75.503 188.507 74.004 189.374 73.824 188.31"/>
          <polygon class="cls-37" points="71.974 161.014 63.053 166.17 62.874 165.105 71.795 159.949 71.974 161.014"/>
          <polygon class="cls-37" points="75.118 159.197 72.911 160.472 72.731 159.408 74.939 158.132 75.118 159.197"/>
          <polygon class="cls-37" points="90.795 158.162 81.874 163.318 81.694 162.254 90.615 157.097 90.795 158.162"/>
          <polygon class="cls-37" points="93.939 156.345 91.732 157.621 91.552 156.556 93.759 155.28 93.939 156.345"/>
          <polygon class="cls-37" points="65.881 167.204 63.464 168.601 63.284 167.537 65.701 166.14 65.881 167.204"/>
          <polygon class="cls-37" points="80.586 164.05 78.169 165.447 77.989 164.383 80.406 162.986 80.586 164.05"/>
          <polygon class="cls-37" points="71.553 163.926 66.818 166.663 66.638 165.598 71.373 162.861 71.553 163.926"/>
          <polygon class="cls-37" points="73.99 162.518 72.49 163.385 72.31 162.32 73.81 161.453 73.99 162.518"/>
          <polygon class="cls-37" points="79.706 159.22 74.97 161.957 74.79 160.892 79.526 158.155 79.706 159.22"/>
          <polygon class="cls-37" points="82.142 157.812 80.642 158.679 80.462 157.614 81.962 156.747 82.142 157.812"/>
          <polygon class="cls-37" points="80.175 161.617 77.758 163.014 77.578 161.95 79.995 160.553 80.175 161.617"/>
          <polygon class="cls-37" points="85.847 158.339 81.112 161.076 80.932 160.011 85.668 157.274 85.847 158.339"/>
          <polygon class="cls-37" points="88.284 156.931 86.784 157.798 86.604 156.733 88.104 155.866 88.284 156.931"/>
          <polygon class="cls-37" points="68.82 168.175 63.875 171.033 63.695 169.968 68.64 167.11 68.82 168.175"/>
          <polygon class="cls-37" points="73.333 165.567 69.757 167.633 69.577 166.569 73.153 164.502 73.333 165.567"/>
          <polygon class="cls-37" points="76.687 163.628 74.27 165.025 74.09 163.961 76.507 162.564 76.687 163.628"/>
          <polygon class="cls-37" points="100.127 152.779 95.182 155.637 95.002 154.573 99.947 151.715 100.127 152.779"/>
          <polygon class="cls-37" points="104.64 150.171 101.063 152.238 100.884 151.173 104.46 149.106 104.64 150.171"/>
          <polygon class="cls-37" points="107.993 148.233 105.576 149.63 105.397 148.565 107.813 147.168 107.993 148.233"/>
          <polygon class="cls-37" points="98.195 184.912 103.141 182.054 103.321 183.118 98.375 185.977 98.195 184.912"/>
          <polygon class="cls-37" points="93.683 187.52 97.259 185.453 97.439 186.518 93.862 188.585 93.683 187.52"/>
          <polygon class="cls-37" points="90.329 189.458 92.746 188.062 92.926 189.126 90.509 190.523 90.329 189.458"/>
          <polygon class="cls-37" points="96.554 188.54 101.499 185.681 101.679 186.746 96.734 189.604 96.554 188.54"/>
          <polygon class="cls-37" points="92.041 191.148 95.617 189.081 95.797 190.146 92.221 192.212 92.041 191.148"/>
          <polygon class="cls-37" points="88.687 193.086 91.104 191.689 91.284 192.754 88.867 194.151 88.687 193.086"/>
          <polygon class="cls-37" points="76.586 184.042 78.256 183.077 78.436 184.141 76.766 185.107 76.586 184.042"/>
          <polygon class="cls-37" points="73.442 185.859 75.649 184.584 75.829 185.648 73.622 186.924 73.442 185.859"/>
          <polygon class="cls-37" points="69.263 170.592 64.317 173.45 64.138 172.386 69.083 169.528 69.263 170.592"/>
          <polygon class="cls-37" points="73.776 167.984 70.199 170.051 70.019 168.986 73.596 166.919 73.776 167.984"/>
          <polygon class="cls-37" points="77.129 166.046 74.712 167.443 74.532 166.378 76.949 164.981 77.129 166.046"/>
          <polygon class="cls-37" points="66.398 174.917 64.728 175.882 64.548 174.818 66.218 173.852 66.398 174.917"/>
          <polygon class="cls-37" points="69.542 173.1 67.335 174.375 67.155 173.311 69.363 172.035 69.542 173.1"/>
          <polygon class="cls-37" points="74.036 170.503 70.479 172.558 70.299 171.494 73.856 169.438 74.036 170.503"/>
          <polygon class="cls-37" points="78.859 190.747 80.529 189.782 80.709 190.847 79.038 191.812 78.859 190.747"/>
          <polygon class="cls-37" points="75.714 192.565 77.922 191.289 78.102 192.354 75.894 193.629 75.714 192.565"/>
          <polygon class="cls-37" points="71.221 195.162 74.778 193.106 74.958 194.171 71.401 196.226 71.221 195.162"/>
          <polygon class="cls-37" points="81.403 186.799 84.959 184.744 85.139 185.809 81.582 187.864 81.403 186.799"/>
          <polygon class="cls-37" points="75.586 189.971 80.379 187.2 80.559 188.264 75.765 191.035 75.586 189.971"/>
          <polygon class="cls-37" points="73.149 191.379 74.649 190.512 74.829 191.576 73.329 192.443 73.149 191.379"/>
          <polygon class="cls-37" points="70.811 192.73 72.311 191.863 72.49 192.928 70.99 193.795 70.811 192.73"/>
          <g>
            <polygon class="cls-37" points="71.132 178.989 75.868 176.252 76.047 177.316 71.312 180.054 71.132 178.989"/>
            <polygon class="cls-37" points="68.695 180.397 70.195 179.53 70.375 180.595 68.875 181.462 68.695 180.397"/>
            <polygon class="cls-37" points="71.458 176.129 73.128 175.164 73.308 176.229 71.638 177.194 71.458 176.129"/>
            <polygon class="cls-37" points="77.355 178.078 79.025 177.113 79.205 178.177 77.534 179.142 77.355 178.078"/>
            <polygon class="cls-37" points="79.736 176.703 83.744 174.388 83.923 175.453 79.916 177.768 79.736 176.703"/>
            <polygon class="cls-37" points="84.455 173.979 86.839 172.602 87.018 173.666 84.635 175.044 84.455 173.979"/>
            <polygon class="cls-37" points="68.314 177.947 70.521 176.671 70.701 177.735 68.494 179.011 68.314 177.947"/>
            <g>
              <polygon class="cls-37" points="68.106 175.448 69.776 174.483 69.956 175.547 68.286 176.512 68.106 175.448"/>
              <polygon class="cls-37" points="64.962 177.265 67.169 175.989 67.349 177.054 65.141 178.33 64.962 177.265"/>
            </g>
            <polygon class="cls-37" points="74.931 179.477 76.431 178.61 76.611 179.674 75.111 180.541 74.931 179.477"/>
            <polygon class="cls-37" points="72.593 180.828 74.093 179.961 74.272 181.026 72.772 181.893 72.593 180.828"/>
          </g>
          <polygon class="cls-37" points="84.114 193.05 89.23 190.093 89.41 191.158 84.294 194.115 84.114 193.05"/>
          <polygon class="cls-37" points="78.383 196.362 83.177 193.591 83.357 194.656 78.563 197.427 78.383 196.362"/>
          <polygon class="cls-37" points="75.947 197.77 77.447 196.904 77.626 197.968 76.127 198.835 75.947 197.77"/>
          <polygon class="cls-37" points="73.608 199.122 75.108 198.255 75.288 199.319 73.788 200.187 73.608 199.122"/>
          <polygon class="cls-37" points="72.33 199.861 69.094 201.731 69.273 202.796 72.51 200.925 72.33 199.861"/>
        </g>
      </g>
      <g>
        <g>
          <path class="cls-3" d="M533.34589,326.78648a7.09613,7.09613,0,0,1-3.54036-.9449l-70.60578-40.76422a2.03516,2.03516,0,0,1,0-3.523l44.411-25.64041.19471.11284,73.94964,42.69472a2.034,2.034,0,0,1,0,3.523l-40.87063,23.59707A7.0846,7.0846,0,0,1,533.34589,326.78648Zm-3.14985-1.6214a6.42471,6.42471,0,0,0,6.29792,0L577.36459,301.568a1.25284,1.25284,0,0,0,0-2.17l-73.755-42.582-.14818.08475-43.87112,25.33011a1.254,1.254,0,0,0,0,2.17Z" transform="translate(26.25209 -58.55811)"/>
          <g>
            <g>
              <path class="cls-54" d="M503.51945,239.52057l9.8365-58.35867-.79089-.333,1.18841-.68139-.0019.0069a.85526.85526,0,0,1,.91585.0632l78.61379,45.38779a2.21976,2.21976,0,0,1,1.02083,1.99691l-9.91482,58.8226a.73736.73736,0,0,1-.41418.59867l.00131.00035-1.16306.672-.19972-1.0857.06629.02012-78.1377-45.11285A2.21938,2.21938,0,0,1,503.51945,239.52057Z" transform="translate(26.25209 -58.55811)"/>
              <path class="cls-55" d="M592.84321,227.2012l1.29244-.57177a1.77787,1.77787,0,0,1,.16627.97287l-9.9147,58.8226a.73736.73736,0,0,1-.41418.59867l.00131.00047-1.16306.67187-.19972-1.0857.06629.02012-3.95395-2.2828Z" transform="translate(26.25209 -58.55811)"/>
              <path class="cls-34" d="M503.30676,242.22505l78.6139,45.38766c.60688.35052,1.12664.14806,1.23328-.48036l9.9147-58.8226a2.21976,2.21976,0,0,0-1.02072-1.99691L513.434,180.92517c-.60688-.35039-1.12664-.14806-1.23328.48037l-9.91469,58.8226A2.21976,2.21976,0,0,0,503.30676,242.22505Z" transform="translate(26.25209 -58.55811)"/>
              <g class="cls-35">
                <polygon class="cls-36" points="540.714 126.122 616.491 169.872 607.094 225.27 531.368 181.55 540.714 126.122"/>
              </g>
            </g>
            <g>
              <path class="cls-56" d="M453.89016,270.074l4.29019,2.24054,43.01929-24.83725a3.1206,3.1206,0,0,1,2.808.1164l74.19625,42.83719c.71007-.397,3.94728-1.954,3.94728-1.954l-1.57034,4.09178-.00631-.00488a.93626.93626,0,0,1-.43906.48715l-45.308,26.15837a3.1202,3.1202,0,0,1-2.808-.11628l-75.9262-43.836a1.357,1.357,0,0,1-.63688-.67723l-.00595.00381Z" transform="translate(26.25209 -58.55811)"/>
              <path class="cls-57" d="M454.55346,270.77929l77.81433,44.9261a3.19881,3.19881,0,0,0,2.87777.11926l46.43468-26.80917c.73769-.42585.64521-1.16973-.20662-1.6614L503.6593,242.428a3.19848,3.19848,0,0,0-2.87778-.11938l-46.43468,26.80918C453.60916,269.54363,453.70176,270.2875,454.55346,270.77929Z" transform="translate(26.25209 -58.55811)"/>
              <path class="cls-15" d="M454.55346,270.3307l77.81433,44.92611a3.19882,3.19882,0,0,0,2.87777.11926L581.68024,288.567a.95678.95678,0,0,0,.45109-.5019.78364.78364,0,0,1-.45109.95037l-46.43468,26.80917a3.19882,3.19882,0,0,1-2.87777-.11926l-77.81433-44.9261c-.573-.33088-.79338-.77422-.6577-1.15961A1.37294,1.37294,0,0,0,454.55346,270.3307Z" transform="translate(26.25209 -58.55811)"/>
              <path class="cls-46" d="M555.8387,305.9872v-.85349c0-.08093-.04916-.11806-.10986-.08307l-3.00977,1.73768a.26319.26319,0,0,0-.10985.21v.85348c0,.08082.04915.11807.10985.083l3.00977-1.73769A.26294.26294,0,0,0,555.8387,305.9872Z" transform="translate(26.25209 -58.55811)"/>
              <path class="cls-46" d="M551.33785,308.58576v-.85349c0-.08093-.04915-.11807-.10985-.08308l-3.00977,1.73769a.26318.26318,0,0,0-.10986.20995v.85349c0,.08081.04916.11807.10986.083l3.00977-1.73769A.26294.26294,0,0,0,551.33785,308.58576Z" transform="translate(26.25209 -58.55811)"/>
              <path class="cls-47" d="M569.57428,286.50464l-64.66373-37.33372a1.39189,1.39189,0,0,0-1.39312.00071l-23.02661,13.32246a.49644.49644,0,0,0,.00035.85968L545.12479,300.67a1.39184,1.39184,0,0,0,1.39169.00012l23.0578-13.30556A.49643.49643,0,0,0,569.57428,286.50464Z" transform="translate(26.25209 -58.55811)"/>
              <path class="cls-48" d="M569.57428,287.36456l-.23161.13366-64.43212-37.19995a1.39212,1.39212,0,0,0-1.39324.00072l-22.79476,13.18832-.23138-.13354a.49644.49644,0,0,1-.00035-.85968l23.02649-13.32246a1.39212,1.39212,0,0,1,1.39324-.00071l64.66373,37.33372A.49643.49643,0,0,1,569.57428,287.36456Z" transform="translate(26.25209 -58.55811)"/>
              <g>
                <polygon class="cls-34" points="528.032 193.988 584.201 226.417 586.699 224.975 530.529 192.546 528.032 193.988"/>
                <polygon class="cls-34" points="521.909 197.523 574.594 227.94 577.091 226.498 524.406 196.081 521.909 197.523"/>
                <polygon class="cls-34" points="517.921 199.825 579.952 235.639 582.449 234.197 520.418 198.383 517.921 199.825"/>
                <polygon class="cls-34" points="513.933 202.128 575.964 237.941 578.461 236.499 516.43 200.686 513.933 202.128"/>
                <polygon class="cls-34" points="509.945 204.43 571.976 240.244 574.473 238.802 512.442 202.988 509.945 204.43"/>
                <polygon class="cls-34" points="587.595 228.377 590.093 229.818 592.59 228.377 590.093 226.935 587.595 228.377"/>
                <polygon class="cls-34" points="578.786 230.361 583.97 233.354 586.467 231.912 581.283 228.919 578.786 230.361"/>
              </g>
              <path class="cls-58" d="M502.42078,295.53918l-17.43566-10.06644a.752.752,0,0,1-.00012-1.42478l11.923-6.88374a2.727,2.727,0,0,1,2.46775,0l17.43578,10.06644a.752.752,0,0,1,0,1.42478l-11.923,6.88374A2.727,2.727,0,0,1,502.42078,295.53918Z" transform="translate(26.25209 -58.55811)"/>
              <path class="cls-48" d="M516.81156,287.81362l-17.43578-10.06644a2.727,2.727,0,0,0-2.46775,0l-11.923,6.88373a1.0683,1.0683,0,0,0-.42824.42086c-.18031-.34409-.04284-.73185.42824-1.00381l11.923-6.88374a2.727,2.727,0,0,1,2.46775,0l17.43578,10.06644c.47108.27208.60855.65985.42824,1.00393A1.06855,1.06855,0,0,0,516.81156,287.81362Z" transform="translate(26.25209 -58.55811)"/>
            </g>
          </g>
          <g class="cls-50">
            <g class="cls-59">
              <g>
                <path class="cls-60" d="M503.58265,242.3355,581.397,287.26161a3.19878,3.19878,0,0,0,2.87777.11925l46.43468-26.809c.73768-.426.64521-1.16985-.20662-1.66152l-77.81432-44.9261a3.19848,3.19848,0,0,0-2.87778-.11938L503.376,240.674C502.63835,241.09984,502.73094,241.84371,503.58265,242.3355Z" transform="translate(26.25209 -58.55811)"/>
                <path class="cls-61" d="M581.62859,250.39l-17.43567-10.06645a.752.752,0,0,1,0-1.42478l11.92292-6.88374a2.72726,2.72726,0,0,1,2.46787,0l17.43566,10.06644a.752.752,0,0,1,0,1.42479L584.09646,250.39A2.72733,2.72733,0,0,1,581.62859,250.39Z" transform="translate(26.25209 -58.55811)"/>
                <path class="cls-48" d="M596.01937,242.66447,578.58371,232.598a2.72726,2.72726,0,0,0-2.46787,0l-11.92292,6.88374a1.06792,1.06792,0,0,0-.42835.42085c-.18019-.34409-.04284-.73185.42835-1.00381l11.92292-6.88374a2.72726,2.72726,0,0,1,2.46787,0l17.43566,10.06644c.47108.27208.60867.65973.42835,1.00393A1.06961,1.06961,0,0,0,596.01937,242.66447Z" transform="translate(26.25209 -58.55811)"/>
                <g>
                  <path class="cls-47" d="M603.68412,266.12169l-64.66385-37.3336a1.39163,1.39163,0,0,0-1.39312.00059l-23.02661,13.32247a.49648.49648,0,0,0,.00035.85968l64.63362,37.31622a1.392,1.392,0,0,0,1.39181.00012L603.684,266.98161A.49647.49647,0,0,0,603.68412,266.12169Z" transform="translate(26.25209 -58.55811)"/>
                  <path class="cls-48" d="M603.684,266.98161l-.23161.13366-64.43212-37.19995a1.39189,1.39189,0,0,0-1.39312.00072l-22.79488,13.18833-.23138-.13354a.49648.49648,0,0,1-.00035-.85968l23.02661-13.32247a1.39192,1.39192,0,0,1,1.39312-.00071l64.66385,37.33372A.49647.49647,0,0,1,603.684,266.98161Z" transform="translate(26.25209 -58.55811)"/>
                  <g>
                    <polygon class="cls-34" points="546.879 182.644 603.212 215.169 600.981 216.457 544.647 183.933 546.879 182.644"/>
                    <polygon class="cls-34" points="552.814 179.218 606.358 210.131 604.127 211.419 550.583 180.506 552.814 179.218"/>
                    <polygon class="cls-34" points="610.356 212.439 615.357 215.327 613.126 216.615 608.125 213.728 610.356 212.439"/>
                    <polygon class="cls-34" points="605.94 216.743 609.422 218.754 607.19 220.042 603.708 218.032 605.94 216.743"/>
                    <polygon class="cls-34" points="556.533 177.07 619.076 213.18 616.845 214.468 554.302 178.359 556.533 177.07"/>
                    <polygon class="cls-34" points="560.253 174.923 622.796 211.032 620.564 212.321 558.021 176.211 560.253 174.923"/>
                    <polygon class="cls-34" points="563.972 172.776 626.515 208.885 624.283 210.173 561.74 174.064 563.972 172.776"/>
                  </g>
                </g>
              </g>
            </g>
          </g>
        </g>
        <g>
          <polygon class="cls-37" points="557.396 146.931 563.527 150.474 563.707 149.41 557.576 145.867 557.396 146.931"/>
          <polygon class="cls-37" points="564.513 151.04 567.854 152.971 568.033 151.906 564.693 149.976 564.513 151.04"/>
          <polygon class="cls-37" points="573.051 155.971 575.468 157.368 575.648 156.303 573.231 154.906 573.051 155.971"/>
          <polygon class="cls-37" points="571.288 154.952 572.114 155.429 572.294 154.365 571.468 153.888 571.288 154.952"/>
          <polygon class="cls-37" points="568.852 153.544 570.352 154.411 570.531 153.346 569.032 152.479 568.852 153.544"/>
          <polygon class="cls-37" points="562.247 155.073 564.664 156.47 564.844 155.406 562.427 154.009 562.247 155.073"/>
          <polygon class="cls-37" points="556.575 151.795 561.31 154.532 561.49 153.467 556.755 150.73 556.575 151.795"/>
          <g>
            <polygon class="cls-37" points="563.364 169.048 568.1 171.786 568.28 170.721 563.544 167.984 563.364 169.048"/>
            <polygon class="cls-37" points="560.928 167.64 562.428 168.507 562.607 167.443 561.108 166.576 560.928 167.64"/>
          </g>
          <polygon class="cls-37" points="564.155 164.178 568.89 166.915 569.07 165.851 564.334 163.114 564.155 164.178"/>
          <polygon class="cls-37" points="561.718 162.77 563.218 163.637 563.398 162.572 561.898 161.705 561.718 162.77"/>
          <polygon class="cls-37" points="559.869 190.066 550.948 184.91 550.768 185.975 559.689 191.131 559.869 190.066"/>
          <polygon class="cls-37" points="563.013 191.883 560.805 190.608 560.626 191.672 562.833 192.948 563.013 191.883"/>
          <polygon class="cls-37" points="578.689 192.918 569.768 187.762 569.589 188.826 578.51 193.982 578.689 192.918"/>
          <polygon class="cls-37" points="581.833 194.735 579.626 193.459 579.446 194.524 581.654 195.799 581.833 194.735"/>
          <polygon class="cls-37" points="553.775 183.875 551.358 182.479 551.179 183.543 553.596 184.94 553.775 183.875"/>
          <polygon class="cls-37" points="568.48 187.03 566.063 185.633 565.884 186.697 568.301 188.094 568.48 187.03"/>
          <polygon class="cls-37" points="559.448 187.154 554.712 184.417 554.532 185.481 559.268 188.218 559.448 187.154"/>
          <polygon class="cls-37" points="561.884 188.562 560.384 187.695 560.204 188.76 561.704 189.627 561.884 188.562"/>
          <polygon class="cls-37" points="567.6 191.86 562.864 189.123 562.685 190.187 567.42 192.924 567.6 191.86"/>
          <polygon class="cls-37" points="570.036 193.268 568.536 192.401 568.357 193.466 569.857 194.333 570.036 193.268"/>
          <polygon class="cls-37" points="568.069 189.463 565.653 188.066 565.473 189.13 567.89 190.527 568.069 189.463"/>
          <polygon class="cls-37" points="573.742 192.741 569.006 190.004 568.826 191.068 573.562 193.806 573.742 192.741"/>
          <polygon class="cls-37" points="576.178 194.149 574.678 193.282 574.499 194.347 575.998 195.214 576.178 194.149"/>
          <polygon class="cls-37" points="556.714 182.905 551.769 180.047 551.589 181.111 556.535 183.969 556.714 182.905"/>
          <polygon class="cls-37" points="561.227 185.513 557.651 183.446 557.471 184.511 561.047 186.578 561.227 185.513"/>
          <polygon class="cls-37" points="564.581 187.452 562.164 186.055 561.984 187.119 564.401 188.516 564.581 187.452"/>
          <polygon class="cls-37" points="588.021 198.301 583.076 195.442 582.896 196.507 587.841 199.365 588.021 198.301"/>
          <polygon class="cls-37" points="592.534 200.909 588.958 198.842 588.778 199.907 592.354 201.973 592.534 200.909"/>
          <polygon class="cls-37" points="595.888 202.847 593.471 201.45 593.291 202.515 595.708 203.912 595.888 202.847"/>
          <polygon class="cls-37" points="586.09 166.168 591.035 169.026 591.215 167.961 586.27 165.103 586.09 166.168"/>
          <polygon class="cls-37" points="581.577 163.56 585.153 165.627 585.333 164.562 581.757 162.495 581.577 163.56"/>
          <polygon class="cls-37" points="578.223 161.621 580.64 163.018 580.82 161.954 578.403 160.557 578.223 161.621"/>
          <polygon class="cls-37" points="584.448 162.54 589.393 165.398 589.573 164.334 584.628 161.476 584.448 162.54"/>
          <polygon class="cls-37" points="579.935 159.932 583.512 161.999 583.691 160.934 580.115 158.867 579.935 159.932"/>
          <polygon class="cls-37" points="576.582 157.994 578.999 159.391 579.179 158.326 576.762 156.929 576.582 157.994"/>
          <polygon class="cls-37" points="564.481 167.038 566.151 168.003 566.331 166.938 564.66 165.973 564.481 167.038"/>
          <polygon class="cls-37" points="561.336 165.22 563.544 166.496 563.724 165.432 561.516 164.156 561.336 165.22"/>
          <polygon class="cls-37" points="557.157 180.488 552.212 177.629 552.032 178.694 556.977 181.552 557.157 180.488"/>
          <polygon class="cls-37" points="561.67 183.096 558.094 181.029 557.914 182.093 561.49 184.16 561.67 183.096"/>
          <polygon class="cls-37" points="565.023 185.034 562.606 183.637 562.427 184.702 564.844 186.099 565.023 185.034"/>
          <polygon class="cls-37" points="554.293 176.163 552.622 175.198 552.443 176.262 554.113 177.227 554.293 176.163"/>
          <polygon class="cls-37" points="557.437 177.98 555.229 176.704 555.05 177.769 557.257 179.045 557.437 177.98"/>
          <polygon class="cls-37" points="561.93 180.577 558.373 178.521 558.194 179.586 561.75 181.641 561.93 180.577"/>
          <polygon class="cls-37" points="566.753 160.332 568.423 161.298 568.603 160.233 566.933 159.268 566.753 160.332"/>
          <polygon class="cls-37" points="563.609 158.515 565.816 159.791 565.996 158.726 563.789 157.451 563.609 158.515"/>
          <polygon class="cls-37" points="559.116 155.918 562.672 157.974 562.852 156.909 559.295 154.854 559.116 155.918"/>
          <polygon class="cls-37" points="569.297 164.28 572.853 166.336 573.033 165.271 569.477 163.216 569.297 164.28"/>
          <polygon class="cls-37" points="563.48 161.109 568.274 163.88 568.454 162.815 563.66 160.045 563.48 161.109"/>
          <polygon class="cls-37" points="561.043 159.701 562.543 160.568 562.723 159.503 561.223 158.637 561.043 159.701"/>
          <polygon class="cls-37" points="558.705 158.349 560.205 159.216 560.385 158.152 558.885 157.285 558.705 158.349"/>
          <g>
            <polygon class="cls-37" points="559.026 172.091 563.762 174.828 563.942 173.763 559.206 171.026 559.026 172.091"/>
            <polygon class="cls-37" points="556.59 170.683 558.09 171.55 558.269 170.485 556.769 169.618 556.59 170.683"/>
            <polygon class="cls-37" points="559.352 174.95 561.022 175.916 561.202 174.851 559.532 173.886 559.352 174.95"/>
            <polygon class="cls-37" points="565.249 173.002 566.919 173.967 567.099 172.903 565.429 171.937 565.249 173.002"/>
            <polygon class="cls-37" points="567.63 174.376 571.638 176.691 571.818 175.627 567.81 173.312 567.63 174.376"/>
            <polygon class="cls-37" points="572.349 177.101 574.733 178.478 574.913 177.413 572.529 176.036 572.349 177.101"/>
            <polygon class="cls-37" points="556.208 173.133 558.415 174.409 558.595 173.344 556.388 172.069 556.208 173.133"/>
            <g>
              <polygon class="cls-37" points="556 175.632 557.67 176.597 557.85 175.533 556.18 174.567 556 175.632"/>
              <polygon class="cls-37" points="552.856 173.815 555.063 175.09 555.243 174.026 553.036 172.75 552.856 173.815"/>
            </g>
            <polygon class="cls-37" points="562.825 171.603 564.325 172.47 564.505 171.405 563.005 170.538 562.825 171.603"/>
            <polygon class="cls-37" points="560.487 170.251 561.987 171.118 562.167 170.054 560.667 169.187 560.487 170.251"/>
          </g>
          <polygon class="cls-37" points="572.008 158.03 577.124 160.987 577.304 159.922 572.188 156.965 572.008 158.03"/>
          <polygon class="cls-37" points="566.278 154.718 571.071 157.488 571.251 156.424 566.457 153.653 566.278 154.718"/>
          <polygon class="cls-37" points="563.841 153.309 565.341 154.176 565.521 153.112 564.021 152.245 563.841 153.309"/>
          <polygon class="cls-37" points="561.503 151.958 563.003 152.825 563.182 151.76 561.682 150.893 561.503 151.958"/>
          <polygon class="cls-37" points="560.224 151.219 556.988 149.349 557.168 148.284 560.404 150.155 560.224 151.219"/>
        </g>
      </g>
      <path class="cls-3" d="M202.93333,378.59025a5.92255,5.92255,0,0,1-2.96562-.79267l-88.19545-50.91922a1.88548,1.88548,0,0,1,0-3.26494l77.51154-44.75091.3905.67639-77.51154,44.751a1.10378,1.10378,0,0,0,0,1.91194l88.19546,50.91922a5.15769,5.15769,0,0,0,5.14962,0l45.70568-26.38773.39051.67651-45.70569,26.38772A5.93287,5.93287,0,0,1,202.93333,378.59025Z" transform="translate(26.25209 -58.55811)"/>
      <g>
        <circle class="cls-62" cx="156.30572" cy="352.01644" r="11.15845" transform="translate(-99.44694 31.12196) rotate(-23.1267)"/>
        <path class="cls-63" d="M158.925,350.48531a3.03391,3.03391,0,1,0-1.08808,4.15034A3.03387,3.03387,0,0,0,158.925,350.48531Z" transform="translate(26.25209 -58.55811)"/>
      </g>
      <g>
        <circle class="cls-64" cx="235.52995" cy="359.75272" r="11.15845" transform="translate(-96.11891 62.86021) rotate(-23.1267)"/>
        <path class="cls-65" d="M238.14921,358.22159a3.03391,3.03391,0,1,0-1.08819,4.15033A3.03391,3.03391,0,0,0,238.14921,358.22159Z" transform="translate(26.25209 -58.55811)"/>
      </g>
      <g>
        <circle class="cls-66" cx="371.43443" cy="358.86007" r="11.15845" transform="translate(-84.84683 116.16709) rotate(-23.1267)"/>
        <path class="cls-67" d="M374.05369,357.32894a3.03391,3.03391,0,1,0-1.08819,4.15034A3.03387,3.03387,0,0,0,374.05369,357.32894Z" transform="translate(26.25209 -58.55811)"/>
      </g>
      <g>
        <path class="cls-68" d="M395.6723,361.78325a11.15839,11.15839,0,1,0-4.00191,15.26451A11.15844,11.15844,0,0,0,395.6723,361.78325Z" transform="translate(26.25209 -58.55811)"/>
        <circle class="cls-69" cx="386.03915" cy="367.41461" r="3.0339" transform="translate(-41.01068 589.1012) rotate(-75.30959)"/>
      </g>
      <g>
        <circle class="cls-70" cx="465.68031" cy="344.35045" r="11.15836" transform="translate(-77.6682 180.95655) rotate(-26.05267)"/>
        <path class="cls-71" d="M468.29952,342.81938a3.03388,3.03388,0,1,0-1.08808,4.15033A3.03388,3.03388,0,0,0,468.29952,342.81938Z" transform="translate(26.25209 -58.55811)"/>
      </g>
      <g>
        <path class="cls-72" d="M494.10714,311.14623a11.15841,11.15841,0,1,0-4.00192,15.26451A11.15845,11.15845,0,0,0,494.10714,311.14623Z" transform="translate(26.25209 -58.55811)"/>
        <path class="cls-73" d="M487.09319,315.24646a3.0339,3.0339,0,1,0-1.08808,4.15033A3.03386,3.03386,0,0,0,487.09319,315.24646Z" transform="translate(26.25209 -58.55811)"/>
      </g>
      <g>
        <path class="cls-74" d="M476.92368,301.00992a11.15842,11.15842,0,1,0-4.00192,15.26439A11.15838,11.15838,0,0,0,476.92368,301.00992Z" transform="translate(26.25209 -58.55811)"/>
        <path class="cls-75" d="M469.90973,305.11a3.0339,3.0339,0,1,0-1.08808,4.15033A3.03387,3.03387,0,0,0,469.90973,305.11Z" transform="translate(26.25209 -58.55811)"/>
      </g>
      <g>
        <path class="cls-76" d="M459.74022,291.58011a11.15842,11.15842,0,1,0-4.00192,15.26451A11.15845,11.15845,0,0,0,459.74022,291.58011Z" transform="translate(26.25209 -58.55811)"/>
        <path class="cls-77" d="M452.72627,295.68034a3.03391,3.03391,0,1,0-1.08808,4.15033A3.03388,3.03388,0,0,0,452.72627,295.68034Z" transform="translate(26.25209 -58.55811)"/>
      </g>
      <g>
        <path class="cls-78" d="M152.05517,338.30437a11.15837,11.15837,0,1,0-4.0018,15.2645A11.15857,11.15857,0,0,0,152.05517,338.30437Z" transform="translate(26.25209 -58.55811)"/>
        <circle class="cls-79" cx="142.42202" cy="343.93572" r="3.0339" transform="translate(-200.13609 335.92315) rotate(-75.30959)"/>
      </g>
      <g>
        <circle class="cls-80" cx="128.53832" cy="335.85494" r="11.15841" transform="translate(-202.68251 316.46005) rotate(-75.30931)"/>
        <path class="cls-81" d="M131.15746,334.32388a3.03387,3.03387,0,1,0-1.08808,4.15021A3.03387,3.03387,0,0,0,131.15746,334.32388Z" transform="translate(26.25209 -58.55811)"/>
      </g>
      <g>
        <path class="cls-82" d="M171.89991,288.56547A11.15842,11.15842,0,1,0,167.898,303.83,11.15838,11.15838,0,0,0,171.89991,288.56547Z" transform="translate(26.25209 -58.55811)"/>
        <path class="cls-83" d="M164.886,292.66569a3.03388,3.03388,0,1,0-1.08808,4.15034A3.034,3.034,0,0,0,164.886,292.66569Z" transform="translate(26.25209 -58.55811)"/>
      </g>
      <g>
        <path class="cls-84" d="M186.73273,280.76706a11.15844,11.15844,0,1,0-4.00192,15.26451A11.15845,11.15845,0,0,0,186.73273,280.76706Z" transform="translate(26.25209 -58.55811)"/>
        <path class="cls-85" d="M179.71866,284.86729a3.0339,3.0339,0,1,0-1.08807,4.15033A3.03384,3.03384,0,0,0,179.71866,284.86729Z" transform="translate(26.25209 -58.55811)"/>
      </g>
    </g>
  </g>
</svg>
