<svg id="Object" xmlns="http://www.w3.org/2000/svg" width="874.90909" height="833.46409" viewBox="0 0 874.90909 833.46409">
  <defs>
    <style>
      .cls-1 {
        fill: #f3cc30;
      }

      .cls-2 {
        fill: #f7db5e;
      }

      .cls-3 {
        fill: #edbd31;
      }
    </style>
  </defs>
  <g>
    <path class="cls-1" d="M573.58979,152.09412,697.89411,403.96228a14.03976,14.03976,0,0,0,10.571,7.68038l277.953,40.38885a14.03966,14.03966,0,0,1,7.781,23.94732L793.07041,672.031a14.03924,14.03924,0,0,0-4.03771,12.42689l47.48,276.83a14.03969,14.03969,0,0,1-20.3708,14.80028L567.533,845.3868a14.03946,14.03946,0,0,0-13.06637,0L305.8578,976.08814a14.03969,14.03969,0,0,1-20.3708-14.80028l47.48013-276.83a14.03971,14.03971,0,0,0-4.03784-12.42689L127.80055,475.97883a14.0397,14.0397,0,0,1,7.781-23.94732l277.953-40.38885a14.03981,14.03981,0,0,0,10.571-7.68038L548.41,152.09412A14.03968,14.03968,0,0,1,573.58979,152.09412Z" transform="translate(-123.54546 -144.26795)"/>
    <path class="cls-2" d="M560.99985,210.27186l-110.773,214.56058a37.07989,37.07989,0,0,1-29.5771,19.916L180.13907,466.70374,434.244,478.58633a37.07962,37.07962,0,0,0,36.51168-24.18289Z" transform="translate(-123.54546 -144.26795)"/>
    <path class="cls-3" d="M290.95015,929.433l-5.46275,31.85478A14.03942,14.03942,0,0,0,305.8582,976.088L554.46666,845.38693a14.03946,14.03946,0,0,1,13.06637,0L816.14163,976.088a14.03942,14.03942,0,0,0,20.3708-14.80028L789.0327,684.45761a14.04249,14.04249,0,0,1,4.03731-12.427L994.19888,475.97883a14.03938,14.03938,0,0,0-7.78112-23.94745L893.31908,438.5033C742.74166,708.73475,512.16759,851.01127,290.95015,929.433Z" transform="translate(-123.54546 -144.26795)"/>
  </g>
</svg>
