<svg xmlns="http://www.w3.org/2000/svg" xmlns:xlink="http://www.w3.org/1999/xlink" width="5167.0844" height="3317.92041" viewBox="0 0 5167.0844 3317.92041">
  <defs>
    <style>
      .cls-1 {
        fill: none;
      }

      .cls-2 {
        isolation: isolate;
      }

      .cls-3 {
        clip-path: url(#clip-path);
      }

      .cls-4 {
        fill: #1aa0a3;
      }

      .cls-11, .cls-5 {
        fill: #011627;
      }

      .cls-10, .cls-5 {
        opacity: 0.15;
        mix-blend-mode: multiply;
      }

      .cls-6 {
        fill: #fff;
      }

      .cls-7 {
        fill: #b2b2b2;
      }

      .cls-8 {
        fill: #cbcbcb;
      }

      .cls-9 {
        fill: #e9ecef;
      }

      .cls-12 {
        fill: #cf9e76;
      }

      .cls-13 {
        fill: #efcfb3;
      }

      .cls-14 {
        fill: #67737d;
      }

      .cls-15 {
        fill: #989898;
      }

      .cls-16 {
        fill: #f5e0cd;
      }

      .cls-17 {
        clip-path: url(#clip-path-2);
      }

      .cls-18 {
        fill: #343a40;
      }

      .cls-19 {
        fill: #6c757d;
      }

      .cls-20 {
        opacity: 0.6;
      }
    </style>
    <clipPath id="clip-path" transform="translate(1064.2915 794.3478)">
      <rect class="cls-1" width="3000" height="2100.00002"/>
    </clipPath>
    <clipPath id="clip-path-2" transform="translate(1064.2915 794.3478)">
      <circle class="cls-1" cx="1394.83928" cy="1079.61313" r="262.53458"/>
    </clipPath>
  </defs>
  <g class="cls-2">
    <g id="Layer_1" data-name="Layer 1">
      <g class="cls-3">
        <rect class="cls-4" x="1064.2915" y="794.3478" width="3000" height="2100.00002"/>
        <g>
          <rect class="cls-5" x="889.5354" y="514.5541" width="1260.9291" height="927.8661" transform="translate(3562.7786 252.835) rotate(90)"/>
          <rect class="cls-6" x="869.5354" y="495.5541" width="1260.9291" height="927.8661" transform="translate(3523.7786 253.835) rotate(90)"/>
          <g>
            <path class="cls-7" d="M1110.1093,479.4867h-18.8545v-7.7798h47.5937v7.7798h-18.7627v51.1626h-9.9765Z" transform="translate(1064.2915 794.3478)"/>
            <path class="cls-7" d="M1140.5878,525.89q-6.13335-5.674-6.1328-17.0239,0-10.70805,5.4004-16.6118,5.3994-5.9034,16.0166-5.9034,9.6108,0,14.7363,5.0342,5.124,5.03475,5.125,13.4541v8.0542h-31.7598q.73245,6.22485,4.4854,8.6489,3.7515,2.42655,11.8066,2.4258a36.62334,36.62334,0,0,0,6.7276-.6406,35.5901,35.5901,0,0,0,6.0859-1.6475v7.3218q-5.76555,2.56125-14.8271,2.5625Q1146.71915,531.5643,1140.5878,525.89Zm26.3584-19.4951v-3.02q0-4.66785-2.5625-7.0933-2.5635-2.4243-8.2373-2.4253-6.7734,0-9.4727,2.9287-2.6997,2.9304-2.7002,9.6099Z" transform="translate(1064.2915 794.3478)"/>
            <path class="cls-7" d="M1185.4335,487.2665h9.1533l.5489,5.0337a39.98918,39.98918,0,0,1,7.413-3.6612,41.10123,41.10123,0,0,1,8.5118-2.2881v7.5967a65.94071,65.94071,0,0,0-8.5118,2.2422,32.08521,32.08521,0,0,0-7.1386,3.1577v31.3018h-9.9766Z" transform="translate(1064.2915 794.3478)"/>
            <path class="cls-7" d="M1219.0224,487.2665h9.1523l.458,4.5761a24.10912,24.10912,0,0,1,15.2842-5.4917,15.21617,15.21617,0,0,1,7.1387,1.419,9.7635,9.7635,0,0,1,4.1191,4.2558,26.53579,26.53579,0,0,1,7.2764-4.1645,25.55342,25.55342,0,0,1,9.1064-1.5103q7.5045,0,11.0752,3.8443,3.56985,3.84375,3.5694,11.8066v28.6475h-9.793V503.0086q0-4.94235-2.1055-7.0014-2.10645-2.05965-6.8642-2.0596a16.33552,16.33552,0,0,0-5.9493,1.0982,11.94027,11.94027,0,0,0-4.7587,3.2949,18.16949,18.16949,0,0,1,.457,4.4848v27.8238h-9.2442V503.1q0-4.9425-1.6933-7.0474-1.69485-2.1042-6.1777-2.105-5.7657,0-11.2579,5.1255v31.5762h-9.7929Z" transform="translate(1064.2915 794.3478)"/>
            <path class="cls-7" d="M1303.3163,530.9696a32.5351,32.5351,0,0,1-6.7734-1.6016v-8.4204a34.18362,34.18362,0,0,0,6.7275,1.8306,42.611,42.611,0,0,0,7.2764.6406q5.30715,0,7.4131-.915a3.51362,3.51362,0,0,0,2.1054-3.5699,3.81942,3.81942,0,0,0-1.9218-3.5234,38.36289,38.36289,0,0,0-7.2305-2.7915l-2.7461-.9155q-6.5904-2.1966-9.6104-4.8965-3.0204-2.699-3.0205-8.0083,0-6.1311,4.3936-9.2901,4.39305-3.15735,13.7285-3.1577a44.22765,44.22765,0,0,1,7.002.5494,37.72015,37.72015,0,0,1,5.9033,1.373v8.3286a27.57957,27.57957,0,0,0-5.5371-1.5561,33.05412,33.05412,0,0,0-5.8125-.5489,22.34013,22.34013,0,0,0-7.3213.8692,3.22449,3.22449,0,0,0-2.2881,3.2495,3.45087,3.45087,0,0,0,1.7383,3.1577,37.59408,37.59408,0,0,0,6.8652,2.6997l2.0137.6406a41.74838,41.74838,0,0,1,8.2363,3.3409,10.88292,10.88292,0,0,1,4.2559,4.1186,13.0018,13.0018,0,0,1,1.3281,6.2695q0,12.723-18.2139,12.7217A59.569,59.569,0,0,1,1303.3163,530.9696Z" transform="translate(1064.2915 794.3478)"/>
            <path class="cls-7" d="M1377.5878,527.4003a13.08006,13.08006,0,0,1-5.7207-11.1207,15.79534,15.79534,0,0,1,3.4775-10.2504,34.23692,34.23692,0,0,1,10.3428-8.0542,32.04525,32.04525,0,0,1-5.9492-6.6358,12.90228,12.90228,0,0,1-1.9219-7.0019,12.59951,12.59951,0,0,1,4.1641-9.7471q4.16445-3.79695,11.3037-3.7983,7.04595,0,11.166,3.7065a12.59435,12.59435,0,0,1,4.1191,9.8389,14.24978,14.24978,0,0,1-2.2431,8.0547,25.61717,25.61717,0,0,1-7.3672,6.7724l13.5459,13.8203a17.06042,17.06042,0,0,0,1.4639-7.3218v-1.5561h7.5966v1.7393a25.753,25.753,0,0,1-.915,6.8183,21.52528,21.52528,0,0,1-2.4717,5.812l7.4141,7.5049-6.041,5.4917-6.5899-6.5898q-6.40725,6.6819-20.0439,6.6811Q1383.3071,531.5643,1377.5878,527.4003Zm29.333-8.0088-15.2842-15.4678a20.40162,20.40162,0,0,0-7.6884,5.0801,10.52132,10.52132,0,0,0-2.4708,7.0927,7.22526,7.22526,0,0,0,3.1573,6.3155,14.22025,14.22025,0,0,0,8.2832,2.1967Q1402.0688,524.6087,1406.9208,519.3915Zm-8.0996-29.3335a7.79129,7.79129,0,0,0,1.6934-5.2627q0-6.95445-7.2305-6.9561-3.75435,0-5.583,1.9219a6.99455,6.99455,0,0,0-1.8311,5.0342,8.186,8.186,0,0,0,1.6016,4.9424,29.119,29.119,0,0,0,5.2637,5.1254A29.566,29.566,0,0,0,1398.8212,490.058Z" transform="translate(1064.2915 794.3478)"/>
            <path class="cls-7" d="M1474.4657,523.7391q-7.5966-7.8252-7.5957-21.6455,0-14.9172,7.3213-23.1103,7.32135-8.19,22.0576-8.1914a51.72557,51.72557,0,0,1,17.2989,2.8374v8.6948a45.37142,45.37142,0,0,0-16.5664-3.0205q-10.708,0-15.376,5.6748-4.66845,5.67555-4.668,17.1152,0,10.4334,4.9883,15.7422,4.9878,5.30925,15.2392,5.3086a45.75689,45.75689,0,0,0,16.4747-2.8374v8.7861a57.542,57.542,0,0,1-17.2989,2.4712Q1482.063,531.5643,1474.4657,523.7391Z" transform="translate(1064.2915 794.3478)"/>
            <path class="cls-7" d="M1517.3905,508.9579q0-22.60545,22.6065-22.607,22.6977,0,22.6982,22.607,0,22.60755-22.6982,22.6064Q1517.39005,531.5643,1517.3905,508.9579Zm32.3545,10.8916q2.88285-3.2952,2.8828-10.8916,0-7.50375-2.8828-10.8003-2.8842-3.29445-9.748-3.2945-6.7734,0-9.6563,3.2945-2.8827,3.2952-2.8828,10.8003,0,7.5981,2.8828,10.8916,2.88285,3.29445,9.6563,3.2949Q1546.8613,523.1444,1549.745,519.8495Z" transform="translate(1064.2915 794.3478)"/>
            <path class="cls-7" d="M1572.3964,487.2665h9.1523l.458,4.5761a25.79168,25.79168,0,0,1,7.2305-3.9814,25.31943,25.31943,0,0,1,8.7861-1.5103q8.41995,0,12.2647,3.9356,3.84375,3.93675,3.8437,12.2646v28.0982h-9.8847V503.0086q0-5.03235-2.1055-7.0473-2.10645-2.012-7.6875-2.0137a17.7656,17.7656,0,0,0-12.081,4.9424v31.7593h-9.9766Z" transform="translate(1064.2915 794.3478)"/>
            <path class="cls-7" d="M1628.6376,526.5765q-5.171-4.9878-5.1709-16.2456a29.20736,29.20736,0,0,1,2.6543-12.9971,19.03086,19.03086,0,0,1,7.3213-8.1914,20.46665,20.46665,0,0,1,10.709-2.7915,24.651,24.651,0,0,1,6.956.9156,21.30994,21.30994,0,0,1,5.9492,2.8369V468.9613h9.9756v61.688h-8.5117l-.6406-4.3018a19.20129,19.20129,0,0,1-6.4981,3.9815,24.33453,24.33453,0,0,1-8.1455,1.2353Q1633.80855,531.5643,1628.6376,526.5765Zm28.4189-7.0932V497.7919a15.60835,15.60835,0,0,0-10.7998-3.8443q-6.31635,0-9.5195,4.21-3.20355,4.2114-3.2031,12.2646,0,7.59825,2.8828,10.6167,2.88285,3.02055,9.4736,3.0205A14.99863,14.99863,0,0,0,1657.0565,519.4833Z" transform="translate(1064.2915 794.3478)"/>
            <path class="cls-7" d="M1685.1532,494.8631h-6.5898l.915-7.5966h15.6514v43.3828h-9.9766Zm-.8242-24.895h10.8916v8.2373H1684.329Z" transform="translate(1064.2915 794.3478)"/>
            <path class="cls-7" d="M1712.9765,527.9491q-3.4791-3.61455-3.4776-10.2051V495.0458h-6.4072v-7.7793h6.4072v-9.9766l9.8848-3.02v12.9966h11.5312l-.6406,7.7793h-10.8906v22.1494q0,3.7536,1.6934,5.2627,1.69185,1.5102,5.7197,1.5102a16.485,16.485,0,0,0,5.2168-.9155V530.1a22.94209,22.94209,0,0,1-8.6944,1.4643Q1716.45505,531.5643,1712.9765,527.9491Z" transform="translate(1064.2915 794.3478)"/>
            <path class="cls-7" d="M1746.5653,494.8631h-6.5898l.916-7.5966h15.6504v43.3828h-9.9766Zm-.8232-24.895h10.8916v8.2373h-10.8916Z" transform="translate(1064.2915 794.3478)"/>
            <path class="cls-7" d="M1766.3349,508.9579q0-22.60545,22.6074-22.607,22.69635,0,22.6973,22.607,0,22.60755-22.6973,22.6064Q1766.33385,531.5643,1766.3349,508.9579Zm32.3535,10.8916q2.8842-3.2952,2.8838-10.8916,0-7.50375-2.8838-10.8003-2.88285-3.29445-9.7461-3.2945-6.7764,0-9.6563,3.2945-2.8827,3.2952-2.8828,10.8003,0,7.5981,2.8828,10.8916,2.88285,3.29445,9.6563,3.2949Q1795.8066,523.1444,1798.6884,519.8495Z" transform="translate(1064.2915 794.3478)"/>
            <path class="cls-7" d="M1821.3407,487.2665h9.1524l.459,4.5761a25.77574,25.77574,0,0,1,7.2304-3.9814,25.31435,25.31435,0,0,1,8.7852-1.5103q8.41995,0,12.2656,3.9356,3.84375,3.93675,3.8438,12.2646v28.0982h-9.8848V503.0086q0-5.03235-2.1055-7.0473-2.10645-2.012-7.6875-2.0137a17.76551,17.76551,0,0,0-12.082,4.9424v31.7593h-9.9766Z" transform="translate(1064.2915 794.3478)"/>
            <path class="cls-7" d="M1880.1903,530.9696a32.5083,32.5083,0,0,1-6.7724-1.6016v-8.4204a34.18362,34.18362,0,0,0,6.7275,1.8306,42.6083,42.6083,0,0,0,7.2754.6406q5.30865,0,7.4141-.915a3.515,3.515,0,0,0,2.1054-3.5699,3.81942,3.81942,0,0,0-1.9218-3.5234,38.392,38.392,0,0,0-7.2305-2.7915l-2.7461-.9155q-6.5904-2.1966-9.6104-4.8965-3.0204-2.699-3.0205-8.0083,0-6.1311,4.3926-9.2901,4.39455-3.15735,13.7295-3.1577a44.20571,44.20571,0,0,1,7.001.5494,37.70786,37.70786,0,0,1,5.9043,1.373v8.3286a27.57957,27.57957,0,0,0-5.5371-1.5561,33.062,33.062,0,0,0-5.8125-.5489,22.35117,22.35117,0,0,0-7.3223.8692,3.22478,3.22478,0,0,0-2.2871,3.2495,3.449,3.449,0,0,0,1.7383,3.1577,37.59408,37.59408,0,0,0,6.8652,2.6997l2.0127.6406a41.73544,41.73544,0,0,1,8.2373,3.3409,10.88292,10.88292,0,0,1,4.2559,4.1186,13.01268,13.01268,0,0,1,1.3271,6.2695q0,12.723-18.2138,12.7217A59.59,59.59,0,0,1,1880.1903,530.9696Z" transform="translate(1064.2915 794.3478)"/>
          </g>
          <g>
            <g>
              <rect class="cls-8" x="2406.5619" y="1394.052" width="318.426" height="18.6333"/>
              <rect class="cls-8" x="2197.6146" y="1447.0445" width="736.3206" height="18.6315"/>
              <rect class="cls-8" x="2197.6146" y="1496.2319" width="736.3206" height="18.6315"/>
              <rect class="cls-8" x="2197.6146" y="1545.4193" width="736.3206" height="18.6316"/>
              <rect class="cls-8" x="2197.6146" y="1594.8916" width="736.3206" height="18.6316"/>
            </g>
            <g>
              <rect class="cls-8" x="2325.5974" y="1658.0783" width="608.3378" height="18.6316"/>
              <rect class="cls-8" x="2197.6146" y="1707.2657" width="736.3206" height="18.6316"/>
              <rect class="cls-8" x="2197.6146" y="1756.4531" width="736.3206" height="18.6316"/>
              <rect class="cls-8" x="2197.6146" y="1805.6405" width="736.3206" height="18.6316"/>
              <rect class="cls-8" x="2197.6146" y="1854.8279" width="427.5788" height="18.6316"/>
              <rect class="cls-8" x="2197.6146" y="1918.4429" width="736.3206" height="18.6316"/>
              <rect class="cls-8" x="2197.6145" y="1967.6303" width="736.3208" height="18.6316"/>
            </g>
          </g>
          <g>
            <g>
              <rect class="cls-8" x="2339.8392" y="2155.2629" width="213.7893" height="18.6316"/>
              <rect class="cls-8" x="2339.8392" y="2204.4503" width="160.2258" height="18.6316"/>
            </g>
            <g>
              <rect class="cls-8" x="2197.6146" y="2132.4568" width="113.4313" height="113.4312"/>
              <path class="cls-7" d="M1174.6103,1429.2019l-26.5274-26.5277a4.99974,4.99974,0,1,1,7.0703-7.0711l19.4571,19.4567,50.3144-50.3138a4.9997,4.9997,0,0,1,7.0703,7.071Z" transform="translate(1064.2915 794.3478)"/>
            </g>
          </g>
          <g>
            <rect class="cls-8" x="2603.5898" y="2227.2564" width="330.3454" height="18.6316"/>
            <path class="cls-7" d="M1629.5113,1289.4878c10.8106,8.1664,17.8708,20.6404,21.2062,33.6117,4.0184,15.6274,3.0907,32.5098-.5406,48.1254-3.046,13.0986-9.8391,27.3826-23.4832,31.9876a20.97919,20.97919,0,0,1-16.8953-1.1859c-5.261-2.8419-8.7612-7.6321-8.937-13.8586-.2036-7.2148,3.3532-14.03,7.5539-19.6709a50.29622,50.29622,0,0,1,15.2906-13.3788c10.9323-6.2981,23.4467-9.1432,35.392-13.2764a93.22924,93.22924,0,0,0,17.4877-7.7543c5.5013-3.2914,11.2752-7.6706,14.4283-13.3795,1.7413-3.1529,2.815-7.0572,1.6454-10.597-1.177-3.5625-4.0464-5.6271-7.8521-4.901-3.2945.6286-6.4882,3.1828-8.7264,5.5642a35.23148,35.23148,0,0,0-5.5827,8.1554c-2.9429,5.7675-5.9043,12.3006-3.1089,18.6783a15.95931,15.95931,0,0,0,10.6557,8.6591c6.7617,1.5865,13.9279-2.3475,19.1056-6.3263a46.71992,46.71992,0,0,0,16.9657-25.7845h-5.7857c1.1617,4.2618,2.3682,8.5128,3.6672,12.7349,1.1282,3.6666,2.1459,7.7183,4.0461,11.0817,1.0231,1.8109,2.9268,2.9818,4.9637,1.9074a9.684,9.684,0,0,0,2.5404-2.2598,67.1123,67.1123,0,0,0,7.6712-10.9352c2.9104-5.0592,5.3744-10.52,6.0693-16.3601q-2.94645.3987-5.8929.7975c1.6273,9.5543,4.1054,20.0208,12.7459,25.6764a2.98639,2.98639,0,0,0,3.8701-.7727,3.0592,3.0592,0,0,0-.2346-3.9391l-.0022-.0026q.3858.6618.7716,1.3238a4.93166,4.93166,0,0,1,.0104,1.5303c.0078-.0313.0234-.0601.0318-.091.0792-.29-.4391.9289-.1592.3829.1802-.3514.3437-.7114.5261-1.0621.6172-1.1865,1.288-2.3457,1.981-3.4893q1.55265-2.56245,3.2743-5.0174,1.0119-1.4487,2.0748-2.8609c.1663-.221.3353-.44.5017-.661.3173-.4214-.033.0422-.0831.1064q.164-.2103.3281-.4205.64065-.81675,1.2982-1.62a87.63253,87.63253,0,0,1,12.4717-12.5331c.3084-.2505.6198-.497.9309-.7441.11-.0874.577-.4459.1286-.1026q.21225-.1623.4253-.3235.966-.7293,1.9561-1.4258,2.01-1.413,4.1189-2.6779,2.2065-1.32,4.5172-2.4547,1.0749-.526,2.1707-1.0081.25905-.11385.5194-.2251c-.4908.2087.0791-.0312.2004-.0797.4413-.1766.8825-.3523,1.3273-.5198a52.97366,52.97366,0,0,1,5.6546-1.7795q1.43085-.36285,2.8812-.6428.73335-.14145,1.4706-.2612.2967-.04815.5938-.0928c.0172-.0026.9639-.1281.3996-.058a52.312,52.312,0,0,1,12.9924.0415c1.6103.2026,3-1.5239,3-3a3.07492,3.07492,0,0,0-3-3c-15.2901-1.9239-30.2645,3.1353-42.3614,12.4079a94.244,94.244,0,0,0-22.713,25.4996c-.8208,1.3365-1.6149,2.6937-2.331,4.0896-.8852,1.7253-1.5941,3.2269-.1494,5.0142q1.8177-2.3559,3.6354-4.7117a18.87419,18.87419,0,0,1-6.8044-9.1285,68.11935,68.11935,0,0,1-3.1841-12.9621,2.97074,2.97074,0,0,0-3.2916-2.1489,3.05913,3.05913,0,0,0-2.6012,2.9464c-.1091.9163.1337-.5864-.0528.3351-.0387.1911-.068.3846-.1056.576-.1063.5413-.2325,1.0783-.3731,1.6117-.2816,1.068-.6245,2.1193-1.0086,3.1546a46.64543,46.64543,0,0,1-2.7415,5.9148c-1.0691,1.9874-2.236,3.9224-3.4814,5.8041q-.8409,1.27035-1.7322,2.5064c-.2592.3589-.5246.7129-.7879,1.0687-.0932.1259-.4466.5837-.0615.087q-.2169.27975-.4379.5563a31.63626,31.63626,0,0,1-2.4626,2.747c-.5564.5512.4538-.2867.1268-.089-.0468.0283-.0931.0553-.1417.0805a2.79479,2.79479,0,0,1,2.4215-.1294c.1278.0546.988.6931.7709.4749-.2764-.2778.3643.6693.2769.3666a3.595,3.595,0,0,0-.3376-.5653c-.137-.2544-.2545-.5179-.3773-.7791-.0646-.1373-.1218-.2781-.1829-.4169.3189.7242.1057.253.035.0696-.3119-.8094-.6204-1.6184-.9084-2.4369-.6769-1.9238-1.2962-3.868-1.8971-5.8167-1.317-4.271-2.5378-8.572-3.7132-12.8839-.7666-2.8125-5.063-2.9009-5.7857,0a40.78691,40.78691,0,0,1-8.885,17.081c-4.2643,4.845-10.1021,9.6562-16.6342,10.7877a11.79324,11.79324,0,0,1-2.3694.163c-.1529-.0049-.3183-.0363-.47-.027-.4196.0256.6476.1701.0296-.0064-.4013-.1147-.8126-.1872-1.2117-.3158-.1981-.0638-.3912-.1439-.5892-.2067-.4647-.1473.4358.2232-.189-.0795-.4507-.2184-.8947-.4438-1.325-.701q-.3081-.1842-.6069-.3835a5.91531,5.91531,0,0,0-.4894-.3371c.2581.1986-.2833-.2413-.3691-.3167q-.33135-.29115-.6437-.603-.2697-.2706-.5231-.5573c-.0849-.0963-.1657-.196-.2497-.293-.2938-.3394.2522.3661-.0054-.0055a12.86243,12.86243,0,0,1-.8298-1.3351c-.0809-.1537-.3885-.8815-.1981-.3799-.1137-.2994-.2165-.602-.304-.9101-.0768-.2706-.1386-.5436-.1966-.8187-.0294-.1394-.0554-.2813-.0753-.4224.009.064.0409.4296.0217.0724a12.41558,12.41558,0,0,1,.028-2.1608c.0423-.3516.0181-.0892.0064-.0206.0287-.1685.0628-.3362.0984-.5034q.11085-.5211.2608-1.0323c.2416-.8286.5635-1.6305.8817-2.4319.5374-1.3536,1.0983-2.6454,1.7716-4.0267a31.76272,31.76272,0,0,1,4.8165-7.5114,16.98817,16.98817,0,0,1,3.1366-2.7771,14.17385,14.17385,0,0,1,2.0095-1.142,4.20251,4.20251,0,0,1,.7984-.2816c.0709-.016.6229-.0515.2456-.1002a2.19423,2.19423,0,0,1,.4004.1037c.4488.1499-.4345-.1532-.0349.0106.0465.0191-.1597-.0669-.1272-.1458-.0115.0278-.153-.3239-.0187-.0123.0726.1684.1899.3208.2689.4874a4.90636,4.90636,0,0,1,.2649.7952,6.65684,6.65684,0,0,1-.3916,3.7297c-.9787,2.8453-3.1649,5.2013-5.3529,7.2359-8.8695,8.2471-20.8179,12.0357-32.2892,15.6538-12.3481,3.8947-24.9678,7.7762-35.3219,15.8496a54.38436,54.38436,0,0,0-14.1984,16.6152c-3.642,6.6622-5.8481,14.637-3.8678,22.1695,3.4978,13.305,18.9164,19.473,31.4151,15.9215,14.486-4.1163,23.3987-17.546,27.5377-31.2685a117.9453,117.9453,0,0,0,4.2508-23.3962,104.96407,104.96407,0,0,0-.6336-24.9408c-2.1139-14.1832-8.0138-27.9807-17.8456-38.5403a59.82532,59.82532,0,0,0-7.787-6.9399c-1.2938-.9773-3.3548-.2058-4.1046,1.0763a3.07358,3.07358,0,0,0,1.0762,4.1045Z" transform="translate(1064.2915 794.3478)"/>
          </g>
        </g>
        <g>
          <rect class="cls-5" x="-411.20991" y="-242.02358" width="1260.92908" height="927.86606" transform="translate(1552.86791 858.83371) rotate(104.34814)"/>
          <rect class="cls-9" x="-425.87767" y="-265.38724" width="1260.92914" height="927.86612" transform="translate(1511.93047 843.89049) rotate(104.34814)"/>
          <g>
            <g>
              <rect class="cls-8" x="159.88061" y="-258.42666" width="318.42598" height="18.63332" transform="translate(1012.51201 707.50199) rotate(14.34813)"/>
              <rect class="cls-8" x="-62.19866" y="-207.08713" width="736.32057" height="18.63156" transform="translate(1024.82476 712.35758) rotate(14.34814)"/>
              <rect class="cls-8" x="-74.38796" y="-159.43393" width="736.32062" height="18.63145" transform="translate(1036.25363 716.86465) rotate(14.34814)"/>
              <rect class="cls-8" x="-86.57725" y="-111.78082" width="736.32061" height="18.6316" transform="translate(1047.68251 721.37177) rotate(14.34813)"/>
              <rect class="cls-8" x="-98.83716" y="-63.85162" width="736.32062" height="18.63155" transform="translate(1059.17757 725.9049) rotate(14.34814)"/>
            </g>
            <g>
              <rect class="cls-8" x="11.49112" y="13.22202" width="608.3378" height="18.63161" transform="translate(1079.72278 716.82611) rotate(14.34814)"/>
              <rect class="cls-8" x="-126.68491" y="45.01727" width="736.32057" height="18.63156" transform="translate(1085.28808 736.2018) rotate(14.34814)"/>
              <rect class="cls-8" x="-138.87421" y="92.67037" width="736.32062" height="18.63167" transform="translate(1096.71694 740.70887) rotate(14.34814)"/>
              <rect class="cls-8" x="-151.0635" y="140.32351" width="736.32061" height="18.63162" transform="translate(1108.1458 745.21594) rotate(14.34814)"/>
              <rect class="cls-8" x="-158.4376" y="149.72153" width="427.5788" height="18.6316" transform="translate(1105.4296 785.59161) rotate(14.34815)"/>
              <rect class="cls-8" x="-179.0174" y="249.60736" width="736.32061" height="18.63162" transform="translate(1134.35579 755.55209) rotate(14.34813)"/>
              <rect class="cls-8" x="-191.20676" y="297.26052" width="736.32078" height="18.63161" transform="translate(1145.78468 760.05915) rotate(14.34814)"/>
              <rect class="cls-8" x="-206.23231" y="352.39447" width="736.32057" height="18.63156" transform="translate(1158.97892 765.50244) rotate(14.34814)"/>
              <rect class="cls-8" x="-218.42171" y="400.04756" width="736.32082" height="18.63162" transform="translate(1170.40781 770.00951) rotate(14.34814)"/>
            </g>
          </g>
          <g>
            <g>
              <rect class="cls-8" x="-117.98617" y="558.02951" width="213.78935" height="18.63157" transform="translate(1204.54113 814.79313) rotate(14.34814)"/>
              <rect class="cls-8" x="-129.34004" y="599.04578" width="160.22579" height="18.6316" transform="translate(1213.5158 825.52297) rotate(14.34812)"/>
            </g>
            <g>
              <rect class="cls-8" x="-260.30393" y="486.77612" width="113.43131" height="113.43121" transform="translate(1192.6253 861.75216) rotate(14.34811)"/>
              <path class="cls-7" d="M-227.0546,572.9734l-19.1261-32.2741a4.99932,4.99932,0,0,1,1.7524-6.8506,4.99911,4.99911,0,0,1,6.8497,1.7522l14.0286,23.6715,61.2134-36.2758a4.999,4.999,0,0,1,6.8498,1.7521,4.999,4.999,0,0,1-1.7523,6.8504Z" transform="translate(1064.2915 794.3478)"/>
            </g>
          </g>
        </g>
        <g>
          <rect class="cls-5" x="-907.95547" y="422.91269" width="1260.92914" height="927.86611" transform="translate(1708.74462 1564.93608) rotate(65.4382)"/>
          <rect class="cls-9" x="-934.04357" y="413.94539" width="1260.92914" height="927.86611" transform="translate(1685.3448 1583.42374) rotate(65.4382)"/>
          <g>
            <g>
              <rect class="cls-8" x="-654.86214" y="448.30406" width="318.42599" height="18.63327" transform="translate(829.22058 629.72757) rotate(-24.56181)"/>
              <rect class="cls-8" x="-841.78221" y="496.5015" width="736.32057" height="18.6315" transform="translate(811.17972 643.24489) rotate(-24.5618)"/>
              <rect class="cls-8" x="-821.33626" y="541.23811" width="736.32061" height="18.63148" transform="translate(794.43398 655.79183) rotate(-24.5618)"/>
              <rect class="cls-8" x="-800.89031" y="585.97469" width="736.32061" height="18.63162" transform="translate(777.68818 668.33876) rotate(-24.5618)"/>
              <rect class="cls-8" x="-780.32591" y="630.97039" width="736.32061" height="18.63162" transform="translate(760.84541 680.95836) rotate(-24.5618)"/>
            </g>
            <g>
              <rect class="cls-8" x="-631.86834" y="661.83999" width="608.33779" height="18.63162" transform="translate(755.65676 718.86207) rotate(-24.5618)"/>
              <rect class="cls-8" x="-733.61491" y="733.17619" width="736.32061" height="18.63162" transform="translate(722.58779 709.62318) rotate(-24.5618)"/>
              <rect class="cls-8" x="-713.16891" y="777.91279" width="736.32061" height="18.63162" transform="translate(705.84201 722.17013) rotate(-24.5618)"/>
              <rect class="cls-8" x="-692.72301" y="822.64939" width="736.32061" height="18.63162" transform="translate(689.09623 734.71703) rotate(-24.5618)"/>
              <rect class="cls-8" x="-658.30852" y="931.55405" width="427.57878" height="18.6316" transform="translate(632.97283 694.7086) rotate(-24.5618)"/>
              <rect class="cls-8" x="-645.83391" y="925.24469" width="736.32061" height="18.63162" transform="translate(650.69281 763.49112) rotate(-24.5618)"/>
              <rect class="cls-8" x="-625.38802" y="969.98124" width="736.32075" height="18.63162" transform="translate(633.94698 776.03805) rotate(-24.5618)"/>
              <rect class="cls-8" x="-602.45042" y="1022.32049" width="736.32063" height="18.63157" transform="translate(614.26638 790.30862) rotate(-24.56181)"/>
              <rect class="cls-8" x="-582.00457" y="1067.05705" width="736.32079" height="18.6316" transform="translate(597.52072 802.8555) rotate(-24.5618)"/>
            </g>
          </g>
          <g>
            <g>
              <rect class="cls-8" x="-346.65814" y="1291.00535" width="213.78932" height="18.6316" transform="translate(502.08571 812.34583) rotate(-24.5618)"/>
              <rect class="cls-8" x="-323.7888" y="1346.87444" width="160.22579" height="18.63162" transform="translate(478.50818 815.77498) rotate(-24.56181)"/>
            </g>
            <g>
              <rect class="cls-8" x="-461.24981" y="1345.95115" width="113.43126" height="113.4312" transform="translate(444.63382 753.11573) rotate(-24.5618)"/>
              <path class="cls-7" d="M-404.2768,1440.3465l-35.1539-13.1005a4.99918,4.99918,0,0,1-2.9393-6.4313,4.99922,4.99922,0,0,1,6.4306-2.9389l25.7841,9.6083,24.8475-66.6755a4.99891,4.99891,0,0,1,6.4305-2.9389,4.99879,4.99879,0,0,1,2.9392,6.4311Z" transform="translate(1064.2915 794.3478)"/>
            </g>
          </g>
        </g>
        <g>
          <rect class="cls-5" x="1823.09412" y="-334.66945" width="1260.92907" height="927.8661" transform="translate(2443.37966 -1285.95243) rotate(61.0514)"/>
          <rect class="cls-9" x="1831.39872" y="-360.97595" width="1260.92907" height="927.8661" transform="translate(2424.64501 -1306.7929) rotate(61.0514)"/>
          <g>
            <g>
              <rect class="cls-8" x="2078.99751" y="-310.69483" width="318.42598" height="18.63335" transform="translate(5115.18304 -854.10217) rotate(151.05139)"/>
              <rect class="cls-8" x="1895.6994" y="-264.32336" width="736.32059" height="18.63152" transform="translate(5185.72137 -779.56945) rotate(151.0514)"/>
              <rect class="cls-8" x="1919.50734" y="-221.28174" width="736.32062" height="18.63152" transform="translate(5251.19578 -710.38771) rotate(151.0514)"/>
              <rect class="cls-8" x="1943.31529" y="-178.24006" width="736.32062" height="18.63156" transform="translate(5316.67008 -641.20605) rotate(151.0514)"/>
              <rect class="cls-8" x="1967.2611" y="-134.94915" width="736.32059" height="18.63161" transform="translate(5382.52379 -571.62334) rotate(151.0514)"/>
            </g>
            <g>
              <rect class="cls-8" x="2005.84051" y="-48.68393" width="608.33779" height="18.63161" transform="translate(5376.62934 -397.57145) rotate(151.0514)"/>
              <rect class="cls-8" x="2021.65295" y="-36.61568" width="736.32059" height="18.63157" transform="translate(5532.10728 -413.56979) rotate(151.0514)"/>
              <rect class="cls-8" x="2045.4609" y="6.42595" width="736.32059" height="18.63161" transform="translate(5597.58171 -344.38799) rotate(151.0514)"/>
              <rect class="cls-8" x="2069.26879" y="49.46759" width="736.32062" height="18.63156" transform="translate(5663.05602 -275.20622) rotate(151.0514)"/>
              <rect class="cls-8" x="2382.53054" y="17.78987" width="427.57882" height="18.63165" transform="translate(5945.65233 -411.51048) rotate(151.05141)"/>
              <rect class="cls-8" x="2123.86794" y="148.17582" width="736.32062" height="18.63161" transform="translate(5813.20951 -116.5505) rotate(151.0514)"/>
              <rect class="cls-8" x="2147.67578" y="191.21748" width="736.3208" height="18.63159" transform="translate(5878.6839 -47.36867) rotate(151.0514)"/>
              <rect class="cls-8" x="2176.11429" y="240.78334" width="736.32062" height="18.63156" transform="translate(5955.99858 31.80505) rotate(151.0514)"/>
              <rect class="cls-8" x="2199.92213" y="283.82497" width="736.32084" height="18.63161" transform="translate(6021.47302 100.98687) rotate(151.0514)"/>
            </g>
          </g>
          <g>
            <g>
              <rect class="cls-8" x="2656.64803" y="396.16358" width="213.7893" height="18.63163" transform="translate(6442.34633 217.02109) rotate(151.05141)"/>
              <rect class="cls-8" x="2730.67319" y="426.24224" width="160.22582" height="18.63156" transform="translate(6545.48877 250.55221) rotate(151.05139)"/>
            </g>
            <g>
              <rect class="cls-8" x="2887.09458" y="277.15653" width="113.43134" height="113.43119" transform="translate(6745.69871 -4.49905) rotate(151.05144)"/>
              <path class="cls-7" d="M2973.9504,356.4864l10.3729-36.0531a4.99975,4.99975,0,0,0-9.6095-2.7654l-7.6085,26.4434-68.3809-19.6739a4.99971,4.99971,0,0,0-2.7644,9.6097Z" transform="translate(1064.2915 794.3478)"/>
            </g>
          </g>
        </g>
        <g>
          <rect class="cls-5" x="2672.64328" y="639.11226" width="1260.92909" height="927.86613" transform="translate(7460.55042 297.50356) rotate(134.18405)"/>
          <rect class="cls-9" x="2700.22774" y="639.42663" width="1260.92913" height="927.86609" transform="translate(7507.58574 278.25605) rotate(134.18405)"/>
          <g>
            <g>
              <rect class="cls-8" x="3493.52529" y="762.69132" width="318.42596" height="18.63327" transform="translate(6798.36297 4665.79849) rotate(-135.81596)"/>
              <rect class="cls-8" x="3247.64462" y="800.69271" width="736.32061" height="18.63154" transform="translate(6708.45879 4705.30857) rotate(-135.81595)"/>
              <rect class="cls-8" x="3213.3627" y="835.96527" width="736.32061" height="18.63147" transform="translate(6625.0094 4741.98186) rotate(-135.81595)"/>
              <rect class="cls-8" x="3179.08075" y="871.23775" width="736.32061" height="18.63161" transform="translate(6541.55996 4778.65518) rotate(-135.81595)"/>
              <rect class="cls-8" x="3144.60025" y="906.71456" width="736.32064" height="18.63157" transform="translate(6457.62756 4815.54067) rotate(-135.81595)"/>
            </g>
            <g>
              <rect class="cls-8" x="3118.66417" y="907.42626" width="608.33781" height="18.63157" transform="translate(6302.71615 4754.08665) rotate(-135.81594)"/>
              <rect class="cls-8" x="3066.27936" y="987.29855" width="736.32068" height="18.63161" transform="translate(6266.97815 4899.32489) rotate(-135.81595)"/>
              <rect class="cls-8" x="3031.99745" y="1022.57106" width="736.32064" height="18.63157" transform="translate(6183.52878 4935.99815) rotate(-135.81595)"/>
              <rect class="cls-8" x="2997.71558" y="1057.8436" width="736.32054" height="18.63161" transform="translate(6100.07939 4972.67148) rotate(-135.81595)"/>
              <rect class="cls-8" x="3228.50469" y="1200.7073" width="427.57871" height="18.63161" transform="translate(6131.72643 5271.24423) rotate(-135.81595)"/>
              <rect class="cls-8" x="2919.09619" y="1138.73471" width="736.32057" height="18.63157" transform="translate(5908.70368 5056.77483) rotate(-135.81596)"/>
              <rect class="cls-8" x="2884.81414" y="1174.0072" width="736.32082" height="18.63161" transform="translate(5825.254 5093.44824) rotate(-135.81595)"/>
              <rect class="cls-8" x="2845.63239" y="1215.60411" width="736.32057" height="18.63157" transform="translate(5728.98333 5137.56592) rotate(-135.81596)"/>
              <rect class="cls-8" x="2811.35034" y="1250.8766" width="736.32082" height="18.63161" transform="translate(5645.53365 5174.23932) rotate(-135.81595)"/>
            </g>
          </g>
          <g>
            <g>
              <rect class="cls-8" x="3021.82449" y="1470.5237" width="213.78932" height="18.63161" transform="translate(5405.23225 5515.99656) rotate(-135.81594)"/>
              <rect class="cls-8" x="3033.52964" y="1524.46215" width="160.22582" height="18.63164" transform="translate(5341.75256 5598.10609) rotate(-135.81597)"/>
            </g>
            <g>
              <rect class="cls-8" x="3192.83606" y="1574.85886" width="113.43132" height="113.43118" transform="translate(5506.96268 5860.75668) rotate(-135.81598)"/>
              <path class="cls-7" d="M3236.6557,1666.9797l37.5118-.5345a4.99975,4.99975,0,1,0-.1418-9.9985l-27.5134.3916-1.0137-71.1477a4.99971,4.99971,0,0,0-9.9984.1429Z" transform="translate(1064.2915 794.3478)"/>
            </g>
          </g>
        </g>
        <g>
          <rect class="cls-5" x="-464.5456" y="-210.50442" width="1260.92909" height="927.86605" transform="translate(1532.52587 1028.78858) rotate(119.61874)"/>
          <rect class="cls-6" x="-472.54196" y="-236.90635" width="1260.92907" height="927.86609" transform="translate(1497.62543 996.28968) rotate(119.61874)"/>
          <g>
            <g>
              <rect class="cls-8" x="227.07608" y="-183.98172" width="318.426" height="18.63329" transform="translate(1028.44254 580.61077) rotate(29.61873)"/>
              <rect class="cls-8" x="-8.06108" y="-137.91347" width="736.32065" height="18.63148" transform="translate(1047.7881 599.57391) rotate(29.61873)"/>
              <rect class="cls-8" x="-32.37076" y="-95.15321" width="736.32063" height="18.63153" transform="translate(1065.74487 617.17574) rotate(29.61873)"/>
              <rect class="cls-8" x="-56.68047" y="-52.39302" width="736.32058" height="18.63164" transform="translate(1083.70165 634.77756) rotate(29.61874)"/>
              <rect class="cls-8" x="-81.13097" y="-9.38503" width="736.32058" height="18.63155" transform="translate(1101.76244 652.48134) rotate(29.61874)"/>
            </g>
            <g>
              <rect class="cls-8" x="7.26177" y="77.17149" width="608.33776" height="18.63157" transform="translate(1147.72936 651.73164) rotate(29.61873)"/>
              <rect class="cls-8" x="-136.66917" y="88.30549" width="736.32054" height="18.63161" transform="translate(1142.78667 692.69468) rotate(29.61874)"/>
              <rect class="cls-8" x="-160.97887" y="131.06579" width="736.32054" height="18.63153" transform="translate(1160.74344 710.29651) rotate(29.61874)"/>
              <rect class="cls-8" x="-185.28857" y="173.82599" width="736.32054" height="18.63161" transform="translate(1178.70021 727.89834) rotate(29.61874)"/>
              <rect class="cls-8" x="-189.42716" y="140.29209" width="427.57882" height="18.63161" transform="translate(1141.41499 801.85611) rotate(29.61874)"/>
              <rect class="cls-8" x="-241.03847" y="271.88889" width="736.32054" height="18.63161" transform="translate(1219.88081 768.26495) rotate(29.61874)"/>
              <rect class="cls-8" x="-265.34828" y="314.64914" width="736.32076" height="18.63161" transform="translate(1237.83757 785.86678) rotate(29.61874)"/>
              <rect class="cls-8" x="-294.36437" y="363.87899" width="736.32054" height="18.63161" transform="translate(1258.37681 806.64005) rotate(29.61874)"/>
              <rect class="cls-8" x="-318.67418" y="406.63924" width="736.32076" height="18.63161" transform="translate(1276.33357 824.24188) rotate(29.61874)"/>
            </g>
          </g>
          <g>
            <g>
              <rect class="cls-8" x="-254.16917" y="516.68409" width="213.78934" height="18.63161" transform="translate(1305.01058 935.86538) rotate(29.61874)"/>
              <rect class="cls-8" x="-274.97937" y="546.20814" width="160.22584" height="18.63157" transform="translate(1313.38316 963.24405) rotate(29.6187)"/>
            </g>
            <g>
              <rect class="cls-8" x="-383.40785" y="395.57353" width="113.4313" height="113.43119" transform="translate(1245.13701 1014.90709) rotate(29.61878)"/>
              <path class="cls-7" d="M-357.0948,474.5493l-9.9505-36.1719a4.99931,4.99931,0,0,1,3.4947-6.1472,4.99921,4.99921,0,0,1,6.1465,3.4944l7.2987,26.5305,68.6064-18.8727a4.999,4.999,0,0,1,6.1464,3.4943,4.99878,4.99878,0,0,1-3.4947,6.147Z" transform="translate(1064.2915 794.3478)"/>
            </g>
          </g>
        </g>
        <g>
          <rect class="cls-5" x="-984.64632" y="959.96889" width="1260.9291" height="927.86608" transform="translate(2152.39184 1948.50217) rotate(65.43816)"/>
          <rect class="cls-6" x="-1010.73442" y="951.00164" width="1260.92909" height="927.86607" transform="translate(2128.99208 1966.98989) rotate(65.43816)"/>
          <g>
            <g>
              <rect class="cls-8" x="-731.55328" y="985.36033" width="318.426" height="18.6333" transform="translate(599.0396 646.44534) rotate(-24.56185)"/>
              <rect class="cls-8" x="-918.4733" y="1033.55779" width="736.3206" height="18.63153" transform="translate(580.99892 659.96271) rotate(-24.56183)"/>
              <rect class="cls-8" x="-898.02735" y="1078.2944" width="736.32064" height="18.6315" transform="translate(564.25319 672.50967) rotate(-24.56183)"/>
              <rect class="cls-8" x="-877.5813" y="1123.03099" width="736.3206" height="18.63162" transform="translate(547.50731 685.05664) rotate(-24.56183)"/>
              <rect class="cls-8" x="-857.0169" y="1168.02669" width="736.3206" height="18.63162" transform="translate(530.66453 697.67627) rotate(-24.56183)"/>
            </g>
            <g>
              <rect class="cls-8" x="-708.55942" y="1198.89624" width="608.33784" height="18.63157" transform="translate(525.47584 735.58001) rotate(-24.56184)"/>
              <rect class="cls-8" x="-810.3058" y="1270.23239" width="736.3206" height="18.63162" transform="translate(492.40691 726.34117) rotate(-24.56183)"/>
              <rect class="cls-8" x="-789.85989" y="1314.96899" width="736.32069" height="18.63162" transform="translate(475.66119 738.88811) rotate(-24.56183)"/>
              <rect class="cls-8" x="-769.4139" y="1359.70559" width="736.3206" height="18.63162" transform="translate(458.91531 751.43506) rotate(-24.56183)"/>
              <rect class="cls-8" x="-734.99936" y="1468.61034" width="427.57882" height="18.63162" transform="translate(402.79204 711.42663) rotate(-24.56183)"/>
              <rect class="cls-8" x="-722.52475" y="1462.3009" width="736.32064" height="18.6316" transform="translate(420.51194 780.20923) rotate(-24.56183)"/>
              <rect class="cls-8" x="-702.07891" y="1507.03744" width="736.32082" height="18.63162" transform="translate(403.76606 792.75617) rotate(-24.56184)"/>
              <rect class="cls-8" x="-679.1412" y="1559.37659" width="736.3206" height="18.63162" transform="translate(384.08554 807.02676) rotate(-24.56183)"/>
              <rect class="cls-8" x="-658.6953" y="1604.11324" width="736.3208" height="18.63157" transform="translate(367.33992 819.57368) rotate(-24.56183)"/>
            </g>
          </g>
          <g>
            <g>
              <rect class="cls-8" x="-423.34881" y="1828.06149" width="213.78932" height="18.63162" transform="translate(271.90454 829.06414) rotate(-24.56184)"/>
              <rect class="cls-8" x="-400.47942" y="1883.93059" width="160.22583" height="18.63162" transform="translate(248.32702 832.49332) rotate(-24.56184)"/>
            </g>
            <g>
              <rect class="cls-8" x="-537.94042" y="1883.00738" width="113.43128" height="113.43119" transform="translate(214.45307 769.83391) rotate(-24.56182)"/>
              <path class="cls-7" d="M-480.9674,1977.4028l-35.1539-13.1005a4.99935,4.99935,0,0,1-2.9393-6.4313,4.99914,4.99914,0,0,1,6.4306-2.9389l25.7841,9.6083,24.8474-66.6755a4.99911,4.99911,0,0,1,6.4306-2.939,4.9989,4.9989,0,0,1,2.9392,6.4312Z" transform="translate(1064.2915 794.3478)"/>
            </g>
          </g>
        </g>
        <g>
          <rect class="cls-5" x="1796.4857" y="-478.07881" width="1260.92911" height="927.86612" transform="translate(1865.64856 -1021.94512) rotate(48.2825)"/>
          <rect class="cls-6" x="1768.9133" y="-478.95191" width="1260.92911" height="927.86612" transform="translate(1855.77274 -1001.6562) rotate(48.2825)"/>
          <g>
            <g>
              <rect class="cls-8" x="1932.67732" y="-369.23979" width="318.42597" height="18.63327" transform="translate(1834.23543 2095.14964) rotate(-41.71749)"/>
              <rect class="cls-8" x="1758.99377" y="-329.6841" width="736.32056" height="18.63151" transform="translate(1816.85524 2128.6461) rotate(-41.7175)"/>
              <rect class="cls-8" x="1791.72588" y="-292.9689" width="736.32064" height="18.63151" transform="translate(1800.72238 2159.73755) rotate(-41.7175)"/>
              <rect class="cls-8" x="1824.45811" y="-256.25371" width="736.32064" height="18.63158" transform="translate(1784.58999 2190.82946) rotate(-41.71751)"/>
              <rect class="cls-8" x="1857.37987" y="-219.32591" width="736.3206" height="18.63161" transform="translate(1768.36355 2222.10083) rotate(-41.7175)"/>
            </g>
            <g>
              <rect class="cls-8" x="2011.18481" y="-214.74473" width="608.33778" height="18.63161" transform="translate(1788.08848 2283.02956) rotate(-41.71749)"/>
              <rect class="cls-8" x="1932.16017" y="-135.44589" width="736.32056" height="18.63158" transform="translate(1731.50672 2293.13317) rotate(-41.7175)"/>
              <rect class="cls-8" x="1964.89231" y="-98.73071" width="736.32064" height="18.63158" transform="translate(1715.37419 2324.22492) rotate(-41.71751)"/>
              <rect class="cls-8" x="1997.62446" y="-62.01551" width="736.32064" height="18.63158" transform="translate(1699.24134 2355.31635) rotate(-41.7175)"/>
              <rect class="cls-8" x="2069.49973" y="77.42709" width="427.57879" height="18.63161" transform="translate(1585.52994 2335.77656) rotate(-41.7175)"/>
              <rect class="cls-8" x="2072.68982" y="22.18408" width="736.32056" height="18.63165" transform="translate(1662.24392 2426.61926) rotate(-41.7175)"/>
              <rect class="cls-8" x="2105.42183" y="58.89931" width="736.32085" height="18.63158" transform="translate(1646.11124 2457.71088) rotate(-41.7175)"/>
              <rect class="cls-8" x="2142.77737" y="102.14389" width="736.3206" height="18.63161" transform="translate(1626.80561 2493.53446) rotate(-41.7175)"/>
              <rect class="cls-8" x="2175.50946" y="138.85906" width="736.32078" height="18.63158" transform="translate(1610.67296 2524.62606) rotate(-41.7175)"/>
            </g>
          </g>
          <g>
            <g>
              <rect class="cls-8" x="2478.06701" y="360.48855" width="213.78927" height="18.63154" transform="translate(1473.65815 2608.30183) rotate(-41.71751)"/>
              <rect class="cls-8" x="2517.59007" y="415.02584" width="160.22581" height="18.63161" transform="translate(1440.59668 2630.60956) rotate(-41.71751)"/>
            </g>
            <g>
              <rect class="cls-8" x="2400.9953" y="459.48289" width="113.4313" height="113.43123" transform="translate(1343.9723 2560.74175) rotate(-41.71749)"/>
              <path class="cls-7" d="M2469.0713,552.1259l-37.4541-2.1483a4.99974,4.99974,0,0,1,.572-9.9831l27.4711,1.5753,4.0747-71.0381a4.99972,4.99972,0,0,1,9.983.573Z" transform="translate(1064.2915 794.3478)"/>
            </g>
          </g>
        </g>
        <g>
          <rect class="cls-5" x="2604.84584" y="383.02297" width="1260.92907" height="927.86611" transform="translate(4472.948 -1698.53432) rotate(78.30115)"/>
          <rect class="cls-6" x="2581.40869" y="368.47297" width="1260.92913" height="927.86617" transform="translate(4440.01523 -1687.18378) rotate(78.30115)"/>
          <g>
            <g>
              <rect class="cls-8" x="2958.9677" y="370.61921" width="318.426" height="18.63329" transform="translate(1052.02715 1434.5065) rotate(-11.69885)"/>
              <rect class="cls-8" x="2760.76537" y="422.51093" width="736.32062" height="18.63148" transform="translate(1041.72857 1437.76304) rotate(-11.69885)"/>
              <rect class="cls-8" x="2770.73902" y="470.67653" width="736.32057" height="18.63149" transform="translate(1032.16933 1440.786) rotate(-11.69885)"/>
              <rect class="cls-8" x="2780.71262" y="518.84218" width="736.32057" height="18.63159" transform="translate(1022.61005 1443.80845) rotate(-11.69884)"/>
              <rect class="cls-8" x="2790.74402" y="567.28678" width="736.32057" height="18.63159" transform="translate(1012.99544 1446.84884) rotate(-11.69884)"/>
            </g>
            <g>
              <rect class="cls-8" x="2930.20971" y="616.18548" width="608.33777" height="18.63164" transform="translate(1004.64821 1463.16865) rotate(-11.69885)"/>
              <rect class="cls-8" x="2813.52982" y="677.32653" width="736.32057" height="18.63159" transform="translate(991.15628 1453.75536) rotate(-11.69885)"/>
              <rect class="cls-8" x="2823.50342" y="725.49213" width="736.32057" height="18.63159" transform="translate(981.59704 1456.77823) rotate(-11.69885)"/>
              <rect class="cls-8" x="2833.47702" y="773.65779" width="736.32062" height="18.63158" transform="translate(972.0378 1459.80067) rotate(-11.69884)"/>
              <rect class="cls-8" x="2846.65738" y="853.12483" width="427.57885" height="18.63159" transform="translate(952.99145 1432.82329) rotate(-11.69886)"/>
              <rect class="cls-8" x="2856.34971" y="884.11688" width="736.32058" height="18.63164" transform="translate(950.11539 1466.73353) rotate(-11.69885)"/>
              <rect class="cls-8" x="2866.32321" y="932.28253" width="736.32078" height="18.63159" transform="matrix(0.97923, -0.20277, 0.20277, 0.97923, 940.55615, 1469.75622)"/>
              <rect class="cls-8" x="2877.03352" y="988.41463" width="736.32057" height="18.63159" transform="translate(929.39685 1473.09413) rotate(-11.69885)"/>
              <rect class="cls-8" x="2887.00701" y="1036.58028" width="736.32077" height="18.63154" transform="translate(919.83762 1476.11681) rotate(-11.69885)"/>
            </g>
          </g>
          <g>
            <g>
              <rect class="cls-8" x="3073.14857" y="1249.13844" width="213.78931" height="18.63163" transform="translate(875.1773 1465.29865) rotate(-11.69883)"/>
              <rect class="cls-8" x="3083.67856" y="1302.73458" width="160.22579" height="18.63154" transform="translate(863.97198 1463.1176) rotate(-11.69885)"/>
            </g>
            <g>
              <rect class="cls-8" x="2939.90759" y="1264.83464" width="113.43127" height="113.43121" transform="translate(858.5731 1429.4187) rotate(-11.69885)"/>
              <path class="cls-7" d="M2988.4859,1358.3418l-31.3553-20.5977a4.99971,4.99971,0,1,1,5.4896-8.3578l22.9981,15.1072,39.0672-59.4707a4.99971,4.99971,0,1,1,8.3572,5.4905Z" transform="translate(1064.2915 794.3478)"/>
            </g>
          </g>
        </g>
        <g>
          <g class="cls-10">
            <path class="cls-11" d="M2339.4203,1129.0678l46.1182-18.3237c.5625-.2173,1.1123-.4621,1.6357-.6946a44.18355,44.18355,0,1,0-37.4766-80.0076l-81.8603,40.3366a29.21293,29.21293,0,0,0-17.9707-5.2216l-59.3359,2.5864-14.9268.6507-11.1377-5.5454a29.2222,29.2222,0,0,0-28.3047,1.2511l-149.5249,91.7349a18.68544,18.68544,0,0,0-3.9477,30.0035v.0002a71.78272,71.78272,0,0,0,21.9628,14.2183l-63.0356,31.06-5.4858,2.7046-5.8399,4.5753-54.2217,42.4152-10.667,8.3442c.0684.1593.1343.3177.2017.4767-3.6177,1.8394-9.8647,5.3637-10.6182,8.1134a.8522.8522,0,0,0,.3121.7014c2.5439,1.277,9.3291-1.0124,13.1103-2.4734.0718.155.1436.3089.2153.4645l13.3638-2.3126,67.8731-11.7459,6.5752-1.1457,6.3261-2.5186,20.0205-7.9548c6.0074,13.1904,17.375,26.8986,20.4488,30.2532l.0024-.001,159.207,240.7014,142.5977,96.5476,214.4336-107.9597-162.5684-386.8696Zm-158.9336,225.7224-70.2695-49.5259-42.9727-48.0453a62.62326,62.62326,0,0,0-16.8467-13.325l47.2237-18.7642-2.8789,35.8861a14.73722,14.73722,0,0,0,11.6826,15.6054,46.14952,46.14952,0,0,0,54.0713-33.5303l2.3369-8.96,10.831,36.3632a14.73713,14.73713,0,0,0,16.5303,10.3324v-.0001a46.21685,46.21685,0,0,0,10.5889-3.0841Z" transform="translate(1064.2915 794.3478)"/>
            <path class="cls-11" d="M2645.6205,1606.9711l-18.4238,6.4868-41.1758-81.7701v.0001q-28.0914,9.45225-55.6631,20.2348l-10.8867-21.6203-214.4258,107.9749,11.1924,22.2263q-22.0137,13.99455-43.4551,28.917l41.1758,81.7702-16.1826,10.9389,315.166,625.881,347.8437-175.1586Z" transform="translate(1064.2915 794.3478)"/>
          </g>
          <g>
            <g>
              <g>
                <path class="cls-12" d="M2072.9932,1109.0194l-11.0562,137.8148a14.73694,14.73694,0,0,0,11.6827,15.6054l.0002-.0001a46.1492,46.1492,0,0,0,54.071-33.5302l28.6195-109.7155Z" transform="translate(1064.2915 794.3478)"/>
                <path class="cls-12" d="M2101.3927,1123.8074l39.466,132.505a14.737,14.737,0,0,0,16.5305,10.3325l.0001-.0002a46.14918,46.14918,0,0,0,38.3106-50.7961l-12.9394-112.6461Z" transform="translate(1064.2915 794.3478)"/>
                <path class="cls-13" d="M2175.9221,1233.4046l-66.3471-100.4984-77.9171,50.7474a71.915,71.915,0,0,1-81.7746-11.9971l-.0001-.0003a18.68506,18.68506,0,0,1,3.9478-30.0033l149.5251-91.735a29.22067,29.22067,0,0,1,28.3039-1.2511l96.9402,48.2643,213.2625,423.5142Z" transform="translate(1064.2915 794.3478)"/>
                <path class="cls-13" d="M2272.2322,1624.0804l214.4329-107.9597L2324.0972,1129.251l-87.2137-71.66a29.221,29.221,0,0,0-19.8231-6.6159l-77.0708,3.3595Z" transform="translate(1064.2915 794.3478)"/>
                <polygon class="cls-12" points="3207.089 1848.56 3283.172 1909.031 3222.016 1847.909 3207.089 1848.56"/>
                <g>
                  <path class="cls-11" d="M2354.3681,1095.8677c-.5227.2326-1.0727.4773-1.6351.6945l-274.0842,108.8989-.0276.0122-12.2132,4.841-.0276.0122-136.4248,54.2076-6.3266,2.5184-20.3046-47.4131,5.4859-2.7045,131.6488-64.868.055-.0245,11.7574-5.7915.0275-.0123,264.5931-130.3785a44.18344,44.18344,0,1,1,37.476,80.0076Z" transform="translate(1064.2915 794.3478)"/>
                  <path class="cls-14" d="M2186.0881,1122.1132v-.0001a9.96225,9.96225,0,0,1,4.7553-12.8569l145.0102-71.4492a16.39724,16.39724,0,0,1,22.2349,8.0573h0a16.39719,16.39719,0,0,1-8.9324,21.8897l-150.2307,59.6967A9.96229,9.96229,0,0,1,2186.0881,1122.1132Z" transform="translate(1064.2915 794.3478)"/>
                  <path class="cls-14" d="M2078.6488,1205.4611l-.0276.0122-12.2132,4.841c-.7005-1.2042-1.4287-2.3961-2.1414-3.6277-2.1381-3.6949-4.2002-7.5885-6.2804-11.6717-2.0926-4.1106-4.1487-8.4353-6.1436-12.9189-2.4354-5.4739-4.6445-10.8837-6.6184-16.1346-.8905-2.3718-1.726-4.768-2.5247-7.0817q-1.1982-3.47055-2.2404-6.8128l.055-.0245,11.7574-5.7915c.3062.9842.6121,1.9683.9458,2.9403.6244,1.9959,1.2885,4.0071,2.0199,6.0212.3581,1.0271.7162,2.054,1.1017,3.0687.5172,1.3845,1.0222,2.7417,1.5516,4.1537,1.784,4.6763,3.7516,9.4687,5.9177,14.3374,2.1174,4.7588,4.3231,9.3461,6.5657,13.7196.6943,1.3386,1.3369,2.6346,2.0466,3.9335.4956.9657,1.0186,1.9192,1.5418,2.8728C2075.5193,1200.1311,2077.0948,1202.8573,2078.6488,1205.4611Z" transform="translate(1064.2915 794.3478)"/>
                  <g>
                    <path class="cls-15" d="M1835.3642,1274.2063s-12.1165,5.4597-13.1848,9.358a.85323.85323,0,0,0,.312.7013c3.6073,1.8107,15.7495-3.5508,15.7495-3.5508-.4618-.9994-.931-1.9794-1.3845-2.9987C1836.3325,1276.5386,1835.8626,1275.3771,1835.3642,1274.2063Z" transform="translate(1064.2915 794.3478)"/>
                    <path class="cls-11" d="M1849.181,1279.9442l67.873-11.7459,6.575-1.1458-20.3046-47.4131-5.8399,4.5754-54.2213,42.4152q1.4238,3.44325,2.9754,6.945C1847.2012,1275.7386,1848.1867,1277.8554,1849.181,1279.9442Z" transform="translate(1064.2915 794.3478)"/>
                    <path class="cls-11" d="M1846.2386,1273.575q-1.5582-3.5022-2.9754-6.945l-10.667,8.3442c.56,1.3092,1.0905,2.6069,1.6768,3.9247.5075,1.1406,1.0293,2.2387,1.5443,3.3579l13.3637-2.3126C1848.1867,1277.8554,1847.2012,1275.7386,1846.2386,1273.575Z" transform="translate(1064.2915 794.3478)"/>
                  </g>
                  <path class="cls-14" d="M1929.9556,1264.5341l-6.3266,2.5184-6.575,1.1458c-1.5081-2.7229-2.9978-5.553-4.4971-8.4779-2.0924-4.1106-4.1485-8.4353-6.1434-12.9189-2.4354-5.4738-4.6447-10.8836-6.6184-16.1346-.7926-2.1517-1.57-4.3432-2.3106-6.4521l5.8399-4.5754,5.4859-2.7045c.3062.9842.6519,1.9837.9978,2.983.3581,1.0271.7162,2.054,1.1017,3.0687.5172,1.3845,1.0222,2.7417,1.5516,4.1537,1.784,4.6763,3.7516,9.4688,5.9177,14.3374,2.1174,4.7588,4.3231,9.3461,6.5657,13.7196.6943,1.3386,1.3369,2.6346,2.0465,3.9335.4957.9657,1.0187,1.9192,1.5419,2.8728Q1929.20325,1263.287,1929.9556,1264.5341Z" transform="translate(1064.2915 794.3478)"/>
                </g>
                <g>
                  <path class="cls-13" d="M2441.8627,1520.4453l-169.6305,103.6351-142.5984-96.5475L1950.0596,1256.038a17.88618,17.88618,0,0,1,5.8707-25.2964l.0003-.0002a62.74636,62.74636,0,0,1,78.5085,12.2959l42.9727,48.0453,70.2688,49.5259,28.2415-107.2039Z" transform="translate(1064.2915 794.3478)"/>
                  <path class="cls-16" d="M2000.4954,1261.7495c-4.2896,7.8526-21.8056,22.5627-30.0708,25.0828-5.4254-5.9208-36.6945-44.0957-18.7077-54.7492C1971.7069,1220.2431,2000.4954,1261.7495,2000.4954,1261.7495Z" transform="translate(1064.2915 794.3478)"/>
                </g>
              </g>
              <polyline class="cls-13" points="3550.957 2310.468 3563.683 2335.741 3349.258 2443.716 3336.531 2418.443"/>
            </g>
            <g>
              <path class="cls-6" d="M2594.9114,1600.3092,2281.6727,1758.042l-41.6959-82.8031.0001-.0001a1239.94751,1239.94751,0,0,1,313.2384-157.7327h.0002Z" transform="translate(1064.2915 794.3478)"/>
              <path class="cls-11" d="M2927.9801,2218.67042,2580.1358,2393.829,2264.9705,1767.9479l30.504-20.6203a1239.94627,1239.94627,0,0,1,282.6105-142.3099l34.7298-12.2284Z" transform="translate(1064.2915 794.3478)"/>
              <path class="cls-11" d="M2292.4845,1693.7215c5.2935,10.5122,3.6194,22.0379-3.7391,25.7433-7.3586,3.7054-17.615-1.8125-22.9085-12.3247s-3.6194-22.0379,3.7391-25.7433C2276.9346,1677.6914,2287.1911,1683.2093,2292.4845,1693.7215Z" transform="translate(1064.2915 794.3478)"/>
            </g>
          </g>
        </g>
        <g>
          <g class="cls-10">
            <path class="cls-11" d="M913.7279,1804.9824a1239.93559,1239.93559,0,0,0-313.2383-157.7328l-41.1758,81.7702-18.4238-6.487L225.725,2348.414l347.8442,175.15859L888.7347,1897.6915l-16.1821-10.939,41.1758-81.77Z" transform="translate(1064.2915 794.3478)"/>
            <path class="cls-11" d="M1201.9881,1361.8267a14.96329,14.96329,0,0,0-5.228-1.907,62.73631,62.73631,0,0,0-77.4941,12.8611l-42.9727,48.0454-70.269,49.5259-20.2974-77.048a46.22271,46.22271,0,0,0,10.5889,3.0841v.0003a14.73687,14.73687,0,0,0,16.5303-10.3325l10.831-36.3631,2.3369,8.96a46.14956,46.14956,0,0,0,54.0713,33.5301v.0002a14.73726,14.73726,0,0,0,11.6826-15.6055l-7.0176-87.4717,37.2969,24.2912a71.9148,71.9148,0,0,0,81.7744-11.9972v-.0003a18.685,18.685,0,0,0-3.9477-30.0033l-149.5249-91.735a29.22058,29.22058,0,0,0-28.3037-1.2511l-11.1382,5.5453-12.3672-.539-2.5596-.1116-59.3359-2.5864a29.22086,29.22086,0,0,0-19.8228,6.6159l-87.2138,71.6601L667.0399,1645.8643,881.473,1753.824l142.5981-96.5476,159.2066-240.7014.0029.0009c3.3291-3.6333,16.3867-19.4114,21.8262-33.5233a17.75733,17.75733,0,0,0,.9082-2.5689C1208.5394,1372.6079,1208.2621,1365.5425,1201.9881,1361.8267Z" transform="translate(1064.2915 794.3478)"/>
          </g>
          <g>
            <g>
              <path class="cls-6" d="M548.7936,1710.0528l313.2387,157.7328,41.6959-82.8031-.0001-.0001a1239.94751,1239.94751,0,0,0-313.2384-157.7327h-.0002Z" transform="translate(1064.2915 794.3478)"/>
              <path class="cls-11" d="M215.7249,2328.414l347.8443,175.15859L878.7345,1877.6915l-30.504-20.6203A1239.94627,1239.94627,0,0,0,565.62,1714.7613l-34.7298-12.2284Z" transform="translate(1064.2915 794.3478)"/>
              <path class="cls-11" d="M851.2205,1803.4651c-5.2935,10.5122-3.6194,22.0379,3.7391,25.7433,7.3586,3.7054,17.615-1.8125,22.9085-12.3247s3.6194-22.0379-3.7391-25.7433C866.7704,1787.435,856.5139,1792.9529,851.2205,1803.4651Z" transform="translate(1064.2915 794.3478)"/>
            </g>
            <g>
              <polyline class="cls-13" points="1721.331 2420.212 1708.605 2445.485 1923.03 2553.46 1935.757 2528.187"/>
              <g>
                <path class="cls-12" d="M1070.7118,1218.763l11.0562,137.8148a14.73694,14.73694,0,0,1-11.6827,15.6054l-.0002-.0001a46.1492,46.1492,0,0,1-54.071-33.5302l-28.6195-109.7155Z" transform="translate(1064.2915 794.3478)"/>
                <path class="cls-12" d="M1042.3123,1233.551l-39.466,132.505a14.737,14.737,0,0,1-16.5305,10.3325l-.0001-.0002a46.14918,46.14918,0,0,1-38.3106-50.7961l12.9394-112.6461Z" transform="translate(1064.2915 794.3478)"/>
                <path class="cls-13" d="M967.7829,1343.1482l66.3471-100.4984,77.9171,50.7474a71.915,71.915,0,0,0,81.7746-11.9971l.0001-.0003a18.68506,18.68506,0,0,0-3.9478-30.0033l-149.5251-91.735a29.22067,29.22067,0,0,0-28.3039-1.2511l-96.9402,48.2643L701.8423,1630.1889Z" transform="translate(1064.2915 794.3478)"/>
                <path class="cls-13" d="M871.4728,1733.824,657.0399,1625.8643l162.5679-386.8697,87.2137-71.66a29.221,29.221,0,0,1,19.8231-6.6159l77.0708,3.3595Z" transform="translate(1064.2915 794.3478)"/>
                <polygon class="cls-12" points="2065.199 1958.304 1989.116 2018.774 2050.272 1957.653 2065.199 1958.304"/>
                <g class="cls-17">
                  <g>
                    <rect class="cls-6" x="652.86245" y="343.96985" width="1677.829" height="1234.6457" transform="translate(3517.36115 263.86355) rotate(90)"/>
                    <g>
                      <path class="cls-7" d="M972.9771,322.5901H947.8888v-10.352h63.3295v10.352H986.2521v68.0785h-13.275Z" transform="translate(1064.2915 794.3478)"/>
                      <path class="cls-7" d="M1013.5327,384.3357q-8.1612-7.5501-8.1605-22.6525,0-14.2485,7.1859-22.1042,7.1847-7.8552,21.3122-7.8552,12.7884,0,19.6085,6.6987,6.81825,6.6993,6.8195,17.9024V367.042h-42.2605q.9747,8.283,5.9684,11.5085,4.99185,3.2289,15.7102,3.2279a48.73676,48.73676,0,0,0,8.952-.8524,47.35628,47.35628,0,0,0,8.098-2.1923v9.7426q-7.67175,3.40815-19.7293,3.4098Q1021.6912,391.8861,1013.5327,384.3357Zm35.0733-25.9408v-4.0185q0-6.211-3.4098-9.4385-3.411-3.2259-10.9608-3.2272-9.0129,0-12.6046,3.897-3.59235,3.89925-3.593,12.7872Z" transform="translate(1064.2915 794.3478)"/>
                      <path class="cls-7" d="M1073.2057,332.9421h12.1796l.7304,6.698a53.21453,53.21453,0,0,1,9.864-4.8717,54.69751,54.69751,0,0,1,11.326-3.0446v10.1084a87.74815,87.74815,0,0,0-11.326,2.9835,42.69479,42.69479,0,0,0-9.4989,4.2018v41.6511h-13.2751Z" transform="translate(1064.2915 794.3478)"/>
                      <path class="cls-7" d="M1117.9001,332.9421h12.1783l.6094,6.0891a32.08055,32.08055,0,0,1,20.3376-7.3074,20.24642,20.24642,0,0,1,9.499,1.8882,12.99183,12.99183,0,0,1,5.481,5.6629,35.30688,35.30688,0,0,1,9.6822-5.5414,34.00086,34.00086,0,0,1,12.1172-2.0097q9.98565,0,14.737,5.1153,4.75005,5.1147,4.7495,15.7103v38.1192h-13.0308V353.889q0-6.57645-2.8017-9.3162-2.8029-2.74065-9.1337-2.7406a21.7369,21.7369,0,0,0-7.9163,1.4613,15.88819,15.88819,0,0,0-6.332,4.3843,24.17767,24.17767,0,0,1,.6081,5.9676v37.0232h-12.3006V354.0107q0-6.57675-2.2532-9.3775-2.25525-2.7999-8.2202-2.801-7.67205,0-14.9801,6.8201v42.0163h-13.0307Z" transform="translate(1064.2915 794.3478)"/>
                      <path class="cls-7" d="M1230.064,391.0948a43.29158,43.29158,0,0,1-9.0129-2.1312V377.7592a45.48733,45.48733,0,0,0,8.9518,2.4358,56.70032,56.70032,0,0,0,9.6822.8524q7.06185,0,9.8641-1.2175,2.801-1.21635,2.8015-4.7502a5.08222,5.08222,0,0,0-2.5572-4.6883,51.04963,51.04963,0,0,0-9.6211-3.7145l-3.6541-1.2182q-8.7693-2.9229-12.7878-6.5154-4.0191-3.5913-4.0192-10.6561,0-8.1582,5.8462-12.3617,5.84565-4.2012,18.2676-4.2017a58.83957,58.83957,0,0,1,9.317.7311,50.18643,50.18643,0,0,1,7.8552,1.8269v11.0823a36.70231,36.70231,0,0,0-7.3679-2.0706,43.98708,43.98708,0,0,0-7.7343-.7304q-6.69735,0-9.7419,1.1566a4.29057,4.29057,0,0,0-3.0446,4.3239,4.59184,4.59184,0,0,0,2.313,4.2017,50.0321,50.0321,0,0,0,9.1351,3.5923l2.6795.8524a55.55449,55.55449,0,0,1,10.9594,4.4455,14.48121,14.48121,0,0,1,5.663,5.4803,17.30077,17.30077,0,0,1,1.7672,8.3424q0,16.9296-24.2359,16.9279A79.26829,79.26829,0,0,1,1230.064,391.0948Z" transform="translate(1064.2915 794.3478)"/>
                      <path class="cls-7" d="M1328.8918,386.3453a17.40455,17.40455,0,0,1-7.6121-14.7975,21.0181,21.0181,0,0,1,4.6272-13.6395q4.6275-5.7237,13.7625-10.7171a42.64162,42.64162,0,0,1-7.9162-8.8298,17.16839,17.16839,0,0,1-2.5573-9.3169,16.76545,16.76545,0,0,1,5.5408-12.9698q5.54145-5.0523,15.0411-5.0541,9.37545,0,14.8578,4.9319,5.481,4.93245,5.481,13.092a18.9606,18.9606,0,0,1-2.9848,10.7178q-2.9841,4.50645-9.803,9.0115l18.0246,18.3897a22.70118,22.70118,0,0,0,1.9479-9.7426v-2.0706h10.1083v2.3144a34.266,34.266,0,0,1-1.2176,9.0726,28.63952,28.63952,0,0,1-3.2889,7.7336l9.8654,9.9863-8.0383,7.3074-8.7687-8.7686q-8.5257,8.8911-26.671,8.8901Q1336.5021,391.8861,1328.8918,386.3453Zm39.0314-10.6567-20.3376-20.5819q-6.941,2.92365-10.2305,6.7597a14.00015,14.00015,0,0,0-3.2877,9.4378,9.61427,9.61427,0,0,0,4.2012,8.4036q4.20225,2.9226,11.0219,2.923Q1361.4669,382.6308,1367.9232,375.6886Zm-10.7776-39.032a10.36775,10.36775,0,0,0,2.2533-7.0027q0-9.2538-9.6211-9.256-4.99575,0-7.4289,2.5573a9.307,9.307,0,0,0-2.4366,6.6987,10.89283,10.89283,0,0,0,2.1312,6.5765,38.74632,38.74632,0,0,0,7.004,6.82A39.34487,39.34487,0,0,0,1357.1456,336.6566Z" transform="translate(1064.2915 794.3478)"/>
                      <path class="cls-7" d="M1457.8004,381.4736q-10.10835-10.4124-10.1071-28.8021,0-19.8492,9.7419-30.7512,9.74205-10.898,29.3505-10.8997a68.82763,68.82763,0,0,1,23.0184,3.7755v11.5695a60.372,60.372,0,0,0-22.0437-4.0191q-14.24835,0-20.4597,7.551-6.2121,7.55205-6.2114,22.774,0,13.883,6.6376,20.947,6.6369,7.0647,20.2777,7.0638a60.885,60.885,0,0,0,21.9217-3.7755v11.691a76.56724,76.56724,0,0,1-23.0184,3.2883Q1467.9095,391.8861,1457.8004,381.4736Z" transform="translate(1064.2915 794.3478)"/>
                      <path class="cls-7" d="M1514.9174,361.8053q0-30.07935,30.0808-30.0815,30.2022,0,30.2029,30.0815,0,30.08235-30.2029,30.0808Q1514.91675,391.8861,1514.9174,361.8053Zm43.0518,14.4927q3.83595-4.38465,3.8359-14.4927,0-9.9846-3.8359-14.3711-3.83775-4.38375-12.971-4.3838-9.0129,0-12.8489,4.3838-3.8358,4.38465-3.836,14.3711,0,10.1103,3.836,14.4927,3.83595,4.38375,12.8489,4.3843Q1554.13215,380.6823,1557.9692,376.298Z" transform="translate(1064.2915 794.3478)"/>
                      <path class="cls-7" d="M1588.1098,332.9421h12.1783l.6095,6.0891a34.31571,34.31571,0,0,1,9.6211-5.2977,33.68994,33.68994,0,0,1,11.691-2.0097q11.2038,0,16.3198,5.2368,5.11455,5.23845,5.1145,16.3197v37.3883h-13.1529V353.889q0-6.69615-2.8016-9.3773-2.8029-2.6772-10.2292-2.6795a23.63921,23.63921,0,0,0-16.0753,6.5765v42.2599h-13.2752Z" transform="translate(1064.2915 794.3478)"/>
                      <path class="cls-7" d="M1662.946,385.2492q-6.88065-6.6369-6.8806-21.6169,0-10.1073,3.5319-17.2943a25.323,25.323,0,0,1,9.742-10.8997,27.23313,27.23313,0,0,1,14.2497-3.7145,32.80046,32.80046,0,0,1,9.2558,1.2183,28.357,28.357,0,0,1,7.9162,3.7749V308.5847h13.2738v82.0839h-11.3259l-.8524-5.7241a25.55119,25.55119,0,0,1-8.6465,5.2979,32.382,32.382,0,0,1-10.8387,1.6437Q1669.82665,391.8861,1662.946,385.2492Zm37.815-9.4385V346.9475a20.7688,20.7688,0,0,0-14.3705-5.1153q-8.4048,0-12.6669,5.602-4.26285,5.6037-4.2622,16.3196,0,10.11045,3.836,14.1269,3.836,4.01925,12.6058,4.0191A19.9574,19.9574,0,0,0,1700.761,375.8107Z" transform="translate(1064.2915 794.3478)"/>
                      <path class="cls-7" d="M1738.1473,343.0504h-8.7686l1.2175-10.1083h20.8263v57.7265h-13.2752Zm-1.0967-33.126h14.4927v10.9608h-14.4927Z" transform="translate(1064.2915 794.3478)"/>
                      <path class="cls-7" d="M1775.1698,387.0756q-4.62945-4.8096-4.6274-13.5792V343.2935h-8.5256V332.9421h8.5256V319.667l13.153-4.0185v17.2936h15.3437l-.8524,10.3514h-14.4913v29.4726q0,4.9947,2.2533,7.0027,2.2512,2.00955,7.6108,2.0096a21.9366,21.9366,0,0,0,6.9416-1.2182v9.3774a30.52583,30.52583,0,0,1-11.569,1.9485Q1779.79845,391.8861,1775.1698,387.0756Z" transform="translate(1064.2915 794.3478)"/>
                      <path class="cls-7" d="M1819.864,343.0504h-8.7686l1.2189-10.1083h20.8249v57.7265H1819.864Zm-1.0953-33.126h14.4926v10.9608h-14.4926Z" transform="translate(1064.2915 794.3478)"/>
                      <path class="cls-7" d="M1846.17,361.8053q0-30.07935,30.0821-30.0815,30.2004,0,30.2017,30.0815,0,30.08235-30.2017,30.0808Q1846.1687,391.8861,1846.17,361.8053Zm43.0505,14.4927q3.8379-4.38465,3.8373-14.4927,0-9.9846-3.8373-14.3711-3.83595-4.38375-12.9684-4.3838-9.0168,0-12.849,4.3838-3.8358,4.38465-3.8359,14.3711,0,10.1103,3.8359,14.4927,3.8361,4.38375,12.849,4.3843Q1885.3859,380.6823,1889.2205,376.298Z" transform="translate(1064.2915 794.3478)"/>
                      <path class="cls-7" d="M1919.3624,332.9421h12.1784l.6108,6.0891a34.295,34.295,0,0,1,9.6209-5.2977,33.68414,33.68414,0,0,1,11.6899-2.0097q11.2038,0,16.321,5.2368,5.11455,5.23845,5.1146,16.3197v37.3883h-13.153V353.889q0-6.69615-2.8016-9.3773-2.8029-2.6772-10.2292-2.6795a23.6396,23.6396,0,0,0-16.0767,6.5765v42.2599h-13.2751Z" transform="translate(1064.2915 794.3478)"/>
                      <path class="cls-7" d="M1997.6694,391.0948a43.25674,43.25674,0,0,1-9.0116-2.1312V377.7592a45.48733,45.48733,0,0,0,8.9518,2.4358,56.69687,56.69687,0,0,0,9.6809.8524q7.0638,0,9.8654-1.2175,2.79885-1.21635,2.8015-4.7502a5.08222,5.08222,0,0,0-2.5572-4.6883,51.09039,51.09039,0,0,0-9.6211-3.7145l-3.6541-1.2182q-8.7693-2.9229-12.7878-6.5154-4.0191-3.5913-4.0192-10.6561,0-8.1582,5.8449-12.3617,5.8476-4.2012,18.2689-4.2017a58.81105,58.81105,0,0,1,9.3157.7311,50.1663,50.1663,0,0,1,7.8564,1.8269v11.0823a36.69941,36.69941,0,0,0-7.3678-2.0706,43.99755,43.99755,0,0,0-7.7343-.7304q-6.69735,0-9.7432,1.1566a4.291,4.291,0,0,0-3.0433,4.3239,4.58919,4.58919,0,0,0,2.313,4.2017,50.0321,50.0321,0,0,0,9.1351,3.5923l2.6781.8524a55.53637,55.53637,0,0,1,10.9608,4.4455,14.48121,14.48121,0,0,1,5.663,5.4803,17.31527,17.31527,0,0,1,1.7659,8.3424q0,16.9296-24.2358,16.9279A79.29545,79.29545,0,0,1,1997.6694,391.0948Z" transform="translate(1064.2915 794.3478)"/>
                    </g>
                    <g>
                      <g>
                        <rect class="cls-8" x="2346.1889" y="1276.9028" width="423.707" height="24.794"/>
                        <rect class="cls-8" x="2068.1576" y="1347.4162" width="979.7696" height="24.7916"/>
                        <rect class="cls-8" x="2068.1576" y="1412.8664" width="979.7696" height="24.7916"/>
                        <rect class="cls-8" x="2068.1576" y="1478.3166" width="979.7696" height="24.7917"/>
                        <rect class="cls-8" x="2068.1576" y="1544.1458" width="979.7696" height="24.7918"/>
                      </g>
                      <g>
                        <rect class="cls-8" x="2238.4552" y="1628.2239" width="809.472" height="24.7918"/>
                        <rect class="cls-8" x="2068.1576" y="1693.6741" width="979.7696" height="24.7918"/>
                        <rect class="cls-8" x="2068.1576" y="1759.1243" width="979.7696" height="24.7917"/>
                        <rect class="cls-8" x="2068.1576" y="1824.5745" width="979.7696" height="24.7917"/>
                        <rect class="cls-8" x="2068.1576" y="1890.0247" width="568.9488" height="24.7917"/>
                        <rect class="cls-8" x="2068.1576" y="1974.6726" width="979.7696" height="24.7918"/>
                        <rect class="cls-8" x="2068.1574" y="2040.1228" width="979.77" height="24.7918"/>
                      </g>
                    </g>
                    <g>
                      <g>
                        <rect class="cls-8" x="2257.4058" y="2289.7922" width="284.4743" height="24.7918"/>
                        <rect class="cls-8" x="2257.4058" y="2355.2424" width="213.2011" height="24.7918"/>
                      </g>
                      <g>
                        <rect class="cls-8" x="2068.1576" y="2259.4458" width="150.935" height="150.9348"/>
                        <path class="cls-7" d="M1058.804,1586.3088l-35.2981-35.2985a6.65278,6.65278,0,0,1,9.4079-9.409l25.8902,25.8897,66.9498-66.9491a6.65278,6.65278,0,1,1,9.408,9.4089Z" transform="translate(1064.2915 794.3478)"/>
                      </g>
                    </g>
                    <g>
                      <rect class="cls-8" x="2608.36" y="2385.5889" width="439.5672" height="24.7917"/>
                      <path class="cls-7" d="M1664.1086,1400.4012c14.3849,10.8664,23.7794,27.4647,28.2176,44.7247,5.347,20.7943,4.1125,43.2585-.7194,64.0371-4.0531,17.4293-13.0922,36.436-31.2474,42.5636a27.9156,27.9156,0,0,1-22.4814-1.578c-7.0004-3.7815-11.6579-10.1555-11.8918-18.4407-.2709-9.6002,4.4618-18.6687,10.0514-26.1746a66.92732,66.92732,0,0,1,20.3461-17.8023c14.5469-8.3804,31.1989-12.1662,47.0937-17.6659a124.05838,124.05838,0,0,0,23.2696-10.3181c7.3202-4.3796,15.0031-10.2067,19.1987-17.8032,2.317-4.1953,3.7457-9.3905,2.1894-14.1006-1.5661-4.7404-5.3842-7.4876-10.4482-6.5215-4.3838.8365-8.6334,4.2352-11.6116,7.4039a46.88013,46.88013,0,0,0-7.4285,10.8518c-3.9159,7.6744-7.8564,16.3676-4.1368,24.8539a21.236,21.236,0,0,0,14.1788,11.5221c8.9973,2.111,18.5329-3.1237,25.4225-8.418a62.16617,62.16617,0,0,0,22.575-34.3096h-7.6986c1.5458,5.6709,3.1512,11.3274,4.8797,16.9454,1.5012,4.8789,2.8554,10.2702,5.3838,14.7457,1.3614,2.4096,3.8945,3.9676,6.6049,2.538a12.88651,12.88651,0,0,0,3.3803-3.0069,89.30811,89.30811,0,0,0,10.2075-14.5507c3.8727-6.732,7.1514-13.9983,8.076-21.7693q-3.92055.53055-7.8412,1.0612c2.1653,12.7132,5.4627,26.6403,16.96,34.1658a3.97379,3.97379,0,0,0,5.1497-1.0282,4.07074,4.07074,0,0,0-.3122-5.2415l-.0029-.0034q.5133.8805,1.0267,1.7615a6.55974,6.55974,0,0,1,.0138,2.0362c.0104-.0416.0312-.08.0424-.1211.1053-.3859-.5843,1.2361-.2119.5095.2398-.4676.4574-.9466.7001-1.4132.8212-1.5788,1.7138-3.1213,2.6359-4.643q2.0661-3.40965,4.3569-6.6763,1.34655-1.92765,2.7608-3.8068c.2213-.2941.4462-.5855.6676-.8795.4222-.5608-.0439.0561-.1106.1415q.2181-.27975.4366-.5595.85245-1.08675,1.7274-2.1556a116.60839,116.60839,0,0,1,16.5952-16.6769c.4104-.3333.8247-.6613,1.2387-.9901.1464-.1163.7678-.5934.1711-.1366q.28245-.21585.5659-.4304,1.2855-.9705,2.6029-1.8972,2.6745-1.88025,5.4807-3.5633,2.9361-1.7565,6.0107-3.2663,1.4304-.70005,2.8884-1.3414.3447-.1515.6912-.2996c-.6531.2778.1052-.0415.2666-.106.5872-.235,1.1743-.4688,1.7662-.6917a70.48962,70.48962,0,0,1,7.5241-2.3678q1.90395-.48285,3.8338-.8553.9759-.18825,1.9569-.3476.3948-.064.7901-.1235c.0229-.0034,1.2826-.1704.5317-.0772a69.60883,69.60883,0,0,1,17.2881.0553c2.1427.2695,3.9919-2.0278,3.9919-3.9919,0-2.3813-1.843-3.7215-3.9919-3.9919-20.3455-2.56-40.2708,4.1719-56.3673,16.5103a125.40359,125.40359,0,0,0-30.2226,33.9305c-1.0922,1.7784-2.1488,3.5843-3.1017,5.4417-1.1779,2.2958-2.1212,4.2939-.1988,6.6721q2.4186-3.13485,4.8374-6.2695c-4.2443-2.7783-7.2466-7.419-9.0542-12.1467a90.64332,90.64332,0,0,1-4.2368-17.2477c-.3288-1.931-2.5962-3.1277-4.3799-2.8594a4.07061,4.07061,0,0,0-3.4613,3.9205c-.1451,1.2193.1779-.7802-.0702.4459-.0515.2543-.0905.5118-.1405.7665-.1415.7202-.3094,1.4348-.4965,2.1446-.3747,1.4211-.831,2.82-1.3421,4.1976a62.06983,62.06983,0,0,1-3.6479,7.8704c-1.4226,2.6445-2.9753,5.2192-4.6324,7.7231q-1.119,1.69035-2.305,3.3351c-.3448.4775-.698.9486-1.0484,1.422-.124.1675-.5942.7767-.0818.1158q-.2886.37215-.5827.7402a42.08811,42.08811,0,0,1-3.2768,3.6552c-.7403.7335.6039-.3815.1687-.1184-.0622.0377-.1238.0736-.1885.1071a3.71883,3.71883,0,0,1,3.2221-.1722c.1701.0727,1.3147.9223,1.0258.632-.3678-.3697.4847.8905.3684.4878a4.77734,4.77734,0,0,0-.4492-.7522c-.1823-.3386-.3386-.6892-.502-1.0367-.086-.1827-.1621-.3701-.2434-.5548.4243.9637.1407.3367.0466.0926-.415-1.077-.8255-2.1535-1.2088-3.2426-.9007-2.5598-1.7247-5.1468-2.5243-7.7398-1.7524-5.6832-3.3769-11.4062-4.9409-17.1437-1.0201-3.7424-6.737-3.8601-7.6986,0a54.27126,54.27126,0,0,1-11.8227,22.7284c-5.6742,6.4469-13.4421,12.8489-22.1339,14.3545a15.69756,15.69756,0,0,1-3.1528.2169c-.2034-.0066-.4235-.0483-.6254-.036-.5583.0341.8617.2264.0394-.0085-.534-.1526-1.0813-.2491-1.6123-.4202-.2636-.0849-.5206-.1915-.784-.275-.6184-.196.5799.297-.2515-.1058-.5997-.2906-1.1905-.5906-1.7631-.9328q-.40995-.2451-.8076-.5103a7.82587,7.82587,0,0,0-.6512-.4485c.3435.2642-.3769-.3211-.4911-.4215q-.44085-.3873-.8565-.8023-.359-.36015-.6961-.7416c-.113-.1281-.2205-.2608-.3322-.3899-.391-.4516.3355.4872-.0072-.0073a17.11372,17.11372,0,0,1-1.1042-1.7765c-.1076-.2045-.5169-1.1729-.2636-.5055-.1513-.3984-.2881-.801-.4045-1.211-.1022-.3601-.1844-.7233-.2616-1.0894-.0391-.1855-.0737-.3743-.1002-.5621.012.0852.0544.5717.0289.0964a16.52283,16.52283,0,0,1,.0372-2.8752c.0563-.4679.0241-.1187.0086-.0275.0381-.2242.0835-.4473.1309-.6698q.14745-.69345.347-1.3736c.3215-1.1026.7498-2.1696,1.1732-3.236.7151-1.8011,1.4615-3.52,2.3574-5.358a42.26453,42.26453,0,0,1,6.4089-9.9949,22.60915,22.60915,0,0,1,4.1737-3.6953,18.86525,18.86525,0,0,1,2.6739-1.5196,5.59555,5.59555,0,0,1,1.0624-.3747c.0943-.0213.8288-.0685.3268-.1333a2.91811,2.91811,0,0,1,.5328.138c.5971.1995-.5782-.2039-.0465.0141.0619.0254-.2125-.089-.1692-.194-.0153.037-.2036-.431-.0249-.0164.0966.2241.2527.4269.3578.6486a6.53127,6.53127,0,0,1,.3525,1.0581,8.85787,8.85787,0,0,1-.5211,4.9628c-1.3023,3.7861-4.2113,6.921-7.1227,9.6283-11.802,10.9739-27.7009,16.0151-42.965,20.8294-16.4307,5.1824-33.2229,10.3473-47.0003,21.09a72.3642,72.3642,0,0,0-18.8928,22.1087c-4.8462,8.8649-7.7817,19.4764-5.1466,29.4993,4.6542,17.7041,25.1707,25.9114,41.8018,21.1856,19.2755-5.4772,31.135-23.3472,36.6425-41.6067a156.94758,156.94758,0,0,0,5.6562-31.1317,139.66537,139.66537,0,0,0-.8431-33.187c-2.8128-18.8725-10.6634-37.2319-23.7459-51.2828a79.5943,79.5943,0,0,0-10.3616-9.2344c-1.7215-1.3005-4.464-.2739-5.4617,1.4321-1.1966,2.0459-.2936,4.158,1.4321,5.4616Z" transform="translate(1064.2915 794.3478)"/>
                    </g>
                  </g>
                </g>
                <g>
                  <path class="cls-6" d="M1282.6268,900.2299a9.9648,9.9648,0,0,1-4.2329,6.5078c-4.8491,3.287-9.6294,6.8046-14.2068,10.4629a220.68461,220.68461,0,0,0-73.4301,107.4554,9.99735,9.99735,0,0,1-19.0971-5.9236,240.59168,240.59168,0,0,1,80.049-117.1574c4.9836-3.9795,10.1888-7.8126,15.471-11.3913a9.99769,9.99769,0,0,1,15.4469,10.0462Z" transform="translate(1064.2915 794.3478)"/>
                  <path class="cls-5" d="M1671.9896,1081.9752a277.78267,277.78267,0,0,0-377.2637-241.4834,271.06885,271.06885,0,0,0-30.124,13.7959,277.62686,277.62686,0,0,0-117.1177,371.1469l-56.6704,45.1265-.0244-.0044-15.6225,12.4534-142.65,113.592a56.05156,56.05156,0,1,0,69.9581,87.5955l142.6499-113.5921,15.6469-12.4489,56.6407-45.1026c70.4809,58.877,166.1801,79.5464,256.8369,52.5125a275.62607,275.62607,0,0,0,93.8774-49.1326c3.7979-3.0344,7.5659-6.2109,11.1777-9.4253a276.54651,276.54651,0,0,0,54.8042-66.5095,276.67526,276.67526,0,0,0,34.045-91.6467A279.49009,279.49009,0,0,0,1671.9896,1081.9752Zm-50.8052,140.9154a261.64168,261.64168,0,0,1-51.8247,62.8936c-3.438,3.0572-7.0014,6.0645-10.5923,8.9305A262.62454,262.62454,0,1,1,1271.662,857.5181a255.81943,255.81943,0,0,1,28.4751-13.041,259.19253,259.19253,0,0,1,48.5522-13.56,262.56129,262.56129,0,0,1,251.4351,94.6865C1667.6683,1010.2032,1676.139,1129.6614,1621.1844,1222.8906Z" transform="translate(1064.2915 794.3478)"/>
                  <g>
                    <g>
                      <path class="cls-18" d="M1002.4749,1464.1975l142.65-113.5919-69.9379-87.5664-.0202-.029-142.65,113.5918a56.05156,56.05156,0,1,0,69.9581,87.5955Z" transform="translate(1064.2915 794.3478)"/>
                      <polygon class="cls-18" points="2282.977 2086.388 2213.019 1998.793 2155.105 2044.909 2225.063 2132.504 2282.977 2086.388"/>
                      <polygon class="cls-19" points="2209.416 2144.953 2225.063 2132.504 2155.105 2044.909 2155.081 2044.905 2139.458 2057.358 2139.478 2057.387 2209.416 2144.953"/>
                    </g>
                    <path class="cls-18" d="M1668.1539,1128.8524a276.68145,276.68145,0,0,1-34.0452,91.6467,276.564,276.564,0,0,1-54.804,66.5096c-3.6121,3.2143-7.3799,6.3907-11.1781,9.4253a275.62171,275.62171,0,0,1-93.8775,49.1325c-109.0041,32.5052-225.3057-3.9457-296.2845-92.8704a277.836,277.836,0,0,1,86.6375-418.4083,271.04708,271.04708,0,0,1,30.1236-13.7961,273.98706,273.98706,0,0,1,51.3495-14.3394,277.77436,277.77436,0,0,1,322.0787,322.7001Zm-531.8216-95.9874a262.65164,262.65164,0,0,0,422.4353,251.8497c3.5905-2.866,7.1543-5.8733,10.5919-8.9305a261.62014,261.62014,0,0,0,51.8251-62.8937c54.9544-93.229,46.4839-212.6873-21.0604-297.2869h0a262.56106,262.56106,0,0,0-251.435-94.6867,259.19367,259.19367,0,0,0-48.5521,13.5603,255.809,255.809,0,0,0-28.475,13.0409,263.01694,263.01694,0,0,0-135.3298,185.3469Z" transform="translate(1064.2915 794.3478)"/>
                  </g>
                  <g>
                    <g class="cls-20">
                      <path class="cls-6" d="M1518.0493,1312.1,1219.9054,883.2388q5.166-4.5972,10.6087-8.947a261.7755,261.7755,0,0,1,88.923-46.5415l285.2809,410.3289a264.90645,264.90645,0,0,1-86.6687,74.0208Z" transform="translate(1064.2915 794.3478)"/>
                    </g>
                    <g class="cls-20">
                      <path class="cls-6" d="M1440.8868,1338.7507l-272.881-392.5225a257.8621,257.8621,0,0,1,29.7156-40.8191l291.7943,419.7582A258.81707,258.81707,0,0,1,1440.8868,1338.7507Z" transform="translate(1064.2915 794.3478)"/>
                    </g>
                  </g>
                </g>
                <g>
                  <path class="cls-13" d="M701.8423,1630.1889,871.4728,1733.824l142.5984-96.5475,179.5742-271.4949a17.88618,17.88618,0,0,0-5.8707-25.2964l-.0003-.0002a62.74636,62.74636,0,0,0-78.5085,12.2959l-42.9727,48.0453-70.2688,49.5259L959.6037,1312.1Z" transform="translate(1064.2915 794.3478)"/>
                  <path class="cls-16" d="M1143.2096,1371.4931c4.2896,7.8526,21.8056,22.5627,30.0708,25.0828,5.4254-5.9208,36.6945-44.0957,18.7077-54.7492C1171.9981,1329.9867,1143.2096,1371.4931,1143.2096,1371.4931Z" transform="translate(1064.2915 794.3478)"/>
                </g>
              </g>
            </g>
          </g>
        </g>
      </g>
    </g>
  </g>
</svg>
